<?xml version="1.0" standalone="no"?>
<!DOCTYPE svg PUBLIC "-//W3C//DTD SVG 1.1//EN" "http://www.w3.org/Graphics/SVG/1.1/DTD/svg11.dtd" >
<svg xmlns="http://www.w3.org/2000/svg" xmlns:xlink="http://www.w3.org/1999/xlink" version="1.1">
<metadata>
Created by FontForge 20161003 at Sun Apr 16 20:44:30 2017
 By www-data
Copyright (c) 2017, ParsMizban Co.
</metadata>
<defs>
<font id="Yekan" horiz-adv-x="0" >
  <font-face 
    font-family="Yekan"
    font-weight="400"
    font-stretch="normal"
    units-per-em="2048"
    panose-1="0 0 4 0 0 0 0 0 0 0"
    ascent="1638"
    descent="-410"
    x-height="1117"
    cap-height="1489"
    bbox="-288 -1044 2334 2064"
    underline-thickness="100"
    underline-position="-1150"
    unicode-range="U+000D-FEFC"
  />
<missing-glyph horiz-adv-x="1024" 
d="M896 0h-768v1360h768v-1360zM256 1232v-1104h512v1104h-512z" />
    <glyph glyph-name="uE818" unicode="&#x651;&#x64b;" 
d="M74 1523h45q0 -100 81 -100q80 0 83 100h50q0 -100 83 -100q81 0 82 100h48q0 -61 -35 -105q-38 -47 -97 -47q-46 0 -110 57q-47 -57 -110 -57q-57 0 -91 49q-29 44 -29 103zM167 1642l-28 47l315 173l28 -52zM167 1755l-27 50l315 174l28 -52z" />
    <glyph glyph-name="uFC5E" unicode="&#x651;&#x64c;" arabic-form="isolated" 
d="M105 1516h45q0 -100 81 -100q80 0 83 100h50q0 -100 83 -100q81 0 82 100h48q0 -61 -35 -105q-38 -47 -97 -47q-45 0 -110 57q-47 -57 -110 -57q-57 0 -91 49q-29 44 -29 103zM157 1793l-20 36q54 19 85 19q57 0 72 -78l77 45q-79 45 -79 114q0 89 87 124q30 11 37 11
q55 0 93 -37q39 -37 39 -90q0 -92 -49 -117l-283 -151l-28 48q50 33 63 53q0 34 -45 34q-29 0 -49 -11zM337 1930q0 -78 85 -78q26 0 53 29q27 30 27 57q0 32 -26 55.5t-60 23.5q-79 0 -79 -87z" />
    <glyph glyph-name="uFC5F" unicode="&#x651;&#x64d;" arabic-form="isolated" 
d="M94 1946h45q0 -100 81 -100q80 0 83 100h50q0 -100 83 -100q81 0 82 100h48q0 -61 -35 -105q-38 -47 -97 -47q-46 0 -110 57q-46 -57 -110 -57q-57 0 -91 49q-29 44 -29 103zM157 1357l-27 48l315 175l27 -54zM157 1501l-27 47l315 174l27 -52z" />
    <glyph glyph-name="uFC60" unicode="&#x651;&#x64e;" arabic-form="isolated" 
d="M94 1482h45q0 -100 81 -100q80 0 83 100h50q0 -100 83 -100q81 0 82 100h48q0 -61 -35 -105q-38 -47 -97 -47q-46 0 -110 57q-46 -57 -110 -57q-57 0 -91 49q-29 44 -29 103zM168 1587l-28 47l315 176l28 -55z" />
    <glyph glyph-name="uFC61" unicode="&#x651;&#x64f;" arabic-form="isolated" 
d="M115 1493h45q0 -100 81 -100q80 0 83 100h50q0 -100 83 -100q81 0 82 100h48q0 -61 -35 -105q-38 -47 -97 -47q-45 0 -110 57q-46 -57 -110 -57q-57 0 -91 49q-29 44 -29 103zM219 1631l-28 47l126 70q-78 45 -78 113q0 90 90 125q24 10 33 10q56 0 94 -37q40 -37 40 -91
q0 -89 -50 -116zM284 1862q0 -79 86 -79q26 0 52 30q27 30 27 57q0 32 -26.5 55t-60.5 23q-78 0 -78 -86z" />
    <glyph glyph-name="uFC62" unicode="&#x651;&#x650;" arabic-form="isolated" 
d="M84 1789h45q0 -100 81 -100q80 0 83 100h50q0 -100 83 -100q81 0 82 100h48q0 -61 -35 -105q-38 -47 -97 -47q-46 0 -110 57q-46 -57 -110 -57q-57 0 -91 49q-29 44 -29 103zM164 1365l-29 48l315 175l28 -54z" />
    <glyph glyph-name="uFDF2" unicode="&#xfedf;&#xfee0;&#xfeea;" horiz-adv-x="2253" arabic-form="isolated" 
d="M36 323q0 156 209 365l-51 58l121 122l539 -573q67 -71 92 -87q50 -30 230 -30q87 0 114 48q19 34 19 128v800h180v-836q0 -98 59 -122q39 -16 277 -16q81 0 106 43q15 24 15 131v800h177v-879q0 -129 -78 -203q-77 -72 -209 -72h-173q-177 0 -262 70q-64 -53 -117 -64
q-33 -6 -216 -6q-119 0 -172 31q-28 17 -188 165q-102 -216 -329 -216q-149 0 -246 97t-97 246zM216 311q0 -70 47 -114q46 -43 118 -43q68 0 120 44q52 45 52 113q0 66 -34 99l-145 144q-85 -81 -105 -106q-53 -68 -53 -137zM1165 1415h45q0 -100 81 -100q80 0 83 100h50
q0 -100 84 -100q81 0 81 100h49q0 -61 -35 -105q-37 -46 -98 -46q-45 0 -110 56q-47 -56 -104 -56q-117 0 -126 151z" />
    <glyph glyph-name="uFEF5" unicode="&#xfedf;&#xfe82;" horiz-adv-x="1054" arabic-form="isolated" 
d="M-57 1231l-164 64q64 139 116 180q61 49 236 61q47 4 257 4q76 0 233 -3v-177h-451q-30 0 -105 -9q-41 -4 -61 -20q-24 -19 -61 -100zM129 275v879h180v-800q0 -112 30 -143q31 -31 141 -31h158q79 0 106 43q15 24 15 131v800h176v-879q0 -129 -78 -203q-77 -72 -208 -72
h-169q-351 0 -351 275z" />
    <glyph glyph-name="uFEF6" unicode="&#xfee0;&#xfe82;" horiz-adv-x="1054" arabic-form="final" 
d="M-124 1297l-164 64q66 139 117 180q61 49 236 61q47 4 256 4q24 0 234 -2v-178h-451q-32 0 -105 -9q-44 -5 -62 -20q-24 -20 -61 -100zM79 275v879h176v-800q0 -121 34 -154q20 -20 141 -20h154q78 0 105 43q16 25 16 131v800h180v-818q0 -156 199 -156v-180
q-158 0 -246 118q-90 -118 -243 -118h-165q-351 0 -351 275z" />
    <glyph glyph-name="uFEF7" unicode="&#xfedf;&#xfe84;" horiz-adv-x="1054" arabic-form="isolated" 
d="M101 1295l-20 40l84 48q-75 37 -75 110q0 50 34 84q34 36 84 36q25 0 69 -19l-17 -36q-22 13 -54 13q-70 0 -70 -82q0 -68 67 -68q55 0 122 42l22 -44zM129 275v879h180v-800q0 -112 30 -143q31 -31 141 -31h158q79 0 106 43q15 24 15 131v800h176v-879q0 -129 -78 -203
q-77 -72 -208 -72h-169q-351 0 -351 275z" />
    <glyph glyph-name="uFEF8" unicode="&#xfee0;&#xfe84;" horiz-adv-x="1054" arabic-form="final" 
d="M64 1288l-20 40l84 48q-75 38 -75 110q0 49 35 84q34 36 84 36q25 0 69 -19l-18 -36q-20 13 -54 13q-70 0 -70 -82q0 -68 68 -68q53 0 121 42l23 -44zM79 275v879h176v-800q0 -121 34 -154q20 -20 141 -20h154q78 0 105 43q16 25 16 131v800h180v-818q0 -156 199 -156
v-180q-158 0 -246 118q-90 -118 -243 -118h-165q-351 0 -351 275z" />
    <glyph glyph-name="uFEF9" unicode="&#xfedf;&#xfe88;" horiz-adv-x="1054" arabic-form="isolated" 
d="M129 275v879h180v-800q0 -112 30 -143q31 -31 141 -31h158q79 0 106 43q15 24 15 131v800h176v-879q0 -129 -78 -203q-77 -72 -208 -72h-169q-351 0 -351 275zM197 -454l-20 40l84 47q-75 39 -75 110q0 51 34 85q35 35 84 35q24 0 69 -18l-17 -37q-23 14 -54 14
q-70 0 -70 -82q0 -68 67 -68q54 0 122 41l22 -43z" />
    <glyph glyph-name="uFEFA" unicode="&#xfee0;&#xfe88;" horiz-adv-x="1054" arabic-form="final" 
d="M79 275v879h176v-800q0 -121 34 -154q20 -20 141 -20h154q78 0 105 43q16 25 16 131v800h180v-818q0 -156 199 -156v-180q-158 0 -246 118q-90 -118 -243 -118h-165q-351 0 -351 275zM123 -447l-20 40l84 48q-75 39 -75 110q0 48 35 85q35 35 84 35q24 0 68 -19l-17 -36
q-22 14 -54 14q-70 0 -70 -83q0 -67 68 -67q53 0 121 41l22 -44z" />
    <glyph glyph-name="uFEFB" unicode="&#xfedf;&#xfe8e;" horiz-adv-x="1054" arabic-form="isolated" 
d="M129 275v879h180v-800q0 -112 30 -143q31 -31 141 -31h158q79 0 106 43q15 24 15 131v800h176v-879q0 -129 -78 -203q-77 -72 -208 -72h-169q-351 0 -351 275z" />
    <glyph glyph-name="uFEFC" unicode="&#xfee0;&#xfe8e;" horiz-adv-x="1054" arabic-form="final" 
d="M79 275v879h176v-800q0 -121 34 -154q20 -20 141 -20h154q78 0 105 43q16 25 16 131v800h180v-818q0 -156 199 -156v-180q-158 0 -246 118q-90 -118 -243 -118h-165q-351 0 -351 275z" />
    <glyph glyph-name="u0652_u064E.liga" unicode="&#x652;&#x64e;" horiz-adv-x="1" 
d="M172 1063l-80 2v287h78z" />
    <glyph glyph-name="u0652_u064B.liga" unicode="&#x652;&#x64b;" horiz-adv-x="1" 
d="M-2 1059q0 100 114 100q125 0 125 -100q0 -45 -33 -75.5t-81 -30.5q-50 0 -86 27q-39 30 -39 79zM343 1059q0 100 114 100q125 0 125 -100q0 -45 -33 -75.5t-81 -30.5q-50 0 -86 27q-39 30 -39 79z" />
    <glyph glyph-name="u0652_u064D.liga" unicode="&#x652;&#x64d;" horiz-adv-x="1" 
d="M289 -637q0 100 114 100q125 0 125 -100q0 -45 -33 -75.5t-81 -30.5q-50 0 -86 27q-39 30 -39 79zM634 -637q0 100 114 100q125 0 125 -100q0 -45 -33 -75.5t-81 -30.5q-50 0 -86 27q-39 30 -39 79z" />
    <glyph glyph-name="u0629" unicode="&#x6c0;" horiz-adv-x="809" arabic-form="isolated" 
d="M70 329q0 154 205 359l-52 58l122 122l329 -340q84 -87 84 -223q0 -139 -107 -234q-103 -91 -245 -91q-148 0 -242 100t-94 249zM163 940l-25 49l103 56q-90 49 -90 131q0 68 39 111q41 44 105 44q26 0 86 -22l-22 -48q-31 17 -55 17q-99 0 -99 -102q0 -81 76 -81
q63 0 160 51l25 -53zM244 311q0 -69 52 -114q53 -44 123 -44q72 0 115 46q45 47 45 117q0 54 -29 85l-145 153q-161 -153 -161 -243z" />
    <glyph glyph-name="u0643" unicode="&#x6a9;" horiz-adv-x="1606" arabic-form="isolated" 
d="M73 293v272h180v-247q0 -76 29 -107t103 -31h863q95 0 95 84q0 38 -29 67l-471 487l-25 205l656 236l24 -180l-473 -183l421 -446q87 -92 87 -206q0 -113 -85 -180q-79 -64 -193 -64h-926q-115 0 -188 91q-68 86 -68 202z" />
    <glyph glyph-name="u064A" unicode="&#x6cc;" horiz-adv-x="1289" arabic-form="isolated" 
d="M79 9v372h169v-392q0 -120 88 -196q84 -72 205 -72h232q106 0 190 69q90 72 90 176q0 88 -123 117q-31 7 -45 7h-250v309q0 138 89 229q88 91 229 91h216l7 -169h-216q-96 0 -134 -86q-18 -45 -22 -205q212 0 284 -26q137 -53 137 -224q0 -265 -191 -390
q-113 -74 -250 -74h-279q-185 0 -308 141q-118 134 -118 323z" />
    <glyph glyph-name="uFB57" unicode="&#x67e;" horiz-adv-x="1713" arabic-form="final" 
d="M81 293v272h180v-247q0 -77 30 -107.5t105 -30.5h837q75 0 103.5 30t28.5 108v247h183v-247q0 -138 198 -138v-180q-215 0 -286 70q-91 -70 -174 -70h-948q-112 0 -187 92q-70 85 -70 201zM554 -314q0 47 32 79t79 32q128 0 128 -111q0 -94 -122 -94q-117 0 -117 94z
M719 -568q0 48 32 79t80 31q53 0 88 -28q39 -32 39 -82q0 -97 -114 -97q-125 0 -125 97zM899 -314q0 47 32 79t79 32q128 0 128 -111q0 -94 -122 -94q-117 0 -117 94z" />
    <glyph glyph-name="uFB58" unicode="&#x67e;" horiz-adv-x="703" arabic-form="initial" 
d="M365 0h-385v180h329q75 0 103.5 30t28.5 108v247h180v-272q0 -116 -68 -202q-73 -91 -188 -91zM13 -314q0 48 32.5 79.5t80.5 31.5q128 0 128 -111q0 -96 -116 -96q-125 0 -125 96zM178 -568q0 110 112 110q52 0 89 -28q40 -31 40 -82q0 -98 -115 -98q-126 0 -126 98z
M358 -314q0 48 32.5 79.5t80.5 31.5q128 0 128 -111q0 -96 -116 -96q-125 0 -125 96z" />
    <glyph glyph-name="uFB59" unicode="&#x67e;" horiz-adv-x="739" arabic-form="medial" 
d="M349 0h-388v180h334q75 0 104 30.5t29 107.5v247h181v-247q0 -88 41 -117q31 -21 128 -21v-180q-111 -2 -165 9q-48 20 -93 61q-85 -70 -171 -70zM-18 -314q0 48 33 79.5t81 31.5q128 0 128 -111q0 -96 -116 -96q-126 0 -126 96zM148 -568q0 110 112 110q52 0 89 -28
q40 -31 40 -82q0 -98 -115 -98q-126 0 -126 98zM328 -314q0 48 32.5 79.5t80.5 31.5q128 0 128 -111q0 -96 -116 -96q-125 0 -125 96z" />
    <glyph glyph-name="uFB7B" unicode="&#x686;" horiz-adv-x="1104" arabic-form="final" 
d="M61 -304q0 296 264 442l551 303q-76 116 -397 109l-226 -7h25l-23 176h434q376 0 376 -371l-164 -93q22 -55 114 -70q33 -5 145 -5v-180q-163 4 -220 36q-78 44 -91 90q-11 35 -24 85l-352 -195q-240 -134 -240 -334q0 -146 113 -259q114 -114 260 -114h525l15 -177h-492
q-252 0 -421 155q-172 157 -172 409zM424 -223q0 48 32 79t80 31q52 0 89 -28q40 -31 40 -82q0 -95 -122 -95q-119 0 -119 95zM586 -478q0 110 112 110q51 0 88 -28q40 -31 40 -82q0 -97 -113 -97q-127 0 -127 97zM770 -223q0 48 33 79t81 31q51 0 88 -28q39 -31 39 -82
q0 -95 -121 -95q-120 0 -120 95z" />
    <glyph glyph-name="uFB7C" unicode="&#x686;" horiz-adv-x="1031" arabic-form="initial" 
d="M-43 0v180q348 0 493 68q11 5 130 68l220 123q-35 74 -116 94q-37 8 -159 8l-315 2l-25 176h444q367 0 367 -371l-412 -235q-148 -84 -304 -103q-76 -10 -323 -10zM98 -314q0 48 32 79.5t80 31.5q54 0 89 -28q40 -31 40 -83q0 -94 -123 -94q-118 0 -118 94zM261 -568
q0 110 113 110q51 0 88 -28q41 -32 41 -82q0 -97 -114 -97q-128 0 -128 97zM443 -314q0 48 32 79.5t80 31.5q128 0 128 -111q0 -94 -122 -94q-118 0 -118 94z" />
    <glyph glyph-name="uFB7D" unicode="&#x686;" horiz-adv-x="1031" arabic-form="medial" 
d="M-43 0v180q346 0 493 68q42 19 350 191q-34 73 -116 94q-35 8 -159 8l-315 2l-25 176h444q367 0 367 -371l-167 -92q0 -76 230 -76v-180q-254 6 -281 118q-15 55 -23 93q-259 -154 -376 -183q-105 -28 -422 -28zM120 -314q0 46 34 77q35 32 80 32q126 0 126 -109
q0 -96 -116 -96q-124 0 -124 96zM284 -568q0 108 115 108q126 0 126 -108q0 -98 -115 -98q-126 0 -126 98zM464 -314q0 46 34 77q35 32 80 32q54 0 90.5 -30t36.5 -79q0 -96 -116 -96q-125 0 -125 96z" />
    <glyph glyph-name="uFB8B" unicode="&#x698;" horiz-adv-x="915" arabic-form="final" 
d="M65 -455l-29 180h248q112 0 197 75q89 78 89 189v576h180v-259q0 -126 196 -126v-180q-141 1 -193 85q0 -227 -112 -375q-123 -165 -343 -165h-233zM334 804q0 97 115 97q124 0 124 -97q0 -48 -34 -79t-80 -31q-52 0 -88.5 31t-36.5 79zM503 1059q0 97 115 97
q126 0 126 -97q0 -48 -33 -79t-82 -31q-51 0 -88 31q-38 32 -38 79zM679 804q0 97 114 97q127 0 127 -97q0 -48 -33 -79t-82 -31t-86 30q-40 31 -40 80z" />
    <glyph glyph-name="uFB93" unicode="&#x6af;" horiz-adv-x="1760" arabic-form="final" 
d="M63 293v272h181v-247q0 -78 28.5 -108t103.5 -30h879q90 0 90 68q0 34 -42 78l-472 492l-31 202l664 239l25 -180l-469 -175l499 -555q0 -2 127 -130q33 -35 148 -39v-180q-204 0 -298 129q-46 -129 -232 -129h-944q-116 0 -189 90q-68 85 -68 203zM793 1134l-9 69
l631 227l4 -69z" />
    <glyph glyph-name="uFB94" unicode="&#x6af;" horiz-adv-x="856" arabic-form="initial" 
d="M483 0h-526v180h526q103 0 103 68q0 38 -33 72l-479 498l-34 202l665 239l25 -180l-474 -180l463 -511q50 -56 50 -149q0 -115 -89 -180q-80 -59 -197 -59zM31 1134l-8 69l632 227l5 -69z" />
    <glyph glyph-name="uFB95" unicode="&#x6af;" horiz-adv-x="1031" arabic-form="medial" 
d="M511 0h-536v180h539q92 0 92 68q0 34 -42 78l-471 492l-30 202l661 239l29 -180l-480 -180l502 -550q51 -57 158 -150q43 -22 121 -19v-180q-222 0 -315 144q-61 -144 -228 -144zM51 1134l-8 69l633 227l4 -69z" />
    <glyph glyph-name="Hcircumflex" unicode="&#x622;" horiz-adv-x="575" arabic-form="final" 
d="M48 1129l-166 62q64 140 112 177q75 57 225 61q100 4 366 4h140v-175h-450q-27 -4 -106 -10q-42 -5 -60 -20q-25 -22 -61 -99zM221 275v851h180v-772q0 -123 40 -151q32 -23 163 -23v-180q-183 0 -266 46q-117 65 -117 229z" />
    <glyph glyph-name="uFE84" unicode="&#x623;" horiz-adv-x="469" arabic-form="final" 
d="M99 1258l-20 40l84 48q-75 38 -75 110q0 50 34 84q34 36 84 36q25 0 69 -19l-17 -36q-22 13 -54 13q-70 0 -70 -82q0 -68 67 -68q55 0 122 42l22 -44zM126 275v851h180v-772q0 -124 42 -153q25 -16 161 -21v-180q-229 0 -321 88q-62 57 -62 187z" />
    <glyph glyph-name="uFE86" unicode="&#x624;" horiz-adv-x="893" arabic-form="final" 
d="M101 -455l-22 180h227q125 0 211 74q92 80 92 201q-222 0 -325 58q-140 77 -140 280q0 185 62 274q75 107 253 107q221 0 295 -174q46 -108 46 -365h119v-180h-119q0 -201 -133 -328q-131 -127 -333 -127h-233zM180 736l-25 50l104 57q-90 49 -90 131q0 67 40 111t105 44
q22 0 85 -23l-23 -47q-28 16 -51 16q-43 0 -71.5 -29t-28.5 -72q0 -81 79 -81q58 0 156 51l24 -54zM329 356q0 -122 90 -157q47 -19 196 -19v171q0 111 -59 155q-47 35 -90 35q-137 0 -137 -185z" />
    <glyph glyph-name="uFE88" unicode="&#x625;" horiz-adv-x="469" arabic-form="final" 
d="M126 275v851h180v-772q0 -124 42 -153q25 -16 161 -21v-180q-229 0 -321 88q-62 57 -62 187zM187 -491l-20 40l84 48q-75 37 -75 110q0 48 35 85q35 35 84 35q25 0 69 -19l-18 -36q-20 13 -54 13q-70 0 -70 -82q0 -68 68 -68q54 0 121 42l23 -44z" />
    <glyph glyph-name="uFE8A" unicode="&#x626;" horiz-adv-x="1289" arabic-form="final" 
d="M43 63v322h180v-391q0 -128 90 -202q82 -67 215 -67h231q96 0 157 52q67 55 67 149q0 46 -53 58q-56 11 -321 16l-16 180h725v-180h-167q9 -32 9 -88q0 -159 -118 -265q-114 -102 -276 -102h-277q-217 0 -337 155q-109 139 -109 363zM146 629l-25 49l104 57
q-92 50 -92 130q0 62 41 108q42 46 105 46q37 0 86 -21l-22 -47q-29 15 -54 15q-43 0 -71.5 -29t-28.5 -72q0 -81 79 -81q56 0 156 52l26 -55z" />
    <glyph glyph-name="uFE8B" unicode="&#x626;" horiz-adv-x="609" arabic-form="initial" 
d="M259 0h-295v180q282 0 315 11q60 23 60 162q0 12 -2 106q-1 47 -1 106h184v-272q0 -117 -72 -202q-76 -91 -189 -91zM143 620l-25 49l103 56q-92 53 -92 134q0 63 41 107q42 45 105 45q25 0 85 -22l-22 -48q-25 19 -54 19q-99 0 -99 -101q0 -81 79 -81q58 0 155 51
l27 -56z" />
    <glyph glyph-name="uFE8C" unicode="&#x626;" horiz-adv-x="703" arabic-form="medial" 
d="M306 0h-326v180q60 0 123 -1l93 -1q116 -2 150 34q34 37 34 154v182q0 19 -1 22v-5h185v-247q0 -90 39 -115q27 -18 125 -23v-180h-29q-91 0 -121 8q-42 10 -103 62q-89 -70 -169 -70zM138 626l-25 50l103 57q-92 48 -92 130q0 62 41 109q42 47 105 47q23 0 86 -23
l-22 -47q-28 15 -54 15q-42 0 -71 -29.5t-29 -71.5q0 -82 79 -82q55 0 156 53l26 -54z" />
    <glyph glyph-name="uFE8E" unicode="&#x627;" horiz-adv-x="469" arabic-form="final" 
d="M126 275v851h180v-772q0 -124 42 -153q25 -16 161 -21v-180q-229 0 -321 88q-62 57 -62 187z" />
    <glyph glyph-name="uFE90" unicode="&#x628;" horiz-adv-x="1713" arabic-form="final" 
d="M81 293v272h180v-247q0 -77 30 -107.5t105 -30.5h837q75 0 103.5 30t28.5 108v247h183v-247q0 -138 198 -138v-180q-215 0 -286 70q-91 -70 -174 -70h-948q-112 0 -187 92q-70 85 -70 201zM678 -334q0 109 128 109q132 0 132 -109q0 -54 -37 -88q-36 -36 -88 -36
q-135 0 -135 124z" />
    <glyph glyph-name="uFE91" unicode="&#x628;" horiz-adv-x="586" arabic-form="initial" 
d="M259 0h-295v180q282 0 315 11q60 23 60 162q0 12 -2 106q-1 47 -1 106h184v-272q0 -117 -72 -202q-76 -91 -189 -91zM49 -336q0 108 129 108q130 0 130 -108q0 -54 -37 -88q-36 -36 -88 -36q-134 0 -134 124z" />
    <glyph glyph-name="uFE92" unicode="&#x628;" horiz-adv-x="703" arabic-form="medial" 
d="M278 0h-296v180q281 0 314 13q60 21 60 161q0 58 -1 105t-1 106h185v-247q0 -88 60 -117q36 -16 140 -21v-180h-56q-154 0 -233 70q-89 -70 -172 -70zM54 -326q0 107 129 107q131 0 131 -107q0 -53 -36 -89t-89 -36q-135 0 -135 125z" />
    <glyph glyph-name="uFE94" unicode="&#x629;" horiz-adv-x="1031" arabic-form="final" 
d="M36 323q0 156 209 365l-51 58l121 122l539 -573q69 -74 91 -87q39 -24 123 -28v-180q-119 0 -172 31q-28 17 -188 165q-102 -216 -329 -216q-149 0 -246 97t-97 246zM146 989l-25 50l104 56q-92 50 -92 130q0 62 41 108q42 46 105 46q38 0 86 -20l-22 -48q-32 17 -54 17
q-42 0 -71 -30t-29 -73q0 -80 79 -80q58 0 156 51l26 -53zM216 311q0 -70 47 -114q46 -43 118 -43q68 0 120 44q52 45 52 113q0 66 -34 99l-145 144q-85 -81 -105 -106q-53 -68 -53 -137z" />
    <glyph glyph-name="uFE96" unicode="&#x62a;" horiz-adv-x="1713" arabic-form="final" 
d="M81 293v272h180v-247q0 -77 30 -107.5t105 -30.5h837q75 0 103.5 30t28.5 108v247h183v-247q0 -138 198 -138v-180q-215 0 -286 70q-91 -70 -174 -70h-948q-112 0 -187 92q-70 85 -70 201zM525 865q0 99 116 99q125 0 125 -99q0 -45 -33.5 -75.5t-79.5 -30.5
q-128 0 -128 106zM871 865q0 99 118 99q124 0 124 -99q0 -45 -33 -75.5t-81 -30.5q-128 0 -128 106z" />
    <glyph glyph-name="uFE97" unicode="&#x62a;" horiz-adv-x="680" arabic-form="initial" 
d="M349 0h-385v180h329q75 0 104 30.5t29 107.5v247h180v-272q0 -117 -69 -202q-73 -91 -188 -91zM123 856q0 99 116 99q125 0 125 -99q0 -46 -34 -77q-32 -31 -80 -31q-52 0 -88 27q-39 31 -39 81zM468 856q0 99 116 99q125 0 125 -99q0 -46 -34 -77q-32 -31 -80 -31
q-52 0 -88 27q-39 31 -39 81z" />
    <glyph glyph-name="uFE98" unicode="&#x62a;" horiz-adv-x="739" arabic-form="medial" 
d="M349 0h-388v180h334q75 0 104 30.5t29 107.5v247h181v-247q0 -88 41 -117q31 -21 128 -21v-180q-111 -2 -165 9q-48 20 -93 61q-85 -70 -171 -70zM141 863q0 100 115 100q124 0 124 -100q0 -46 -32.5 -76.5t-79.5 -30.5q-127 0 -127 107zM486 863q0 100 115 100
q124 0 124 -100q0 -46 -32.5 -76.5t-79.5 -30.5q-127 0 -127 107z" />
    <glyph glyph-name="uFE9A" unicode="&#x62b;" horiz-adv-x="1713" arabic-form="final" 
d="M81 293v272h180v-247q0 -77 30 -107.5t105 -30.5h837q75 0 103.5 30t28.5 108v247h183v-247q0 -138 198 -138v-180q-215 0 -286 70q-91 -70 -174 -70h-948q-112 0 -187 92q-70 85 -70 201zM520 800q0 99 115 99q124 0 124 -99q0 -46 -34 -77q-34 -32 -79 -32
q-49 0 -86 29q-40 31 -40 80zM689 1054q0 100 115 100q126 0 126 -100q0 -47 -33.5 -77.5t-81.5 -30.5q-126 0 -126 108zM865 800q0 99 115 99q126 0 126 -99q0 -46 -35 -78q-34 -31 -81 -31q-49 0 -86 29q-39 32 -39 80z" />
    <glyph glyph-name="uFE9B" unicode="&#x62b;" horiz-adv-x="680" arabic-form="initial" 
d="M349 0h-385v180h329q75 0 104 30.5t29 107.5v247h180v-272q0 -117 -69 -202q-73 -91 -188 -91zM116 800q0 99 117 99q125 0 125 -99q0 -46 -34 -79q-35 -32 -80 -32q-50 0 -88 30q-40 31 -40 81zM285 1054q0 100 116 100q128 0 128 -100q0 -47 -33.5 -78.5t-82.5 -31.5
q-51 0 -88 29q-40 31 -40 81zM461 800q0 99 117 99q126 0 126 -99q0 -46 -35 -79q-35 -32 -80 -32q-51 0 -88 30q-40 31 -40 81z" />
    <glyph glyph-name="uFE9C" unicode="&#x62b;" horiz-adv-x="739" arabic-form="medial" 
d="M349 0h-388v180h334q75 0 104 30.5t29 107.5v247h181v-247q0 -88 41 -117q31 -21 128 -21v-180q-111 -2 -165 9q-48 20 -93 61q-85 -70 -171 -70zM186 800q0 99 117 99q125 0 125 -99q0 -46 -34 -79q-35 -32 -80 -32q-50 0 -88 30q-40 31 -40 81zM355 1054q0 100 116 100
q128 0 128 -100q0 -47 -33.5 -78.5t-82.5 -31.5q-51 0 -88 29q-40 31 -40 81zM531 800q0 99 117 99q126 0 126 -99q0 -46 -35 -79q-35 -32 -80 -32q-51 0 -88 30q-40 31 -40 81z" />
    <glyph glyph-name="uFE9E" unicode="&#x62c;" horiz-adv-x="1104" arabic-form="final" 
d="M50 -304q0 296 264 442l551 303q-76 116 -397 109l-226 -7h24l-22 176h434q376 0 376 -371l-164 -93q22 -55 114 -70q33 -5 145 -5v-180q-165 5 -220 36q-77 43 -91 90q-11 35 -24 85l-353 -195q-240 -134 -240 -334q0 -146 114 -259q114 -114 260 -114h525l15 -177h-492
q-254 0 -421 155q-172 157 -172 409zM561 -331q0 110 130 110q132 0 132 -105q0 -52 -37 -89q-38 -38 -88 -38q-58 0 -96 32q-41 35 -41 90z" />
    <glyph glyph-name="uFE9F" unicode="&#x62c;" horiz-adv-x="1031" arabic-form="initial" 
d="M-43 0v180q348 0 493 68q11 5 130 68l220 123q-35 74 -116 94q-37 8 -159 8l-315 2l-25 176h444q367 0 367 -371l-412 -235q-148 -84 -304 -103q-76 -10 -323 -10zM88 -326q0 112 131 112q130 0 130 -109q0 -51 -36 -89q-34 -37 -88 -37q-58 0 -96 32q-41 35 -41 91z" />
    <glyph glyph-name="uFEA0" unicode="&#x62c;" horiz-adv-x="1031" arabic-form="medial" 
d="M-43 0v180q346 0 493 68q42 19 350 191q-34 73 -116 94q-35 8 -159 8l-315 2l-25 176h444q367 0 367 -371l-167 -92q0 -76 230 -76v-180q-254 6 -281 118q-15 55 -23 93q-259 -154 -376 -183q-105 -28 -422 -28zM258 -338q0 110 131 110q130 0 130 -106q0 -50 -36 -88
t-88 -38q-58 0 -96 32q-41 35 -41 90z" />
    <glyph glyph-name="uFEA2" unicode="&#x62d;" horiz-adv-x="1104" arabic-form="final" 
d="M51 -314v39l5 39q32 250 259 374l555 303q-39 71 -120 89q-26 5 -159 10l-321 3l-25 176h435q370 0 376 -371l-163 -93q11 -75 258 -75v-180q-272 0 -311 126q-1 4 -5.5 19t-9.5 31.5t-10 34.5l-351 -195q-241 -133 -241 -334q0 -145 114 -259q115 -114 261 -114h525
l15 -177h-494q-286 0 -459 203q-134 158 -134 351z" />
    <glyph glyph-name="uFEA3" unicode="&#x62d;" horiz-adv-x="1031" arabic-form="initial" 
d="M-43 0v180h144q199 0 367 76q32 15 332 183q-28 66 -122 92q-24 6 -468 12l-25 176h444q365 0 367 -371l-412 -235q-137 -79 -304 -100q-63 -8 -323 -13z" />
    <glyph glyph-name="uFEA4" unicode="&#x62d;" horiz-adv-x="1031" arabic-form="medial" 
d="M-43 0v180h144q193 0 367 76q52 24 332 183q-30 69 -122 92q-13 4 -110 7q-14 0 -55.5 1t-130.5 2t-172 2l-25 176h444q361 0 367 -374l-167 -90q0 -75 230 -75v-180q-250 0 -281 118l-13 50l-10 43q-241 -146 -377 -181q-107 -26 -421 -30z" />
    <glyph glyph-name="uFEA6" unicode="&#x62e;" horiz-adv-x="1104" arabic-form="final" 
d="M50 -304q0 296 264 442l551 303q-76 116 -397 109l-226 -7h24l-22 176h434q376 0 376 -371l-164 -93q22 -55 114 -70q33 -5 145 -5v-180q-165 5 -220 36q-77 43 -91 90q-11 35 -24 85l-353 -195q-240 -134 -240 -334q0 -146 114 -259q114 -114 260 -114h525l15 -177h-492
q-254 0 -421 155q-172 157 -172 409zM478 1045q0 109 131 109q130 0 130 -109q0 -53 -36 -90q-36 -36 -89 -36q-136 0 -136 126z" />
    <glyph glyph-name="uFEA7" unicode="&#x62e;" horiz-adv-x="1031" arabic-form="initial" 
d="M-43 0v180q348 0 493 68q11 5 130 68l220 123q-35 74 -116 94q-37 8 -159 8l-315 2l-25 176h444q367 0 367 -371l-412 -235q-148 -84 -304 -103q-76 -10 -323 -10zM388 1041q0 108 131 108q130 0 130 -108q0 -51 -37 -88t-88 -37q-136 0 -136 125z" />
    <glyph glyph-name="uFEA8" unicode="&#x62e;" horiz-adv-x="1031" arabic-form="medial" 
d="M-43 0v180q346 0 493 68q42 19 350 191q-34 73 -116 94q-35 8 -159 8l-315 2l-25 176h444q367 0 367 -371l-167 -92q0 -76 230 -76v-180q-254 6 -281 118q-15 55 -23 93q-259 -154 -376 -183q-105 -28 -422 -28zM349 1070q0 106 129 106q131 0 131 -106q0 -52 -36 -90
q-36 -36 -89 -36q-59 0 -97 35t-38 91z" />
    <glyph glyph-name="uFEAA" unicode="&#x62f;" horiz-adv-x="1171" arabic-form="final" 
d="M118 0l-25 180h572q99 0 99 68q0 39 -28 67l-405 431l122 122l541 -573q69 -74 97 -90q44 -25 134 -25v-180h-82q-103 0 -228 124q-81 -124 -239 -124h-558z" />
    <glyph glyph-name="uFEAC" unicode="&#x630;" horiz-adv-x="1171" arabic-form="final" 
d="M115 0l-25 180h573q98 0 98 68q0 38 -26 67l-406 431l121 122l541 -573q70 -73 98 -89q46 -26 135 -26v-180h-84q-101 0 -225 124q-50 -72 -101 -98q-50 -26 -138 -26h-561zM214 1076q0 109 131 109q130 0 130 -109q0 -51 -37 -87q-36 -36 -88 -36q-136 0 -136 123z" />
    <glyph glyph-name="uFEAE" unicode="&#x631;" horiz-adv-x="915" arabic-form="final" 
d="M65 -455l-29 180h248q117 0 199 73q87 76 87 191v576h180v-259q0 -122 196 -126v-180q-136 0 -193 85q0 -227 -112 -375q-123 -165 -343 -165h-233z" />
    <glyph glyph-name="uFEB0" unicode="&#x632;" horiz-adv-x="915" arabic-form="final" 
d="M65 -455l-29 180h248q112 0 197 75q89 78 89 189v576h180v-259q0 -126 196 -126v-180q-141 1 -193 85q0 -227 -112 -375q-123 -165 -343 -165h-233zM481 1045q0 106 132 106q131 0 131 -106q0 -53 -36 -90q-36 -36 -89 -36q-138 0 -138 126z" />
    <glyph glyph-name="uFEB2" unicode="&#x633;" horiz-adv-x="2298" arabic-form="final" 
d="M45 11v374h180v-382q0 -123 81 -200q82 -78 205 -78h235q127 0 207 76q81 76 81 202v562h180v-267q0 -64 45 -104q44 -40 109 -40q121 0 121 112v299h180v-265q0 -62 45 -104q46 -42 109 -42q123 0 123 112v299h178v-276q0 -61 66 -93q23 -9 144 -16v-180q-101 1 -141 13
q-68 18 -109 83q-80 -114 -223 -114q-134 0 -238 122q-97 -127 -229 -127q-94 0 -180 77q0 -213 -115 -355q-124 -154 -330 -154h-280q-193 0 -321 137q-123 134 -123 329z" />
    <glyph glyph-name="uFEB3" unicode="&#x633;" horiz-adv-x="1455" arabic-form="initial" 
d="M189 0h-229v180h216q125 0 125 134v251h177v-265q0 -65 46 -105q47 -41 111 -41q123 0 123 112v299h175v-265q0 -63 45 -105q47 -41 110 -41q126 0 126 112v299h176v-276q0 -134 -61 -216q-67 -93 -198 -93q-128 0 -243 121q-104 -119 -219 -119q-122 0 -245 142
q-108 -124 -235 -124z" />
    <glyph glyph-name="uFEB4" unicode="&#x633;" horiz-adv-x="1561" arabic-form="medial" 
d="M-50 0v180h151q100 0 138 25q51 33 51 131v229h176v-267q0 -64 46 -104t109 -40q123 0 123 112v299h177v-265q0 -63 47 -105q44 -41 108 -41q125 0 125 112v299h178v-276q0 -63 65 -93q18 -8 145 -16v-180q-102 1 -140 13q-71 20 -106 83q-83 -116 -208 -116t-247 119
q-105 -119 -262 -119q-147 0 -241 126q-59 -78 -201 -97q-63 -9 -234 -9z" />
    <glyph glyph-name="uFEB6" unicode="&#x634;" horiz-adv-x="2298" arabic-form="final" 
d="M39 11v374h180v-382q0 -125 80 -202q79 -76 206 -76h234q123 0 206 78q83 77 83 200v562h180v-267q0 -63 43 -103q44 -41 105 -41q127 0 127 112v299h180v-265q0 -65 44 -106q43 -40 109 -40q124 0 124 112v299h178v-276q0 -109 210 -109v-180h-64q-124 0 -189 99
q-81 -115 -224 -115q-141 0 -236 122q-96 -126 -225 -126q-97 0 -182 74q-3 -212 -117 -354q-125 -155 -330 -155h-278q-193 0 -320 138q-124 134 -124 328zM1266 795q0 100 117 100q125 0 125 -100q0 -44 -35 -76q-34 -31 -79 -31q-52 0 -88 27q-40 30 -40 80zM1440 1050
q0 99 121 99q45 0 81 -24q41 -27 41 -69q0 -48 -34 -82q-35 -33 -81 -33q-54 0 -89 28q-39 30 -39 81zM1613 795q0 100 117 100q126 0 126 -100q0 -46 -34 -77q-34 -30 -81 -30q-52 0 -88 27q-40 30 -40 80z" />
    <glyph glyph-name="uFEB7" unicode="&#x634;" horiz-adv-x="1455" arabic-form="initial" 
d="M189 0h-229v180h216q125 0 125 131v253l177 1v-265q0 -65 44 -106q43 -40 109 -40q127 0 127 112v299h175v-265q0 -64 45 -105q46 -41 110 -41q126 0 126 112v299h176v-276q0 -131 -60 -213q-67 -94 -192 -94q-143 0 -248 122q-104 -120 -219 -120q-130 0 -245 142
q-122 -126 -237 -126zM523 800q0 96 115 96q123 0 123 -96q0 -46 -34 -79q-34 -32 -79 -32q-52 0 -88.5 31.5t-36.5 79.5zM691 1054q0 97 115 97q127 0 127 -97q0 -47 -33.5 -78.5t-81.5 -31.5q-50 0 -87 30q-40 31 -40 80zM868 800q0 96 113 96q128 0 128 -96
q0 -48 -33.5 -79.5t-81.5 -31.5q-51 0 -88 31q-38 32 -38 80z" />
    <glyph glyph-name="uFEB8" unicode="&#x634;" horiz-adv-x="1561" arabic-form="medial" 
d="M-50 0v180h165q92 0 124 23q51 37 51 133v229h176v-267q0 -64 47 -105q43 -39 108 -39q123 0 123 112v299h177v-265q0 -64 45 -105q47 -41 110 -41q125 0 125 112v299h178v-276q0 -109 210 -109v-180h-69l-65 11q-73 13 -116 88q-83 -117 -205 -117q-127 0 -249 122
q-108 -122 -256 -122t-244 127q-69 -78 -202 -99q-60 -10 -233 -10zM475 851q0 98 116 98q125 0 125 -98q0 -45 -33.5 -77.5t-79.5 -32.5q-51 0 -88 30q-40 31 -40 80zM649 1106q0 97 121 97q46 0 81 -23q42 -26 42 -69q0 -49 -33 -82.5t-82 -33.5q-51 0 -89 29
q-40 31 -40 82zM823 851q0 98 116 98q126 0 126 -98q0 -47 -33.5 -78.5t-81.5 -31.5q-52 0 -89 30q-38 30 -38 80z" />
    <glyph glyph-name="uFEBA" unicode="&#x635;" horiz-adv-x="2253" arabic-form="final" 
d="M61 31v354h175v-396q0 -111 81 -187q82 -77 192 -77h252q104 0 193 80t89 184v576h181v-267q0 -116 171 -118q214 541 495 541q184 0 278 -180q42 -81 42 -205q0 -68 -27 -156h101v-180h-818q-202 0 -241 95q0 -238 -104 -384q-120 -166 -348 -166h-278q-201 0 -321 145
q-113 137 -113 341zM1579 180h347q99 0 99 181q0 178 -107 178q-157 0 -339 -359z" />
    <glyph glyph-name="uFEBB" unicode="&#x635;" horiz-adv-x="1548" arabic-form="initial" 
d="M178 0h-218v180h200q126 0 126 134v251h178v-231q0 -152 174 -154q209 539 497 539q66 0 140 -41q174 -98 174 -329q0 -74 -23 -158q-35 -122 -106 -161q-56 -30 -186 -30h-456q-186 0 -257 146q-107 -146 -243 -146zM815 180h353q101 0 101 174q0 121 -55 166
q-22 19 -54 19q-159 0 -345 -359z" />
    <glyph glyph-name="uFEBC" unicode="&#x635;" horiz-adv-x="1561" arabic-form="medial" 
d="M178 0h-218v180h200q126 0 126 134v251h178v-231q0 -152 174 -154q209 539 497 539q72 0 143 -41q171 -100 171 -330q0 -71 -28 -168h168v-180h-911q-186 0 -257 146q-107 -146 -243 -146zM815 180h353q101 0 101 174q0 121 -55 166q-22 19 -54 19q-159 0 -345 -359z" />
    <glyph glyph-name="uFEBE" unicode="&#x636;" horiz-adv-x="2253" arabic-form="final" 
d="M59 31v354h175v-396q0 -107 82 -185q82 -79 190 -79h253q102 0 191 82q91 82 91 182v576h180v-267q0 -118 172 -118q222 541 495 541q70 0 146 -43q171 -99 171 -333q0 -84 -26 -165h104v-180h-819q-213 0 -240 95q-5 -241 -106 -384q-118 -166 -348 -166h-276
q-197 0 -320 147q-115 139 -115 339zM1578 180h346q99 0 99 174q0 185 -108 185q-88 0 -200 -139q-87 -109 -137 -220zM1601 1039q0 107 132 107q130 0 130 -107q0 -52 -37 -88q-38 -36 -88 -36q-137 0 -137 124z" />
    <glyph glyph-name="uFEBF" unicode="&#x636;" horiz-adv-x="1548" arabic-form="initial" 
d="M176 0h-216v180h200q126 0 126 131v253l178 1v-231q0 -154 176 -154q222 539 498 539q70 0 140 -41q171 -104 171 -327q0 -77 -23 -160q-33 -121 -106 -161q-56 -30 -186 -30h-456q-179 0 -259 146q-105 -146 -243 -146zM764 1064q0 107 129 107q130 0 130 -107
q0 -52 -37 -89q-38 -36 -88 -36q-134 0 -134 125zM815 180h350q101 0 101 168q0 191 -106 191q-90 0 -204 -138q-85 -103 -141 -221z" />
    <glyph glyph-name="uFEC0" unicode="&#x636;" horiz-adv-x="1561" arabic-form="medial" 
d="M176 0h-216v180h200q126 0 126 131v253l178 1v-231q0 -154 176 -154q222 539 498 539q72 0 140 -41q168 -104 168 -330q0 -86 -27 -168h170v-180h-911q-179 0 -259 146q-105 -146 -243 -146zM766 1068q0 108 130 108q132 0 132 -108q0 -52 -38 -88t-89 -36
q-135 0 -135 124zM815 180h350q101 0 101 168q0 191 -106 191q-90 0 -204 -138q-85 -103 -141 -221z" />
    <glyph glyph-name="uFEC2" unicode="&#x637;" horiz-adv-x="1043" arabic-form="final" 
d="M76 0l-36 180h154v974h176v-643q171 208 313 208q56 0 132 -41q174 -98 174 -367q0 -59 -25 -131h97v-180h-985zM359 180h346q44 0 79 56q25 40 25 133q0 170 -109 170q-90 0 -202 -139q-83 -101 -139 -220z" />
    <glyph glyph-name="uFEC3" unicode="&#x637;" horiz-adv-x="986" arabic-form="initial" 
d="M629 0h-665v180h154v974h180v-643q172 205 308 205q139 0 230 -123q82 -110 82 -257t-70 -236q-76 -100 -219 -100zM279 178h350q104 0 104 163q0 195 -112 195q-87 0 -203 -137q-94 -113 -139 -221z" />
    <glyph glyph-name="uFEC4" unicode="&#x637;" horiz-adv-x="949" arabic-form="medial" 
d="M966 0h-1016v180h131v974h175v-643q172 208 314 208q57 0 133 -41q168 -94 168 -338q0 -94 -23 -160h118v-180zM245 180h348q43 0 78 56q25 40 25 133q0 170 -108 170q-89 0 -203 -139q-82 -99 -140 -220z" />
    <glyph glyph-name="uFEC6" unicode="&#x638;" horiz-adv-x="1043" arabic-form="final" 
d="M74 0l-34 180h154v974h176v-643q166 208 310 208q63 0 134 -41q175 -103 175 -304q0 -116 -26 -194h98v-180h-987zM356 180h347q103 0 103 179q0 180 -107 180q-89 0 -204 -138q-91 -109 -139 -221zM570 1053q0 107 129 107q130 0 130 -107q0 -52 -37 -89
q-38 -36 -88 -36q-134 0 -134 125z" />
    <glyph glyph-name="uFEC7" unicode="&#x638;" horiz-adv-x="986" arabic-form="initial" 
d="M629 0h-665v180h154v974h180v-643q172 205 308 205q139 0 230 -123q82 -110 82 -257t-70 -236q-76 -100 -219 -100zM279 178h350q104 0 104 163q0 195 -112 195q-87 0 -203 -137q-94 -113 -139 -221zM483 1036q0 107 130 107q131 0 131 -107q0 -52 -36 -90
q-36 -36 -89 -36q-136 0 -136 126z" />
    <glyph glyph-name="uFEC8" unicode="&#x638;" horiz-adv-x="949" arabic-form="medial" 
d="M966 0h-1017l1 180h131v974h175v-643q166 208 312 208q65 0 132 -41q171 -108 171 -302q0 -115 -26 -196h121v-180zM244 180h346q104 0 104 179q0 180 -108 180q-88 0 -203 -138q-94 -113 -139 -221zM491 1068q0 106 130 106q132 0 132 -106q0 -53 -37 -90
q-36 -37 -88 -37q-137 0 -137 127z" />
    <glyph glyph-name="uFECA" unicode="&#x639;" horiz-adv-x="1115" arabic-form="final" 
d="M51 -303q0 357 472 559l-239 235l121 228h384q184 0 237 -131q17 -42 17 -68q0 -112 -64 -186q-47 -56 -165 -120q78 -34 340 -34v-180q-184 0 -266 15q-153 27 -233 118q-432 -183 -432 -456q0 -137 122 -261q109 -107 243 -107h525l18 -177h-496q-240 0 -412 163
t-172 402zM773 545h-284l199 -209q172 94 172 155q0 25 -33 41q-26 13 -54 13z" />
    <glyph glyph-name="uFECB" unicode="&#x639;" horiz-adv-x="904" arabic-form="initial" 
d="M865 0h-905v180h256q-56 130 -56 231q0 102 59 182q61 80 157 107q66 19 150 19q144 0 277 -133l-89 -140q-142 108 -241 108q-142 0 -142 -173q0 -74 35 -133q41 -68 112 -68h358z" />
    <glyph glyph-name="uFECC" unicode="&#x639;" horiz-adv-x="831" arabic-form="medial" 
d="M-43 0v180q251 0 316 65l-250 246l121 228h386q186 0 235 -130q16 -42 16 -69q0 -111 -61 -181q-37 -43 -155 -118q108 -41 295 -41v-180q-168 0 -235 18q-91 22 -204 113q-113 -93 -225 -120q-28 -7 -239 -11zM503 545h-287l197 -207q173 89 173 151q0 25 -31 41
q-25 15 -52 15z" />
    <glyph glyph-name="uFECE" unicode="&#x63a;" horiz-adv-x="1115" arabic-form="final" 
d="M51 -309q0 379 472 565l-239 235l121 228h384q192 0 240 -131q14 -39 14 -68q0 -28 -9 -90q-14 -98 -219 -216q87 -34 341 -34l-2 -180l-163 5q-227 8 -337 128q-433 -193 -433 -456q0 -142 112 -254q113 -114 253 -114h527l18 -177h-496q-241 0 -411 158
q-173 162 -173 401zM773 545h-284l199 -207q172 91 172 156l-9 22q-32 29 -78 29zM576 1045q0 106 132 106q130 0 130 -106q0 -53 -36 -90q-36 -36 -88 -36q-138 0 -138 126z" />
    <glyph glyph-name="uFECF" unicode="&#x63a;" horiz-adv-x="904" arabic-form="initial" 
d="M865 0h-905v180h256q-58 116 -58 221q0 143 92 232q91 88 236 88q174 0 317 -135l-89 -140q-148 108 -239 108q-144 0 -144 -169q0 -79 34 -135q40 -70 113 -70h358zM338 1041q0 108 131 108q130 0 130 -108q0 -51 -37 -88t-88 -37q-136 0 -136 125z" />
    <glyph glyph-name="uFED0" unicode="&#x63a;" horiz-adv-x="831" arabic-form="medial" 
d="M61 0h-106l2 180q254 5 316 65q-150 153 -250 246q66 115 120 228h387q191 0 240 -130q16 -42 16 -69q0 -12 -8 -90q-12 -93 -210 -209q115 -41 292 -41v-180q-149 -1 -231 19q-102 25 -210 112q-143 -119 -276 -128q-35 -3 -82 -3zM503 545h-287l197 -207
q173 90 173 151l-10 27q-11 29 -73 29zM244 1068q0 108 127 108q132 0 132 -108q0 -52 -37 -88q-38 -36 -88 -36q-134 0 -134 124z" />
    <glyph glyph-name="uFED2" unicode="&#x641;" horiz-adv-x="1618" arabic-form="final" 
d="M74 293v272h181v-247q0 -138 133 -138h623q-101 113 -101 246q0 134 97 216q92 77 228 77q139 0 221 -100q78 -93 78 -234q0 -111 -65 -205h174v-180q-315 0 -388 40q-25 -37 -342 -37q-9 0 -300 -2l-299 -1q-109 0 -178 94q-62 86 -62 199zM1079 410q0 -105 182 -191
q109 67 109 166q0 66 -44 113t-108 47q-54 0 -97 -41q-42 -40 -42 -94zM1098 1054q0 106 130 106q131 0 131 -106q0 -52 -36 -90q-36 -36 -89 -36q-136 0 -136 126z" />
    <glyph glyph-name="uFED3" unicode="&#x641;" horiz-adv-x="915" arabic-form="initial" 
d="M509 0h-540v180h542q99 0 99 134q-152 2 -317 17q-149 56 -149 245q0 132 82 211q82 81 213 81q107 0 196 -57q144 -91 154 -302l11 -225q6 -117 -85 -202q-88 -82 -206 -82zM311 588q0 -76 45 -94q20 -8 112 -9l131 -1q-7 199 -169 199q-119 0 -119 -95zM314 1098
q0 107 127 107q132 0 132 -107q0 -51 -38 -89q-37 -36 -89 -36q-132 0 -132 125z" />
    <glyph glyph-name="uFED4" unicode="&#x641;" horiz-adv-x="856" arabic-form="medial" 
d="M-63 0v180h266q-99 111 -99 238q0 141 92 222q88 79 232 79q134 0 218 -95q82 -89 82 -226q0 -124 -65 -218h241v-180q-15 3 -106 5l-178 3q-94 2 -171 40q-82 -48 -512 -48zM273 408q0 -111 182 -189q109 81 109 166q0 60 -44 110t-104 50t-101 -40q-42 -39 -42 -97z
M298 1041q0 108 128 108q130 0 130 -108q0 -51 -37 -88q-36 -37 -88 -37q-133 0 -133 125z" />
    <glyph glyph-name="uFED6" unicode="&#x642;" horiz-adv-x="1350" arabic-form="final" 
d="M70 9v376h180v-396q0 -102 104 -188q86 -71 182 -71h234q116 0 196 77q81 76 90 193q-260 0 -326 25q-160 58 -160 259q0 131 99 209q90 72 225 72q159 0 255 -115q91 -107 92 -270h144v-180h-149q0 -188 -134 -322q-133 -133 -322 -133h-280q-182 0 -308 142
q-122 137 -122 322zM568 773q0 98 116 98q125 0 125 -98q0 -47 -33 -77t-81 -30q-127 0 -127 107zM746 290q0 -70 60 -96q33 -14 255 -14q0 85 -53 143q-52 58 -138 58q-124 0 -124 -91zM915 773q0 98 116 98q125 0 125 -98q0 -46 -33 -76.5t-80 -30.5q-128 0 -128 107z" />
    <glyph glyph-name="uFED7" unicode="&#x642;" horiz-adv-x="915" arabic-form="initial" 
d="M509 0h-540v180h542q99 0 99 134q-152 2 -317 17q-149 56 -149 245q0 132 82 211q82 81 213 81q107 0 196 -57q144 -91 154 -302l11 -225q6 -117 -85 -202q-88 -82 -206 -82zM149 1061q0 99 115 99q124 0 124 -99q0 -45 -33 -75.5t-81 -30.5q-125 0 -125 106zM311 588
q0 -76 45 -94q20 -8 112 -9l131 -1q-7 199 -169 199q-119 0 -119 -95zM494 1061q0 99 114 99q125 0 125 -99q0 -45 -33 -75.5t-81 -30.5q-125 0 -125 106z" />
    <glyph glyph-name="uFED8" unicode="&#x642;" horiz-adv-x="856" arabic-form="medial" 
d="M-63 0v180h266q-99 111 -99 238q0 141 92 222q88 79 232 79q134 0 218 -95q82 -89 82 -226q0 -124 -65 -218h241v-180q-15 3 -106 5l-178 3q-94 2 -171 40q-82 -48 -512 -48zM109 1064q0 99 114 99q125 0 125 -99q0 -46 -33 -76t-81 -30q-125 0 -125 106zM273 408
q0 -111 182 -189q109 81 109 166q0 60 -44 110t-104 50t-101 -40q-42 -39 -42 -97zM453 1064q0 99 115 99q123 0 123 -99q0 -47 -32 -76.5t-80 -29.5q-126 0 -126 106z" />
    <glyph glyph-name="uFEDA" unicode="&#x643;" horiz-adv-x="1760" arabic-form="final" 
d="M76 293v272h180v-247q0 -76 29.5 -107t104.5 -31h879q90 0 90 65q0 34 -44 81l-467 492l-34 202l664 239l25 -180l-469 -175l500 -555l129 -130q33 -34 143 -39v-180q-202 0 -297 129q-48 -129 -231 -129h-944q-115 0 -188 91q-70 85 -70 202z" />
    <glyph glyph-name="uFEDB" unicode="&#x643;" horiz-adv-x="843" arabic-form="initial" 
d="M528 0h-562v180h562q71 0 71 84q0 39 -23 62l-467 492l-30 201l660 240l27 -180l-466 -175l369 -413q35 -39 100 -142q34 -55 34 -104q0 -245 -275 -245z" />
    <glyph glyph-name="uFEDC" unicode="&#x643;" horiz-adv-x="1009" arabic-form="medial" 
d="M491 0h-534v180h537q71 0 71 93q0 31 -20 53l-469 492l-33 202l662 239l25 -180l-469 -175l497 -550q82 -92 132 -125q70 -46 174 -49v-180q-230 0 -325 131q-53 -131 -248 -131z" />
    <glyph glyph-name="uFEDE" unicode="&#x644;" horiz-adv-x="1408" arabic-form="final" 
d="M79 9v376h176v-396q0 -116 88 -192q84 -72 202 -72h233q118 0 198 73q85 75 85 191v1165h180v-848q0 -125 205 -126v-180q-145 0 -202 85q0 -227 -111 -375q-125 -165 -344 -165h-278q-185 0 -311 141q-121 136 -121 323z" />
    <glyph glyph-name="uFEDF" unicode="&#x644;" horiz-adv-x="516" arabic-form="initial" 
d="M101 0h-137v180l122 -1q87 6 110 44q15 23 15 131v800h177v-879q0 -129 -78 -203q-76 -72 -209 -72z" />
    <glyph glyph-name="uFEE0" unicode="&#x644;" horiz-adv-x="598" arabic-form="medial" 
d="M-34 0v180q72 -2 129 -2q85 0 114 47q19 31 19 129v800h180v-836q0 -98 58 -122q32 -12 169 -16v-180h-54q-176 0 -261 70q-64 -53 -117 -64q-35 -6 -237 -6z" />
    <glyph glyph-name="uFEE2" unicode="&#x645;" horiz-adv-x="1233" arabic-form="final" 
d="M74 -455v798q0 176 88 273q93 103 266 103h365q288 0 288 -421q0 -116 200 -118v-180q-110 0 -158 20q-59 26 -114 111q-55 -142 -228 -142q-147 0 -239 93q-92 94 -92 241v220q-82 0 -139 -48q-61 -49 -61 -130v-820h-176zM624 543v-253q0 -56 45 -91q41 -30 100 -30
q137 0 137 162q0 137 -30 169q-37 40 -252 43z" />
    <glyph glyph-name="uFEE3" unicode="&#x645;" horiz-adv-x="843" arabic-form="initial" 
d="M-39 0v180q153 0 179 30q8 11 11 138q9 371 323 371q150 0 234 -120q73 -104 73 -261q0 -154 -77 -254q-84 -109 -235 -109q-114 0 -203 68q-89 -39 -305 -43zM311 341q0 -187 158 -187q155 0 155 194q0 195 -155 195q-158 0 -158 -202z" />
    <glyph glyph-name="uFEE4" unicode="&#x645;" horiz-adv-x="904" arabic-form="medial" 
d="M-48 0v180q150 0 177 30q14 16 14 138q0 164 77 262q85 109 245 109q146 0 230 -116q75 -103 78 -255q2 -72 2 -73q6 -66 48 -82q18 -8 107 -13v-180q-90 0 -129 16q-53 23 -93 88q-76 -129 -248 -129q-62 0 -132 38q-68 38 -103 91q-20 -103 -273 -104zM300 341
q0 -187 158 -187q152 0 152 199q0 190 -152 190q-158 0 -158 -202z" />
    <glyph glyph-name="uFEE6" unicode="&#x646;" horiz-adv-x="1361" arabic-form="final" 
d="M76 9v376h177v-396q0 -116 88 -192q84 -72 202 -72h232q117 0 200 74q84 73 84 190v576h180v-259q0 -124 201 -126v-180q-148 0 -199 85q0 -227 -111 -375q-123 -165 -344 -165h-277q-185 0 -311 141q-122 137 -122 323zM475 606q0 108 131 108q130 0 130 -108
q0 -51 -37 -87q-36 -36 -88 -36q-136 0 -136 123z" />
    <glyph glyph-name="uFEE7" unicode="&#x646;" horiz-adv-x="586" arabic-form="initial" 
d="M259 0h-295v180q282 0 315 11q60 23 60 162q0 12 -2 106q-1 47 -1 106h184v-272q0 -117 -72 -202q-76 -91 -189 -91zM81 848q0 107 130 107q132 0 132 -107q0 -53 -37 -90q-36 -37 -88 -37q-137 0 -137 127z" />
    <glyph glyph-name="uFEE8" unicode="&#x646;" horiz-adv-x="703" arabic-form="medial" 
d="M253 0h-296v180q281 0 314 13q60 21 60 160q0 59 -1 106t-1 106h182v-247q0 -133 224 -138v-180h-59q-171 0 -250 70q-89 -70 -173 -70zM81 848q0 107 130 107q132 0 132 -107q0 -53 -37 -90q-36 -37 -88 -37q-137 0 -137 127z" />
    <glyph glyph-name="uFEEA" unicode="&#x647;" horiz-adv-x="1031" arabic-form="final" 
d="M36 323q0 156 209 365l-51 58l121 122l539 -573q69 -74 91 -87q39 -24 123 -28v-180q-119 0 -172 31q-28 17 -188 165q-102 -216 -329 -216q-149 0 -246 97t-97 246zM216 311q0 -70 47 -114q46 -43 118 -43q68 0 120 44q52 45 52 113q0 66 -34 99l-145 144
q-85 -81 -105 -106q-53 -68 -53 -137z" />
    <glyph glyph-name="uFEEB" unicode="&#x647;" horiz-adv-x="1171" arabic-form="initial" 
d="M169 3l-200 -3v180h250q-99 131 -99 248q0 128 82 210q83 83 211 83q116 0 216 -97l-118 122l135 122q447 -427 447 -629q0 -119 -89 -214t-206 -95q-144 0 -370 133q-115 -58 -259 -60zM289 428q0 -118 144 -173q115 51 115 160q0 61 -45 101q-44 40 -107 40
q-49 0 -79 -41q-28 -37 -28 -87zM610 176q101 -61 176 -61q118 0 118 113q0 109 -238 348q55 -61 55 -171q0 -172 -111 -229z" />
    <glyph glyph-name="uFEEC" unicode="&#x647;" horiz-adv-x="798" arabic-form="medial" 
d="M101 0h-155v180h147q-14 191 -14 201q0 335 336 335q135 0 218 -74q86 -78 86 -212q0 -152 -120 -250h232v-180h-227q132 -92 132 -264q0 -209 -265 -209q-322 0 -350 277zM259 321q0 -4 0.5 -19t2 -52t2.5 -70q114 0 197 68q89 72 89 185q0 117 -120 117
q-171 0 -171 -229zM268 14q0 -334 183 -334q135 0 135 112q0 104 -111 168q-95 54 -207 54z" />
    <glyph glyph-name="uFEEE" unicode="&#x648;" horiz-adv-x="893" arabic-form="final" 
d="M104 -455l-25 180h227q127 0 213 74q85 73 90 201q-224 0 -328 61q-137 80 -137 287q0 226 109 317q63 54 213 54q215 0 288 -178q41 -102 46 -361h119v-180h-119q0 -199 -133 -326q-132 -129 -331 -129h-232zM329 344q0 -114 95 -146q51 -18 191 -18v171q0 75 -36 129
q-40 61 -113 61q-86 0 -116 -58q-21 -42 -21 -139z" />
    <glyph glyph-name="uFEF0" unicode="&#x649;" horiz-adv-x="1289" arabic-form="final" 
d="M43 63v322h180v-391q0 -128 90 -202q82 -67 215 -67h231q97 0 158 51q66 56 66 150q0 58 -165 71q-30 3 -209 3l-16 180h725v-180h-167l9 -88q0 -157 -119 -264q-115 -103 -275 -103h-277q-213 0 -335 156q-111 143 -111 362z" />
    <glyph glyph-name="uFEF2" unicode="&#x64a;" horiz-adv-x="1289" arabic-form="final" 
d="M43 63v322h180v-391q0 -128 90 -202q82 -67 215 -67h231q97 0 158 51q66 56 66 150q0 58 -165 71q-30 3 -209 3l-16 180h725v-180h-167l9 -88q0 -157 -119 -264q-115 -103 -275 -103h-277q-213 0 -335 156q-111 143 -111 362z" />
    <glyph glyph-name="uFEF3" unicode="&#x64a;" horiz-adv-x="680" arabic-form="initial" 
d="M349 0h-385v180h329q75 0 104 30.5t29 107.5v247h180v-272q0 -117 -69 -202q-73 -91 -188 -91zM-9 -345q0 100 114 100q125 0 125 -100q0 -45 -33 -75.5t-81 -30.5q-50 0 -86 27q-39 30 -39 79zM336 -345q0 100 114 100q125 0 125 -100q0 -45 -33 -75.5t-81 -30.5
q-50 0 -86 27q-39 30 -39 79z" />
    <glyph glyph-name="uFEF4" unicode="&#x64a;" horiz-adv-x="739" arabic-form="medial" 
d="M348 0h-388v180h333q75 0 104 30.5t29 107.5v247h180v-247q0 -88 42 -117q32 -21 127 -21v-180q-109 -2 -165 9q-41 15 -91 61q-85 -70 -171 -70zM31 -343q0 99 115 99q124 0 124 -99q0 -45 -33 -75.5t-79 -30.5q-52 0 -87 28q-40 30 -40 78zM376 -343q0 99 115 99
q124 0 124 -99q0 -45 -33 -75.5t-79 -30.5q-52 0 -87 28q-40 30 -40 78z" />
    <glyph glyph-name=".notdef" horiz-adv-x="1024" 
d="M896 0h-768v1360h768v-1360zM256 1232v-1104h512v1104h-512z" />
    <glyph glyph-name=".null" 
 />
    <glyph glyph-name="uni000D" unicode="&#xd;" horiz-adv-x="469" 
 />
    <glyph glyph-name="space" unicode=" " horiz-adv-x="469" 
 />
    <glyph glyph-name="exclam" unicode="!" horiz-adv-x="469" 
d="M109 120q0 110 135 110q127 0 127 -110q0 -120 -137 -120q-125 0 -125 120zM191 349l-42 410v395h177v-395q0 -12 -12 -136l-28 -274h-95z" />
    <glyph glyph-name="percent" unicode="%" horiz-adv-x="1471" 
d="M68 663q0 112 88 194q88 84 200 84q109 0 197 -88q90 -89 90 -195q0 -110 -95 -191q-91 -77 -202 -77q-110 0 -194 81q-84 83 -84 192zM189 653q0 -63 54 -107q50 -41 115 -41q64 0 111 47q47 49 47 112q0 62 -53 109t-117 47t-111 -51q-46 -50 -46 -116zM483 -244h-174
l640 1174h180zM1118 336q112 0 198 -89q85 -88 85 -202q0 -108 -92 -188q-86 -76 -198 -76q-107 0 -195 80q-90 81 -90 189q0 109 91 197q92 89 201 89zM949 45q0 -73 76 -121q43 -28 93 -28q61 0 110 49q50 50 50 111q0 60 -51 109q-49 49 -109 49q-66 0 -118 -52
q-51 -51 -51 -117z" />
    <glyph glyph-name="parenleft" unicode="(" horiz-adv-x="639" 
d="M493 -11q2 -19 -8 -29t-33 -10q-30 0 -100 65q-207 199 -207 490q0 247 207 471q72 78 100 78q23 2 33 -9t8 -32q-19 -35 -67 -140q-62 -147 -63 -372q0 -225 63 -373q60 -123 67 -139z" />
    <glyph glyph-name="parenright" unicode=")" horiz-adv-x="637" 
d="M143 -11l69 139q64 147 64 373q0 225 -64 372q-45 97 -69 140q-2 21 9 32t34 9q28 0 101 -78q91 -101 145 -218q61 -131 61 -253q0 -293 -206 -490q-71 -65 -101 -65q-23 0 -34 9.5t-9 29.5z" />
    <glyph glyph-name="asterisk" unicode="*" horiz-adv-x="680" 
d="M74 70l-26 39l236 135l-236 137l25 43l236 -134v271h45v-271l234 136l22 -41l-234 -137l234 -135l-20 -40l-236 132v-273h-45v273zM284 244l25 46h45l22 -42l-22 -43h-45z" />
    <glyph glyph-name="plus" unicode="+" horiz-adv-x="1275" 
d="M554 239h-464v176h464v464h171v-464h466v-176h-466v-464h-171v464z" />
    <glyph glyph-name="comma" unicode="," horiz-adv-x="264" 
d="M4 34q0 110 136 110q82 0 109 -43q19 -29 19 -117q0 -163 -25 -228q-43 -110 -177 -124v65q78 7 107 75q13 38 18 138q-187 0 -187 124z" />
    <glyph glyph-name="hyphen" unicode="-" horiz-adv-x="1149" 
d="M1076 239h-981v177h981v-177z" />
    <glyph glyph-name="period" unicode="." horiz-adv-x="564" 
d="M151 96q0 112 138 112q127 0 127 -112q0 -119 -137 -119q-128 0 -128 119z" />
    <glyph glyph-name="slash" unicode="/" horiz-adv-x="971" 
d="M256 -244h-172l640 1174h180z" />
    <glyph glyph-name="zero" unicode="0" horiz-adv-x="1210" 
d="M284 323q0 126 100 223q101 98 227 98q122 0 218 -102q97 -101 97 -224q0 -118 -101 -207q-100 -88 -219 -88q-125 0 -223 88q-99 89 -99 212zM424 316q0 -68 60 -118q56 -45 127 -45q67 0 118 51q52 52 52 119q0 71 -54 124q-55 53 -126 53t-124 -56t-53 -128z" />
    <glyph glyph-name="zero" unicode="&#x660;" horiz-adv-x="1210" 
d="M284 323q0 126 100 223q101 98 227 98q122 0 218 -102q97 -101 97 -224q0 -118 -101 -207q-100 -88 -219 -88q-125 0 -223 88q-99 89 -99 212zM424 316q0 -68 60 -118q56 -45 127 -45q67 0 118 51q52 52 52 119q0 71 -54 124q-55 53 -126 53t-124 -56t-53 -128z" />
    <glyph glyph-name="one" unicode="1" horiz-adv-x="1210" 
d="M475 913l171 56l62 -241q0 -1 1 -8t3 -24t4 -33q20 -165 20 -312v-551h-175v551q0 274 -86 562z" />
    <glyph glyph-name="one" unicode="&#x661;" horiz-adv-x="1210" 
d="M475 913l171 56l62 -241q0 -1 1 -8t3 -24t4 -33q20 -165 20 -312v-551h-175v551q0 274 -86 562z" />
    <glyph glyph-name="two" unicode="2" horiz-adv-x="1210" 
d="M253 913l173 56l72 -295q27 -113 133 -113q74 0 115 59q29 42 24 83l-29 215l167 53q50 -248 50 -330q0 -99 -89 -170q-83 -66 -185 -66q-76 0 -168 59l3 -664h-181v525q0 358 -85 588z" />
    <glyph glyph-name="two" unicode="&#x662;" horiz-adv-x="1210" 
d="M253 913l173 56l72 -295q27 -113 133 -113q74 0 115 59q29 42 24 83l-29 215l167 53q50 -248 50 -330q0 -99 -89 -170q-83 -66 -185 -66q-76 0 -168 59l3 -664h-181v525q0 358 -85 588z" />
    <glyph glyph-name="three" unicode="3" horiz-adv-x="1210" 
d="M50 913l178 56l67 -295q26 -113 140 -113q57 0 95 38q51 51 43 104l-34 215l169 62q41 -216 41 -304q0 -10 -3 -63q46 -57 115 -57q53 0 90 37q39 37 39 90q0 13 -1 20l-29 215l166 51l34 -291q1 -7 1 -24q0 -98 -82 -167q-78 -66 -178 -66q-112 0 -221 124
q0 -130 -189 -130q-95 0 -177 46l1 -661h-175v525q0 335 -90 588z" />
    <glyph glyph-name="three" unicode="&#x663;" horiz-adv-x="1210" 
d="M50 913l178 56l67 -295q26 -113 140 -113q57 0 95 38q51 51 43 104l-34 215l169 62q41 -216 41 -304q0 -10 -3 -63q46 -57 115 -57q53 0 90 37q39 37 39 90q0 13 -1 20l-29 215l166 51l34 -291q1 -7 1 -24q0 -98 -82 -167q-78 -66 -178 -66q-112 0 -221 124
q0 -130 -189 -130q-95 0 -177 46l1 -661h-175v525q0 335 -90 588z" />
    <glyph glyph-name="four" unicode="4" horiz-adv-x="1210" 
d="M135 913l169 56q50 -182 79 -351l92 -43q0 403 328 403q101 0 217 -57l-60 -155q-73 54 -151 54q-73 0 -126 -49q-54 -48 -54 -120q0 -117 135 -117q103 0 255 76l56 -144q-193 -90 -370 -90q-152 0 -311 70l2 -646h-175v538q0 263 -86 575z" />
    <glyph glyph-name="four" unicode="&#x664;" horiz-adv-x="1210" 
d="M135 913l169 56q50 -182 79 -351l92 -43q0 403 328 403q101 0 217 -57l-60 -155q-73 54 -151 54q-73 0 -126 -49q-54 -48 -54 -120q0 -117 135 -117q103 0 255 76l56 -144q-193 -90 -370 -90q-152 0 -311 70l2 -646h-175v538q0 263 -86 575z" />
    <glyph glyph-name="five" unicode="5" horiz-adv-x="1210" 
d="M48 104q0 220 177 439l196 241l-70 50l115 137q697 -520 697 -897q0 -145 -106 -233q-98 -82 -247 -82q-133 0 -224 70q-125 -73 -245 -73q-137 0 -219 108q-74 100 -74 240zM236 121q0 -169 152 -169q138 0 140 158l-9 68h177q12 -24 12 -69q0 -86 -19 -120
q52 -34 117 -34q168 0 168 163q0 212 -420 560q-318 -335 -318 -557z" />
    <glyph glyph-name="five" unicode="&#x665;" horiz-adv-x="1210" 
d="M48 104q0 220 177 439l196 241l-70 50l115 137q697 -520 697 -897q0 -145 -106 -233q-98 -82 -247 -82q-133 0 -224 70q-125 -73 -245 -73q-137 0 -219 108q-74 100 -74 240zM236 121q0 -169 152 -169q138 0 140 158l-9 68h177q12 -24 12 -69q0 -86 -19 -120
q52 -34 117 -34q168 0 168 163q0 212 -420 560q-318 -335 -318 -557z" />
    <glyph glyph-name="six" unicode="6" horiz-adv-x="1210" 
d="M239 655q0 142 88 234q88 94 229 94q98 0 225 -65l-57 -160q-74 40 -145 40q-67 0 -114 -42q-46 -42 -46 -107q0 -144 164 -144q112 0 243 85l145 -107q-74 -66 -140 -147l-151 -185q-117 -143 -261 -396l-158 96q85 163 327 480q-156 0 -251 83q-98 86 -98 241z" />
    <glyph glyph-name="six" unicode="&#x666;" horiz-adv-x="1210" 
d="M239 655q0 142 88 234q88 94 229 94q98 0 225 -65l-57 -160q-74 40 -145 40q-67 0 -114 -42q-46 -42 -46 -107q0 -144 164 -144q112 0 243 85l145 -107q-74 -66 -140 -147l-151 -185q-117 -143 -261 -396l-158 96q85 163 327 480q-156 0 -251 83q-98 86 -98 241z" />
    <glyph glyph-name="seven" unicode="7" horiz-adv-x="1210" 
d="M104 890l157 81q164 -279 233 -462q5 -14 34 -119l70 -259l20 -2q74 365 193 581l144 261l154 -78l-149 -255q-72 -123 -129 -264q-89 -220 -157 -574h-140q-45 304 -155 570q-82 198 -275 520z" />
    <glyph glyph-name="seven" unicode="&#x667;" horiz-adv-x="1210" 
d="M104 890l157 81q164 -279 233 -462q5 -14 34 -119l70 -259l20 -2q74 365 193 581l144 261l154 -78l-149 -255q-72 -123 -129 -264q-89 -220 -157 -574h-140q-45 304 -155 570q-82 198 -275 520z" />
    <glyph glyph-name="eight" unicode="8" horiz-adv-x="1210" 
d="M101 -110q195 326 277 520q103 247 158 570l140 -2q74 -448 262 -793q61 -113 171 -298q-83 -37 -156 -81q-163 279 -232 464q-13 34 -38 134l-65 245l-20 2q-40 -175 -104 -378q-52 -163 -235 -467q-95 53 -158 84z" />
    <glyph glyph-name="eight" unicode="&#x668;" horiz-adv-x="1210" 
d="M101 -110q195 326 277 520q103 247 158 570l140 -2q74 -448 262 -793q61 -113 171 -298q-83 -37 -156 -81q-163 279 -232 464q-13 34 -38 134l-65 245l-20 2q-40 -175 -104 -378q-52 -163 -235 -467q-95 53 -158 84z" />
    <glyph glyph-name="nine" unicode="9" horiz-adv-x="1210" 
d="M279 649q0 141 85 235q88 99 226 99q84 0 185 -59q158 -93 158 -539v-585h-175v615q-110 -36 -202 -36q-130 0 -203.5 71t-73.5 199zM433 655q0 -119 121 -119q76 0 185 63q-10 60 -26 134q-24 64 -73 76l-59 11q-67 0 -108 -48q-40 -47 -40 -117z" />
    <glyph glyph-name="nine" unicode="&#x669;" horiz-adv-x="1210" 
d="M279 649q0 141 85 235q88 99 226 99q84 0 185 -59q158 -93 158 -539v-585h-175v615q-110 -36 -202 -36q-130 0 -203.5 71t-73.5 199zM433 655q0 -119 121 -119q76 0 185 63q-10 60 -26 134q-24 64 -73 76l-59 11q-67 0 -108 -48q-40 -47 -40 -117z" />
    <glyph glyph-name="colon" unicode=":" horiz-adv-x="564" 
d="M160 543q0 111 140 111q126 0 126 -111q0 -119 -136 -119q-130 0 -130 119zM163 120q0 110 140 110q125 0 125 -110q0 -120 -138 -120q-55 0 -91 33.5t-36 86.5z" />
    <glyph glyph-name="less" unicode="&#x3c;" horiz-adv-x="933" 
d="M864 -4v-180l-795 465v155l795 465v-179l-628 -365z" />
    <glyph glyph-name="equal" unicode="=" horiz-adv-x="1225" 
d="M1110 0h-989v176h989v-176zM1110 374h-989v176h989v-176z" />
    <glyph glyph-name="greater" unicode="&#x3e;" horiz-adv-x="933" 
d="M69 901l797 -465l-2 -155l-797 -465l2 180l629 365l-631 361z" />
    <glyph glyph-name="A" unicode="A" horiz-adv-x="1229" 
d="M190 0h-199l501 1489h243l503 -1489h-208l-136 415h-568zM380 585h460l-231 702z" />
    <glyph glyph-name="B" unicode="B" horiz-adv-x="1206" 
d="M1162 456q0 -211 -157 -335q-82 -64 -179 -93q-94 -28 -249 -28h-426v1489h395q156 0 239 -11q79 -10 151 -48q155 -86 155 -278q0 -103 -55 -185.5t-153 -132.5v-7q133 -36 206 -132t73 -239zM884 1125q0 115 -74 156q-50 29 -109 33q-59 6 -161 6h-192v-436h225
q95 0 138 9q45 11 91 40q44 29 63 75t19 117zM955 449q0 83 -24 138q-24 56 -97 93q-48 26 -102 32q-52 7 -159 7h-225v-550h162q130 0 204 12q75 14 133 52q57 40 82.5 89.5t25.5 126.5z" />
    <glyph glyph-name="C" unicode="C" horiz-adv-x="1231" 
d="M734 -28q-299 0 -481 196q-188 202 -188 575q0 357 186 568q185 205 484 205q133 0 263 -40q91 -27 197 -85v-240h-15q-94 86 -167 124q-127 71 -279 71q-203 0 -328 -153q-134 -161 -134 -450q0 -284 138 -451q63 -72 146.5 -110.5t177.5 -38.5q157 0 288 75
q86 47 158 119h15v-236l-36 -18q-26 -13 -39 -19t-35 -15.5t-43 -17t-44 -14.5q-71 -25 -120 -34q-58 -11 -144 -11z" />
    <glyph glyph-name="D" unicode="D" horiz-adv-x="1389" 
d="M1326 743q0 -202 -83 -368q-82 -163 -223 -256q-112 -71 -228 -95t-299 -24h-342v1489h339q209 0 329 -32q119 -32 203 -87q304 -200 304 -627zM1119 747q0 347 -225 482q-81 49 -170 68q-89 21 -223 21h-153v-1149h153q136 0 234 22.5t177 76.5q207 144 207 479z" />
    <glyph glyph-name="E" unicode="E" horiz-adv-x="1149" 
d="M1082 0h-931v1489h931v-176h-734v-408h683v-175h-683v-553h734v-177z" />
    <glyph glyph-name="F" unicode="F" horiz-adv-x="1069" 
d="M1043 1489v-176h-695v-419h665v-177h-665v-717h-197v1489h892z" />
    <glyph glyph-name="G" unicode="G" horiz-adv-x="1367" 
d="M775 -30q-330 0 -514 196q-196 202 -196 581q0 349 196 566q92 97 225 150t290 53q132 0 276 -41q45 -14 111 -41q61 -26 99 -45v-240h-16q-34 30 -77 63q-39 30 -111 63q-138 69 -306 69q-216 0 -348 -162t-132 -430q0 -289 136 -452q134 -159 357 -159q87 0 169 12
q84 14 138 37v385h-342v173h540v-649q-82 -35 -103 -43q-66 -27 -119 -41q-71 -22 -131 -33q-59 -12 -142 -12z" />
    <glyph glyph-name="H" unicode="H" horiz-adv-x="1383" 
d="M1233 1489v-1489h-200v730h-685v-730h-197v1489h197v-584h685v584h200z" />
    <glyph glyph-name="I" unicode="I" horiz-adv-x="763" 
d="M670 153v-153h-577v153h190v1184h-190v152h577v-152h-190v-1184h190z" />
    <glyph glyph-name="J" unicode="J" horiz-adv-x="853" 
d="M711 1489v-1102q0 -194 -119 -301q-118 -106 -320 -106q-44 0 -129 8q-70 7 -134 19v190h11q132 -48 226 -48q172 0 227 82q24 36 32.5 90.5t8.5 140.5v869h-315v158h512z" />
    <glyph glyph-name="K" unicode="K" horiz-adv-x="1205" 
d="M585 825l651 -825h-257l-543 693l-88 -97v-596h-197v1489h197v-685l611 685h242z" />
    <glyph glyph-name="L" unicode="L" horiz-adv-x="1018" 
d="M1015 177v-177h-864v1489h197v-1312h667z" />
    <glyph glyph-name="M" unicode="M" horiz-adv-x="1579" 
d="M1426 1489v-1489h-197v1283l-387 -873h-121l-386 873v-1283h-184v1489h270l372 -830l359 830h274z" />
    <glyph glyph-name="N" unicode="N" horiz-adv-x="1367" 
d="M1216 1489v-1489h-222l-659 1285v-1285h-184v1489h281l599 -1178v1178h185z" />
    <glyph glyph-name="O" unicode="O" horiz-adv-x="1448" 
d="M1205 1318q178 -212 178 -573t-178 -574q-184 -203 -481 -203q-303 0 -480 203q-179 210 -179 574q0 363 181 573q172 201 478 201q304 0 481 -201zM1177 745q0 292 -121 450q-120 155 -332 155q-208 0 -329 -155q-123 -155 -123 -450q0 -294 123 -450q123 -155 329 -155
q209 0 331 155q122 157 122 450z" />
    <glyph glyph-name="P" unicode="P" horiz-adv-x="1128" 
d="M1091 1041q0 -199 -130 -332q-80 -78 -184.5 -116t-258.5 -38h-170v-555h-197v1489h374q253 0 389 -93q177 -123 177 -355zM884 1035q0 155 -106 227q-85 56 -264 56h-166v-594h136q122 0 195.5 20t121.5 70q83 83 83 221z" />
    <glyph glyph-name="Q" unicode="Q" horiz-adv-x="1448" 
d="M1389 -184v-181q-119 -28 -233 -28q-168 0 -272 94q-104 95 -113 269h-47q-304 0 -480 201q-179 210 -179 574q0 363 181 573q172 201 478 201q304 0 481 -201q178 -212 178 -573q0 -291 -114 -479q-112 -187 -308 -255q11 -119 57 -169q50 -62 172 -62q41 0 93 13
q59 15 78 23h28zM1177 745q0 292 -121 450q-120 155 -332 155q-208 0 -329 -155q-123 -155 -123 -450q0 -294 123 -450q123 -155 329 -155q209 0 331 155q122 157 122 450z" />
    <glyph glyph-name="R" unicode="R" horiz-adv-x="1272" 
d="M775 648l528 -648h-257l-471 592h-227v-592h-197v1489h383q126 0 215 -14q87 -13 165 -66q170 -110 170 -324q0 -159 -81 -270.5t-228 -166.5zM877 1071q0 133 -95 197q-77 50 -236 50h-198v-560h175q94 0 159.5 16.5t108.5 59.5q86 86 86 237z" />
    <glyph glyph-name="S" unicode="S" horiz-adv-x="1141" 
d="M566 -28q-162 0 -276 33q-115 35 -214 84v248h15q97 -90 223 -143q124 -51 237 -51q162 0 247.5 67.5t85.5 182.5q0 90 -44 146t-140 83q-48 13 -126 31l-144 36q-159 43 -246 132q-96 104 -96 268q0 183 141 305q143 122 359 122q239 0 443 -95v-239h-14
q-71 65 -182 113q-110 49 -234 49q-137 0 -222 -64t-85 -168q0 -179 196 -233q51 -16 152 -41q106 -24 151 -37q296 -93 296 -377q0 -87 -35.5 -171.5t-98.5 -144.5q-73 -66 -163 -101q-91 -35 -226 -35z" />
    <glyph glyph-name="T" unicode="T" horiz-adv-x="1195" 
d="M696 0h-197v1313h-501v176h1199v-176h-501v-1313z" />
    <glyph glyph-name="U" unicode="U" horiz-adv-x="1342" 
d="M670 -32q-258 0 -394 138q-78 77 -111 184t-33 270v929h199v-929q0 -109 13.5 -177t50.5 -122q82 -123 275 -123q201 0 278 123q36 55 50.5 122.5t14.5 171.5v934h197v-929q0 -159 -32.5 -270t-108.5 -184q-74 -71 -169 -104.5t-230 -33.5z" />
    <glyph glyph-name="V" unicode="V" horiz-adv-x="1221" 
d="M1028 1489h203l-512 -1489h-214l-512 1489h212l411 -1236z" />
    <glyph glyph-name="W" unicode="W" horiz-adv-x="1847" 
d="M1627 1489h194l-374 -1489h-224l-301 1236l-296 -1236h-218l-382 1489h203l300 -1238l298 1238h201l301 -1251z" />
    <glyph glyph-name="X" unicode="X" horiz-adv-x="1190" 
d="M713 756l467 -756h-227l-363 596l-368 -596h-215l473 745l-458 744h226l355 -584l361 584h216z" />
    <glyph glyph-name="Y" unicode="Y" horiz-adv-x="1180" 
d="M983 1489h210l-502 -830v-659h-199v639l-503 850h220l385 -657z" />
    <glyph glyph-name="Z" unicode="Z" horiz-adv-x="1145" 
d="M1100 177v-177h-1040v184l796 1129h-759v176h983v-178l-806 -1134h826z" />
    <glyph glyph-name="bracketleft" unicode="[" horiz-adv-x="540" 
d="M428 -344h-318v1498h318v-119h-175v-1258h175v-121z" />
    <glyph glyph-name="bracketright" unicode="]" horiz-adv-x="540" 
d="M428 1154v-1498h-318v121h173v1258h-173v119h318z" />
    <glyph glyph-name="a" unicode="a" horiz-adv-x="1074" 
d="M760 276v309q-99 -9 -170 -16q-106 -11 -166 -29q-75 -24 -124 -72q-49 -46 -49 -133q0 -95 54 -144.5t159 -49.5q90 0 160 39q71 40 136 96zM760 0v119q-28 -20 -62 -48q-35 -27 -74 -49q-55 -28 -98 -40q-48 -14 -129 -14q-140 0 -241 101q-45 46 -71.5 113.5
t-26.5 141.5q0 235 205 328q84 38 201 55t296 28v36q0 125 -77 169q-56 37 -193 37q-149 0 -330 -76h-11v192q58 17 149 32q98 18 192 18q119 0 197 -18t140 -64q121 -93 121 -298v-763h-188z" />
    <glyph glyph-name="b" unicode="b" horiz-adv-x="1132" 
d="M879 562q0 203 -62 304.5t-195 101.5q-74 0 -153.5 -34.5t-144.5 -91.5v-641q70 -33 126 -48q55 -15 122 -15q147 0 227 105t80 319zM1072 577q0 -275 -133 -442q-134 -167 -332 -167q-91 0 -156 24q-63 22 -127 60l-11 -52h-177v1556h188v-556q80 71 162 110t181 39
q188 0 296 -152q109 -151 109 -420z" />
    <glyph glyph-name="c" unicode="c" horiz-adv-x="946" 
d="M581 -24q-237 0 -376 141q-145 153 -145 440q0 277 145 433q65 73 163.5 113t212.5 40q157 0 329 -85v-213h-11q-43 40 -128 86q-100 48 -194 48q-147 0 -236 -110q-88 -109 -88 -312q0 -199 85 -309q86 -110 239 -110q174 0 322 136h11v-211q-100 -47 -147 -59
q-37 -11 -85 -20q-40 -8 -97 -8z" />
    <glyph glyph-name="d" unicode="d" horiz-adv-x="1132" 
d="M996 1556v-1556h-188v114q-50 -42 -77 -61q-36 -26 -74 -44q-94 -41 -182 -41q-91 0 -169.5 38.5t-132.5 110.5q-113 157 -113 432q0 270 141 443q63 74 149.5 115.5t180.5 41.5q85 0 145 -19q65 -18 132 -58v484h188zM808 272v644q-71 34 -125.5 47t-120.5 13
q-146 0 -227.5 -109t-81.5 -312q0 -408 265 -408q149 0 290 125z" />
    <glyph glyph-name="e" unicode="e" horiz-adv-x="1078" 
d="M622 -26q-268 0 -415 151t-147 426t142 436q142 162 373 162q206 0 324 -125q125 -127 125 -384v-100h-775q0 -196 99 -299t270 -103q124 0 229 50q90 38 145 86h12v-205l-84 -33q-51 -20 -88 -30q-58 -16 -99 -23q-43 -9 -111 -9zM249 683h593q-4 145 -66 224
q-61 85 -212 85q-136 0 -221 -87q-78 -82 -94 -222z" />
    <glyph glyph-name="f" unicode="f" horiz-adv-x="652" 
d="M724 1547v-171h-11q-26 10 -71 17q-46 9 -83 9q-120 0 -170 -53t-50 -195v-37h311v-156h-306v-961h-188v961h-126v156h126v37q0 200 97 306t278 106q98 0 193 -19z" />
    <glyph glyph-name="g" unicode="g" horiz-adv-x="1132" 
d="M808 303v613q-133 63 -248 63q-142 0 -225 -105q-82 -104 -82 -301q0 -190 63.5 -284.5t201.5 -94.5q73 0 151.5 29t138.5 80zM166 -179h11q95 -36 140 -46q122 -30 191 -30q172 0 242 87q58 74 58 218v97q-80 -67 -149 -97q-72 -31 -182 -31q-193 0 -305 142t-112 409
q0 264 143 428q63 72 149 111.5t179 39.5q148 0 277 -80l11 48h177v-990q0 -282 -123.5 -416t-379.5 -134q-171 0 -327 49v195z" />
    <glyph glyph-name="h" unicode="h" horiz-adv-x="1141" 
d="M1015 724v-724h-188v637q0 182 -38 249q-43 82 -175 82q-131 0 -290 -134v-834h-188v1556h188v-564q171 157 339 157q167 0 259.5 -110t92.5 -315z" />
    <glyph glyph-name="i" unicode="i" horiz-adv-x="467" 
d="M328 1117v-1117h-188v1117h188zM341 1499v-196h-214v196h214z" />
    <glyph glyph-name="j" unicode="j" horiz-adv-x="577" 
d="M441 1117v-1149q0 -189 -101.5 -290t-283.5 -101q-71 0 -145 12v167h11q70 -13 98 -13q149 0 196 76q37 65 37 226v916h-203v156h391zM441 1499v-196h-214v196h214z" />
    <glyph glyph-name="k" unicode="k" horiz-adv-x="1020" 
d="M542 650l519 -650h-246l-417 540l-74 -73v-467h-188v1556h188v-912l441 473h235z" />
    <glyph glyph-name="l" unicode="l" horiz-adv-x="467" 
d="M328 1556v-1556h-188v1556h188z" />
    <glyph glyph-name="m" unicode="m" horiz-adv-x="1720" 
d="M1592 0h-188v646q0 190 -32 246q-35 76 -156 76q-113 0 -263 -138q6 -42 6 -95v-735h-188v646q0 183 -32 246q-39 76 -156 76q-118 0 -259 -134v-834h-188v1117h188v-125q78 79 151 118t154 39q219 0 293 -194q88 99 169 146.5t173 47.5q146 0 235 -95q93 -109 93 -319
v-735z" />
    <glyph glyph-name="n" unicode="n" horiz-adv-x="1141" 
d="M1015 724v-724h-188v637q0 182 -38 249q-43 82 -175 82q-131 0 -290 -134v-834h-188v1117h188v-125q171 157 339 157q167 0 259.5 -110t92.5 -315z" />
    <glyph glyph-name="o" unicode="o" horiz-adv-x="1112" 
d="M1056 559q0 -283 -136 -437t-363 -154q-233 0 -366 159q-133 160 -133 432q0 280 136 434q136 156 363 156q226 0 363 -155q136 -154 136 -435zM860 559q0 214 -77.5 321t-225.5 107q-149 0 -227.5 -107.5t-78.5 -320.5q0 -210 79 -319.5t227 -109.5q147 0 225 108
t78 321z" />
    <glyph glyph-name="p" unicode="p" horiz-adv-x="1132" 
d="M1072 588q0 -279 -133 -445q-134 -165 -338 -165q-79 0 -143.5 19t-133.5 59v-467h-188v1528h188v-117q169 149 343 149q192 0 298 -153q107 -154 107 -408zM879 568q0 400 -259 400q-142 0 -296 -126v-633q71 -35 126 -49q51 -13 122 -13q146 0 226.5 108t80.5 313z" />
    <glyph glyph-name="q" unicode="q" horiz-adv-x="1132" 
d="M996 1117v-1528h-188v534q-82 -76 -160.5 -110.5t-172.5 -34.5q-190 0 -303 152q-112 152 -112 425q0 276 143 439q60 74 147 114.5t181 40.5q81 0 144.5 -19.5t132.5 -60.5l11 48h177zM808 279v637q-74 36 -127 49q-58 14 -121 14q-147 0 -227 -107.5t-80 -307.5
q0 -198 65.5 -303t197.5 -105q148 0 292 123z" />
    <glyph glyph-name="r" unicode="r" horiz-adv-x="737" 
d="M728 1112v-198h-9q-25 9 -103 9q-159 0 -292 -130v-793h-188v1117h188v-166q99 90 176.5 128t151.5 38q22 0 45 -2.5t31 -2.5z" />
    <glyph glyph-name="s" unicode="s" horiz-adv-x="914" 
d="M438 -28q-114 0 -210 31q-101 33 -161 64v210h9q3 -2 19.5 -14.5t25.5 -18.5l25 -17q17 -11 35 -20.5t39 -18.5q124 -56 225 -56q47 0 96 10q51 10 75 27q38 24 52.5 50.5t14.5 76.5q0 67 -36 100q-35 34 -129 58q-31 9 -96 22q-64 13 -105 25q-244 70 -244 301
q0 151 113 246q115 95 304 95q90 0 187 -23q94 -22 157 -57v-201h-9q-155 123 -341 123q-92 0 -156 -39t-64 -117q0 -71 38 -106q37 -33 122 -56q32 -9 109 -25t93 -20q126 -33 187.5 -105t61.5 -195q0 -150 -112 -248q-120 -102 -325 -102z" />
    <glyph glyph-name="t" unicode="t" horiz-adv-x="685" 
d="M475 -22q-328 0 -328 365v618h-127v156h127v320h188v-320h346v-156h-346v-531q0 -91 4 -132q5 -47 22 -86q39 -69 158 -69q48 0 90 13q46 14 61 23h11v-170q-107 -31 -206 -31z" />
    <glyph glyph-name="u" unicode="u" horiz-adv-x="1141" 
d="M1005 1117v-1117h-188v125q-89 -81 -167.5 -119t-171.5 -38q-155 0 -249 101q-101 109 -101 324v724h189v-637q0 -177 35 -249q22 -44 63 -64t114 -20q69 0 146 39q80 41 142 97v834h188z" />
    <glyph glyph-name="v" unicode="v" horiz-adv-x="1020" 
d="M817 1117h198l-421 -1117h-170l-418 1117h203l307 -862z" />
    <glyph glyph-name="w" unicode="w" horiz-adv-x="1519" 
d="M1301 1117h188l-283 -1117h-173l-273 860l-270 -860h-173l-287 1117h195l198 -866l266 866h154l272 -866z" />
    <glyph glyph-name="x" unicode="x" horiz-adv-x="1015" 
d="M618 568l386 -568h-231l-270 423l-280 -423h-214l389 555l-383 562h231l268 -419l275 419h215z" />
    <glyph glyph-name="y" unicode="y" horiz-adv-x="1020" 
d="M817 1117h198l-602 -1528h-201l199 465l-405 1063h203l305 -827z" />
    <glyph glyph-name="z" unicode="z" horiz-adv-x="910" 
d="M869 156v-156h-821v140l585 823h-560v154h785v-134l-586 -827h597z" />
    <glyph glyph-name="braceleft" unicode="{" horiz-adv-x="547" 
d="M43 359v131q125 3 151 119q13 55 15 190q-2 59 3 175q20 176 149 210q30 9 99 9h45v-126h-25q-89 0 -113 -35q-24 -34 -24 -129q0 -213 -10 -264q-24 -150 -158 -215q105 -43 143 -148q25 -69 25 -213q0 -155 3 -184q7 -61 41 -82q26 -17 93 -17h25v-124h-45
q-79 0 -114 13q-109 39 -128 163l-8 263q-4 181 -69 231q-38 32 -98 33z" />
    <glyph glyph-name="braceright" unicode="}" horiz-adv-x="547" 
d="M505 490v-131q-126 -3 -151 -121q-15 -62 -15 -180q0 -148 -4 -183q-18 -172 -149 -210q-32 -9 -98 -9h-45v124h24q89 0 115 39q23 31 23 127q0 204 7 253q22 168 160 225q-108 51 -143 149q-24 67 -24 215q0 152 -4 184q-8 60 -41 80q-26 15 -93 15h-24v126h45
q77 0 113 -13q108 -39 129 -163q9 -57 7 -205q0 -130 17 -201q25 -118 151 -121z" />
    <glyph glyph-name="uni00A0" unicode="&#xa0;" horiz-adv-x="469" 
 />
    <glyph glyph-name="guillemotleft" unicode="&#xab;" horiz-adv-x="926" 
d="M419 5l-323 250v194l323 250v-145l-264 -200l264 -203v-146zM829 5l-320 250v194l320 250v-145l-259 -200l259 -203v-146z" />
    <glyph glyph-name="uni00AD" unicode="&#xad;" horiz-adv-x="1149" 
d="M1076 239h-981v177h981v-177z" />
    <glyph glyph-name="periodcentered" unicode="&#xb7;" horiz-adv-x="512" 
d="M156 758q0 107 97 107q95 0 95 -107q0 -44 -26.5 -74.5t-68.5 -30.5q-97 0 -97 105z" />
    <glyph glyph-name="periodcentered" unicode="&#x2d9;" horiz-adv-x="512" 
d="M156 758q0 107 97 107q95 0 95 -107q0 -44 -26.5 -74.5t-68.5 -30.5q-97 0 -97 105z" />
    <glyph glyph-name="guillemotright" unicode="&#xbb;" horiz-adv-x="926" 
d="M415 255l-320 -250v144l259 200l-259 204v146l320 -250v-194zM826 255l-321 -250v144l264 200l-264 204v146l321 -250v-194z" />
    <glyph glyph-name="multiply" unicode="&#xd7;" horiz-adv-x="1275" 
d="M520 325l-421 419l124 124l417 -418l419 420l121 -126l-414 -419l414 -415l-126 -126l-410 416l-419 -416l-124 123z" />
    <glyph glyph-name="divide" unicode="&#xf7;" horiz-adv-x="1171" 
d="M1095 225h-1022v179h1022v-179zM435 -113q0 57 40 93q41 36 98 36q52 0 90 -41q37 -40 37 -95t-42 -94t-97 -39q-53 0 -91 44q-35 41 -35 96zM444 749q0 51 39 89q41 38 93 38q53 0 93 -40q41 -39 41 -92q0 -55 -43 -98q-42 -42 -96 -42q-55 0 -93 45q-34 41 -34 100z
" />
    <glyph glyph-name="u060C" unicode="&#x60c;" horiz-adv-x="516" 
d="M124 160q0 163 25 228q42 111 176 123v-65q-79 -7 -106 -75q-14 -36 -19 -137q188 0 188 -124q0 -110 -137 -110q-82 0 -107 43q-20 32 -20 117z" />
    <glyph glyph-name="u061B" unicode="&#x61b;" horiz-adv-x="564" 
d="M155 565q0 162 25 225q40 105 176 123v-62q-79 -16 -105 -77q-15 -36 -18 -134q191 0 191 -124q0 -111 -136 -111q-86 0 -113 43q-20 32 -20 117zM160 110q0 120 140 120q126 0 126 -120q0 -110 -136 -110q-130 0 -130 110z" />
    <glyph glyph-name="u061F" unicode="&#x61f;" horiz-adv-x="809" 
d="M76 866q0 141 98 219q91 71 235 71q102 0 186 -48q91 -52 123 -144q22 -63 23 -189h-176q0 223 -157 223q-147 0 -147 -138q0 -50 23 -76l87 -96q84 -92 102 -138q23 -63 32 -212h-171q0 106 -30 167q-21 44 -93 110q-75 72 -98 109q-37 58 -37 142zM293 109
q0 101 120 101q121 0 121 -101q0 -50 -40 -81q-35 -28 -88 -28q-44 0 -79 32q-34 31 -34 77z" />
    <glyph glyph-name="u0621" unicode="&#x621;" horiz-adv-x="530" 
d="M95 0l-32 61l131 70q-115 61 -115 169q0 80 51 133t131 53q54 0 104 -22l-27 -59q-36 21 -74 21q-121 0 -121 -126q0 -106 102 -106q78 0 193 62l33 -62z" />
    <glyph glyph-name="u0622" unicode="&#x622;" horiz-adv-x="669" 
d="M-3 1124l-163 64q64 139 116 180q61 48 236 61q47 4 257 4q75 0 233 -3v-177h-451q-30 0 -105 -9q-41 -4 -61 -20q-25 -20 -62 -100zM430 0h-175v1154h175v-1154z" />
    <glyph glyph-name="u0623" unicode="&#x623;" horiz-adv-x="575" 
d="M173 1266l-20 40l83 47q-75 39 -75 110q0 49 35 84q34 36 84 36q25 0 69 -19l-18 -36q-22 14 -53 14q-70 0 -70 -83q0 -67 67 -67q53 0 121 41l23 -44zM374 0h-175v1154h175v-1154z" />
    <glyph glyph-name="u0624" unicode="&#x624;" horiz-adv-x="893" 
d="M115 -455l-22 180h227q124 0 210 75q90 78 90 200q-218 0 -322 59q-140 78 -140 279q0 187 61 275q73 108 252 108q216 0 288 -165q44 -102 44 -353v-226q0 -186 -136 -310q-133 -122 -319 -122h-233zM149 736l-25 50l104 57q-93 48 -93 131q0 63 41 109q42 46 105 46
q24 0 87 -23l-23 -47q-25 19 -55 19q-42 0 -70.5 -30t-28.5 -73q0 -81 79 -81q56 0 156 52l27 -56zM343 356q0 -122 86 -157q45 -19 192 -19v185q0 176 -141 176q-137 0 -137 -185z" />
    <glyph glyph-name="u0625" unicode="&#x625;" horiz-adv-x="575" 
d="M202 -469l-20 40l84 48q-75 37 -75 110q0 48 35 85q35 35 84 35q24 0 68 -19l-17 -36q-20 13 -54 13q-70 0 -70 -82q0 -68 68 -68q53 0 121 42l22 -44zM374 0h-175v1154h175v-1154z" />
    <glyph glyph-name="u0626" unicode="&#x626;" horiz-adv-x="1289" 
d="M79 9v372h169v-392q0 -122 87 -197q83 -71 206 -71h232q100 0 186 70q94 73 94 170q0 90 -64 109q-55 16 -354 18v308q0 137 90 230q91 93 228 93h216l7 -169h-216q-104 0 -139 -101q-17 -54 -17 -190q261 -4 327 -43q94 -52 94 -207q0 -204 -117 -332
q-122 -132 -324 -132h-279q-188 0 -310 140q-116 134 -116 324zM140 624l-25 50l104 56q-90 50 -90 130q0 67 39.5 111.5t104.5 44.5q26 0 86 -22l-23 -48q-31 17 -55 17q-42 0 -70 -30t-28 -73q0 -80 76 -80q63 0 160 51l25 -53z" />
    <glyph glyph-name="u0627" unicode="&#x627;" horiz-adv-x="575" 
d="M374 0h-175v1154h175v-1154z" />
    <glyph glyph-name="u0628" unicode="&#x628;" horiz-adv-x="1606" 
d="M73 293v272h180v-247q0 -76 29 -107t103 -31h840q75 0 104.5 31t29.5 107v247h182v-272q0 -114 -72 -201q-77 -92 -188 -92h-950q-115 0 -189 90q-69 84 -69 203zM719 -326q0 105 129 105q130 0 130 -105q0 -52 -37 -89q-38 -38 -88 -38q-134 0 -134 127z" />
    <glyph glyph-name="u062A" unicode="&#x62a;" horiz-adv-x="1606" 
d="M73 293v272h180v-247q0 -76 29 -107t103 -31h840q75 0 104.5 31t29.5 107v247h182v-272q0 -114 -72 -201q-77 -92 -188 -92h-950q-115 0 -189 90q-69 84 -69 203zM480 865q0 98 114 98q125 0 125 -98q0 -47 -33 -78q-32 -31 -80 -31q-126 0 -126 109zM825 865
q0 98 114 98q125 0 125 -98q0 -47 -34 -78q-32 -31 -80 -31q-125 0 -125 109z" />
    <glyph glyph-name="u062B" unicode="&#x62b;" horiz-adv-x="1606" 
d="M73 293v272h180v-247q0 -76 29 -107t103 -31h840q75 0 104.5 31t29.5 107v247h182v-272q0 -114 -72 -201q-77 -92 -188 -92h-950q-115 0 -189 90q-69 84 -69 203zM491 800q0 99 114 99q125 0 125 -99q0 -46 -34 -77q-35 -32 -80 -32q-49 0 -86 29q-39 32 -39 80z
M660 1054q0 100 115 100q126 0 126 -100q0 -47 -34 -77.5t-82 -30.5q-51 0 -86 28q-39 32 -39 80zM836 800q0 99 114 99q126 0 126 -99q0 -47 -34 -78t-81 -31q-49 0 -86 29q-39 32 -39 80z" />
    <glyph glyph-name="u062C" unicode="&#x62c;" horiz-adv-x="1104" 
d="M43 -304q0 296 263 442l550 303q-41 76 -121 89q-70 11 -476 13l-23 176h435q375 0 377 -371l-593 -332q-241 -135 -241 -334q0 -145 114 -259t260 -114h525l16 -177h-494q-253 0 -420 155q-172 157 -172 409zM554 -340q0 112 131 112q130 0 130 -108q0 -52 -36 -90
q-34 -37 -88 -37q-58 0 -96 32q-41 35 -41 91z" />
    <glyph glyph-name="u062D" unicode="&#x62d;" horiz-adv-x="1104" 
d="M45 -314v39q0 1 1 5.5t2 14.5t2 19q32 248 259 374l551 303q-61 109 -344 109h-56l-196 -4v-3l-36 1q18 2 36 2l-25 173h435q370 0 376 -371l-592 -332q-242 -135 -242 -334q0 -143 115 -258t259 -115h525l16 -177h-493q-287 0 -460 203q-133 154 -133 351z" />
    <glyph glyph-name="u062E" unicode="&#x62e;" horiz-adv-x="1104" 
d="M43 -304q0 296 263 442l550 303q-41 76 -121 89q-70 11 -476 13l-23 176h435q375 0 377 -371l-593 -332q-241 -135 -241 -334q0 -145 114 -259t260 -114h525l16 -177h-494q-253 0 -420 155q-172 157 -172 409zM495 1045q0 106 131 106q132 0 132 -106q0 -53 -37 -90
q-36 -36 -88 -36q-138 0 -138 126z" />
    <glyph glyph-name="u062F" unicode="&#x62f;" horiz-adv-x="986" 
d="M120 0l-25 180h571q100 0 100 70q0 36 -27 65l-405 431l121 122l405 -429q84 -89 84 -204q0 -108 -81 -174q-74 -61 -185 -61h-558z" />
    <glyph glyph-name="u0630" unicode="&#x630;" horiz-adv-x="986" 
d="M118 0l-25 180h572q99 0 99 70q0 37 -28 65l-405 431l122 122l406 -429q82 -86 82 -198q0 -113 -77 -179q-74 -62 -188 -62h-558zM329 1169q0 106 131 106q130 0 130 -106q0 -53 -36 -90q-36 -36 -89 -36q-136 0 -136 126z" />
    <glyph glyph-name="u0631" unicode="&#x631;" horiz-adv-x="870" 
d="M74 -455l-29 185h203q129 0 223 62q108 72 108 197v576h185v-534q0 -200 -124 -340q-129 -146 -326 -146h-240z" />
    <glyph glyph-name="u0632" unicode="&#x632;" horiz-adv-x="870" 
d="M73 -455l-30 185h202q129 0 224 62q107 72 107 197v576h185v-534q0 -199 -124 -339q-131 -147 -326 -147h-238zM491 1054q0 109 132 109q131 0 131 -109q0 -52 -36 -90q-36 -36 -89 -36q-138 0 -138 126z" />
    <glyph glyph-name="u0633" unicode="&#x633;" horiz-adv-x="2253" 
d="M85 11v374h176v-382q0 -126 83 -203q80 -75 206 -75h234q126 0 205 76t79 202v562h180v-267q0 -63 46 -103q47 -41 110 -41q124 0 124 112v299h177v-265q0 -62 45 -104q46 -42 109 -42q126 0 126 112v299h178v-276q0 -125 -59 -210q-66 -97 -186 -97q-122 0 -253 122
q-87 -122 -212 -122q-98 0 -203 72q0 -215 -114 -356q-123 -153 -332 -153h-274q-194 0 -322 137q-123 134 -123 329z" />
    <glyph glyph-name="u0634" unicode="&#x634;" horiz-adv-x="2253" 
d="M85 11v374h176v-382q0 -128 82 -204q80 -74 207 -74h234q124 0 203 78q81 77 81 200v562h180v-267q0 -63 46 -103q47 -41 110 -41q124 0 124 112v299h177v-265q0 -64 44 -105q46 -41 110 -41q126 0 126 112v299h178v-276q0 -125 -59 -210q-66 -97 -186 -97
q-131 0 -253 122q-98 -122 -212 -122q-93 0 -203 72q-3 -211 -116 -354q-125 -155 -330 -155h-274q-192 0 -320 138q-125 134 -125 328zM1311 800q0 99 114 99q125 0 125 -99q0 -46 -34 -77q-35 -32 -80 -32q-49 0 -86 29q-39 32 -39 80zM1480 1054q0 100 115 100
q126 0 126 -100q0 -47 -34 -77.5t-82 -30.5q-51 0 -86 28q-39 32 -39 80zM1656 800q0 99 114 99q126 0 126 -99q0 -47 -34 -78t-81 -31q-49 0 -86 29q-39 32 -39 80z" />
    <glyph glyph-name="u0635" unicode="&#x635;" horiz-adv-x="2275" 
d="M61 31v354h180v-396q0 -102 90 -181q87 -78 189 -78h250q107 0 190 76q88 78 88 183v576h185v-267q0 -114 168 -118q79 204 189 345q152 194 316 194q143 0 235 -134q16 -25 33 -55l36 -104q14 -42 14 -108q0 -147 -86 -233q-85 -85 -232 -85h-488q-153 0 -188 95
q0 -220 -112 -375q-127 -175 -337 -175h-276q-195 0 -322 148q-122 142 -122 338zM1589 180h346q115 0 115 166q0 54 -30 119q-34 76 -80 76q-89 0 -206 -138q-91 -107 -145 -223z" />
    <glyph glyph-name="u0636" unicode="&#x636;" horiz-adv-x="2275" 
d="M61 31v354h180v-396q0 -102 89 -182q86 -77 190 -77h250q100 0 188 81q90 80 90 178v576h185v-267q0 -118 171 -118q225 539 504 539q144 0 235 -133q81 -119 81 -268q0 -148 -85 -233t-233 -85h-488q-162 0 -188 95q-1 -215 -115 -374q-128 -176 -334 -176h-276
q-195 0 -323 147q-121 139 -121 339zM1589 180h349q115 0 115 160q0 61 -28 123q-35 78 -85 78q-89 0 -206 -138q-96 -114 -145 -223zM1618 1053q0 107 131 107q130 0 130 -107q0 -52 -37 -89q-38 -36 -88 -36q-136 0 -136 125z" />
    <glyph glyph-name="u0637" unicode="&#x637;" horiz-adv-x="1054" 
d="M81 0l-36 180h151v974h175v-643q172 208 312 208q138 0 230 -134q81 -119 81 -265q0 -135 -76 -224q-81 -96 -213 -96h-624zM359 180h346q44 0 79 56q25 40 25 133q0 170 -109 170q-90 0 -202 -139q-83 -101 -139 -220z" />
    <glyph glyph-name="u0638" unicode="&#x638;" horiz-adv-x="1054" 
d="M79 0l-36 180h151v974h176v-643q166 208 310 208q135 0 228 -128q83 -116 83 -255q0 -143 -71 -235q-78 -101 -217 -101h-624zM356 180h347q103 0 103 179q0 180 -107 180q-89 0 -204 -138q-91 -109 -139 -221zM576 1054q0 109 132 109q130 0 130 -109q0 -52 -36 -90
q-36 -36 -88 -36q-138 0 -138 126z" />
    <glyph glyph-name="u0639" unicode="&#x639;" horiz-adv-x="1090" 
d="M6 -315q0 343 379 509q-59 107 -59 216q0 150 104 233q94 76 249 76q136 0 296 -135l-85 -138q-154 104 -246 104q-101 0 -128 -97l-11 -40v-30q0 -74 37 -133q43 -70 112 -70h357l25 -180h-595q-122 0 -191 -101q-61 -88 -61 -217q0 -165 100 -268q101 -105 264 -105
h488l24 -177h-472q-245 0 -414 152q-173 158 -173 401z" />
    <glyph glyph-name="u063A" unicode="&#x63a;" horiz-adv-x="1090" 
d="M6 -315q0 340 379 509q-61 112 -61 202q0 146 90 235q92 90 237 90q165 0 323 -137l-86 -138q-148 104 -244 104q-141 0 -141 -162q0 -81 33 -138q40 -70 115 -70h358l25 -180h-595q-121 0 -190 -102q-61 -89 -61 -216q0 -165 98 -269t264 -104h489l25 -177h-471
q-244 0 -413 154q-174 158 -174 399zM565 1050q0 108 131 108q130 0 130 -108q0 -52 -36 -90q-36 -36 -89 -36q-136 0 -136 126z" />
    <glyph glyph-name="u0640" unicode="&#x640;" horiz-adv-x="469" 
d="M505 0h-525v180h525v-180z" />
    <glyph glyph-name="u0641" unicode="&#x641;" horiz-adv-x="1606" 
d="M63 293v272h181v-247q0 -78 28.5 -108t103.5 -30h860q82 0 103 31q10 15 24 104q-252 0 -318 23q-146 51 -146 248q0 134 90 210q85 72 220 72q143 0 234 -100q86 -95 89 -240q4 -128 4 -213q0 -130 -73 -219q-79 -96 -205 -96h-938q-116 0 -189 90q-68 85 -68 203z
M1053 573q0 -87 138 -89q84 0 168 -1q0 85 -44 143q-48 64 -131 64q-131 0 -131 -117zM1073 1076q0 109 130 109q131 0 131 -109q0 -51 -38 -87t-88 -36q-135 0 -135 123z" />
    <glyph glyph-name="u0642" unicode="&#x642;" horiz-adv-x="1339" 
d="M96 -6v359h170v-366q0 -125 77 -211q78 -86 202 -86h250q127 0 208 92q77 87 78 217q-255 0 -320 22q-146 50 -146 247q0 130 88 206q84 72 216 72q153 0 244 -102q90 -98 90 -251v-158q0 -39 -9 -143q-13 -163 -145 -270q-125 -101 -293 -101h-272q-201 0 -322 138
q-116 133 -116 335zM609 741q0 100 116 100q124 0 124 -100q0 -46 -33 -75.5t-81 -29.5q-126 0 -126 105zM775 268q0 -108 169 -108q87 0 135 5q0 84 -46 142q-49 63 -132 63q-126 0 -126 -102zM955 741q0 100 116 100q125 0 125 -100q0 -46 -32.5 -75.5t-80.5 -29.5
q-128 0 -128 105z" />
    <glyph glyph-name="u0644" unicode="&#x644;" horiz-adv-x="1361" 
d="M95 9v376h180v-396q0 -112 94 -188q88 -71 201 -71h233q107 0 193 74q88 78 88 185v1165h180v-1131q0 -203 -122 -339q-127 -139 -328 -139h-275q-179 0 -313 143q-131 140 -131 321z" />
    <glyph glyph-name="u0645" unicode="&#x645;" horiz-adv-x="1149" 
d="M76 -455v798q0 174 91 272q95 104 266 104h365q180 0 245 -131q43 -87 43 -293q0 -135 -92 -218q-91 -82 -228 -82q-139 0 -226 95q-85 91 -85 233v220q-9 0 -17.5 0.5t-13 1t-6.5 0.5q-70 0 -118 -55q-47 -56 -47 -125v-820h-177zM629 543v-250q0 -51 50 -86
q44 -31 99 -31q132 0 132 158q0 145 -29 172q-32 31 -252 37z" />
    <glyph glyph-name="u0646" unicode="&#x646;" horiz-adv-x="1339" 
d="M76 9v376h177v-396q0 -114 89 -191q85 -73 201 -73h232q117 0 200 74q84 73 84 190v576h180v-536q0 -211 -120 -345q-124 -139 -333 -139h-277q-185 0 -311 141q-122 137 -122 323zM471 606q0 108 128 108q131 0 131 -108q0 -51 -37 -87q-36 -36 -88 -36q-134 0 -134 123
z" />
    <glyph glyph-name="u0647" unicode="&#x647;" horiz-adv-x="809" 
d="M70 329q0 154 205 359l-52 58l122 122l329 -340q84 -87 84 -223q0 -139 -107 -234q-103 -91 -245 -91q-148 0 -242 100t-94 249zM244 311q0 -69 52 -114q53 -44 123 -44q72 0 115 46q45 47 45 117q0 54 -29 85l-145 153q-161 -153 -161 -243z" />
    <glyph glyph-name="u0648" unicode="&#x648;" horiz-adv-x="893" 
d="M96 -455l-23 180h227q127 0 212 74t89 201q-225 0 -327 60q-136 79 -136 288q0 225 107 317q67 56 220 56q205 0 274 -172q42 -106 42 -346v-226q0 -180 -136 -306q-135 -126 -316 -126h-233zM323 344q0 -115 91 -146q50 -18 187 -18v185q0 176 -141 176q-86 0 -116 -58
q-21 -42 -21 -139z" />
    <glyph glyph-name="u0649" unicode="&#x649;" horiz-adv-x="1289" 
d="M79 9v372h169v-392q0 -120 88 -196q84 -72 205 -72h232q106 0 190 69q90 72 90 176q0 88 -123 117q-31 7 -45 7h-250v309q0 138 89 229q88 91 229 91h216l7 -169h-216q-96 0 -134 -86q-18 -45 -22 -205q212 0 284 -26q137 -53 137 -224q0 -265 -191 -390
q-113 -74 -250 -74h-279q-185 0 -308 141q-118 134 -118 323z" />
    <glyph glyph-name="u064B" unicode="&#x64b;" 
d="M228 1493l-28 47l315 173l28 -52zM228 1606l-27 50l315 174l28 -52z" />
    <glyph glyph-name="u064C" unicode="&#x64c;" 
d="M169 1564l-20 36q54 19 85 19q57 0 72 -78l77 45q-79 45 -79 114q0 90 87 124q30 11 37 11q55 0 93 -37q39 -38 39 -90q0 -92 -49 -117l-283 -151l-28 48q50 33 63 53q0 34 -45 34q-29 0 -49 -11zM349 1701q0 -78 85 -78q26 0 53 29q27 30 27 57q0 32 -26 55.5t-60 23.5
q-79 0 -79 -87z" />
    <glyph glyph-name="u064D" unicode="&#x64d;" 
d="M-89 -900l-27 47l315 174l27 -52zM-89 -1044l-27 48l315 175l27 -54z" />
    <glyph glyph-name="u064E" unicode="&#x64e;" 
d="M228 1488l-28 47l315 176l28 -55z" />
    <glyph glyph-name="u064F" unicode="&#x64f;" 
d="M228 1464l-28 47l126 70q-78 45 -78 113q0 90 90 125q24 10 33 10q56 0 94 -37q40 -37 40 -91q0 -89 -50 -116zM293 1695q0 -79 86 -79q27 0 52 30q27 30 27 57q0 32 -26.5 55t-60.5 23q-78 0 -78 -86z" />
    <glyph glyph-name="u0650" unicode="&#x650;" 
d="M-96 -923l-29 48l315 175l28 -54z" />
    <glyph glyph-name="u0651" unicode="&#x651;" 
d="M169 1723h45q0 -100 81 -100q80 0 83 100h50q0 -100 83 -100q81 0 82 100h48q0 -61 -35 -105q-38 -47 -97 -47q-45 0 -110 57q-47 -57 -110 -57q-57 0 -91 49q-29 44 -29 103z" />
    <glyph glyph-name="u0652" unicode="&#x652;" 
d="M230 1648q0 54 39 88q40 34 95 34q54 0 89 -39q35 -40 35 -93q0 -54 -41 -90q-41 -35 -94 -35q-52 0 -88 41q-35 41 -35 94zM359 1556q31 0 56 27q26 29 26 58q0 60 -60 80q-17 7 -22 7q-34 0 -60 -26.5t-26 -60.5t26 -59.5t60 -25.5z" />
    <glyph glyph-name="u067E" unicode="&#x67e;" horiz-adv-x="1606" 
d="M73 293v272h180v-247q0 -76 29 -107t103 -31h840q75 0 104.5 31t29.5 107v247h182v-272q0 -114 -72 -201q-77 -92 -188 -92h-950q-115 0 -189 90q-69 84 -69 203zM545 -343q0 45 34 77t80 32q52 0 88 -27q39 -31 39 -82q0 -96 -116 -96q-125 0 -125 96zM710 -598
q0 109 114 109q52 0 88 -27q39 -32 39 -82q0 -98 -115 -98q-126 0 -126 98zM890 -343q0 45 34 77t80 32q52 0 88 -27q39 -31 39 -82q0 -96 -116 -96q-125 0 -125 96z" />
    <glyph glyph-name="u0686" unicode="&#x686;" horiz-adv-x="1104" 
d="M39 -304q0 297 262 442l550 303q-41 76 -121 89q-70 11 -475 13l-22 176h433q375 0 377 -371l-593 -332q-240 -134 -240 -334q0 -146 113 -259q114 -114 261 -114h525l15 -177h-493q-253 0 -420 155q-172 157 -172 409zM430 -223q0 48 32.5 79t80.5 31q51 0 88 -28
q40 -31 40 -82q0 -95 -121 -95q-120 0 -120 95zM593 -478q0 110 112 110q52 0 89 -28q40 -31 40 -82q0 -97 -115 -97q-126 0 -126 97zM778 -223q0 48 32 79t80 31q52 0 89 -28q40 -31 40 -82q0 -95 -123 -95q-118 0 -118 95z" />
    <glyph glyph-name="u0698" unicode="&#x698;" horiz-adv-x="922" 
d="M76 -455l-28 185h202q129 0 224 62q107 72 107 197v576h185v-534q0 -198 -125 -340q-129 -146 -326 -146h-239zM363 800q0 96 116 96q125 0 125 -96q0 -47 -33 -79t-80 -32q-51 0 -89 31q-39 32 -39 80zM536 1054q0 97 123 97q121 0 121 -92q0 -49 -33 -82t-82 -33
q-52 0 -89 28q-40 31 -40 82zM710 800q0 96 116 96q128 0 128 -96q0 -48 -33.5 -79.5t-81.5 -31.5q-51 0 -89 29q-40 31 -40 82z" />
    <glyph glyph-name="u06AF" unicode="&#x6af;" horiz-adv-x="1606" 
d="M90 293v272h180v-247q0 -78 30 -108t108 -30h876q34 0 63 24t29 57q0 24 -17 43l-499 514l-34 202l665 239l25 -180l-466 -178l416 -460q89 -98 89 -200q0 -119 -84 -184q-75 -57 -198 -57h-925q-115 0 -188 91q-70 85 -70 202zM818 1134l-9 69l632 227l5 -69z" />
    <glyph glyph-name="uni2000" unicode="&#x2000;" horiz-adv-x="1032" 
 />
    <glyph glyph-name="uni2001" unicode="&#x2001;" horiz-adv-x="2064" 
 />
    <glyph glyph-name="uni2002" unicode="&#x2002;" horiz-adv-x="1032" 
 />
    <glyph glyph-name="uni2003" unicode="&#x2003;" horiz-adv-x="2064" 
 />
    <glyph glyph-name="uni2004" unicode="&#x2004;" horiz-adv-x="688" 
 />
    <glyph glyph-name="uni2005" unicode="&#x2005;" horiz-adv-x="516" 
 />
    <glyph glyph-name="uni2006" unicode="&#x2006;" horiz-adv-x="344" 
 />
    <glyph glyph-name="uni2007" unicode="&#x2007;" horiz-adv-x="344" 
 />
    <glyph glyph-name="uni2008" unicode="&#x2008;" horiz-adv-x="258" 
 />
    <glyph glyph-name="uni2009" unicode="&#x2009;" horiz-adv-x="412" 
 />
    <glyph glyph-name="uni200A" unicode="&#x200a;" horiz-adv-x="114" 
 />
    <glyph glyph-name="zeronojoin" unicode="&#x200c;" horiz-adv-x="45" 
 />
    <glyph glyph-name="zerojoin" unicode="&#x200d;" horiz-adv-x="45" 
 />
    <glyph glyph-name="lefttoright" unicode="&#x200e;" horiz-adv-x="41" 
d="M41 0h-41v1464h195l-75 75l31 28l120 -123l-120 -123l-31 26l80 79h-159v-1426z" />
    <glyph glyph-name="righttoleft" unicode="&#x200f;" horiz-adv-x="41" 
d="M-108 1321l-125 123l125 123l26 -28l-74 -75h197v-1464h-41v1426h-159l77 -79z" />
    <glyph glyph-name="uni2010" unicode="&#x2010;" horiz-adv-x="1149" 
d="M1076 239h-981v177h981v-177z" />
    <glyph glyph-name="uni2011" unicode="&#x2011;" horiz-adv-x="1149" 
d="M1076 239h-981v177h981v-177z" />
    <glyph glyph-name="figuredash" unicode="&#x2012;" horiz-adv-x="1149" 
d="M1076 239h-981v177h981v-177z" />
    <glyph glyph-name="endash" unicode="&#x2013;" horiz-adv-x="1192" 
d="M1119 239h-1024v177h1024v-177z" />
    <glyph glyph-name="emdash" unicode="&#x2014;" horiz-adv-x="2216" 
d="M2143 239h-2048v177h2048v-177z" />
    <glyph glyph-name="quoteleft" unicode="&#x2018;" horiz-adv-x="662" 
d="M203 1026q0 163 25 228q43 111 176 124v-65q-76 -9 -105 -77q-15 -38 -20 -136q188 0 188 -124q0 -110 -137 -110q-82 0 -107 43q-20 32 -20 117z" />
    <glyph glyph-name="quoteright" unicode="&#x2019;" horiz-adv-x="570" 
d="M153 1268q0 110 136 110q82 0 109 -43q18 -30 18 -117q0 -166 -25 -229q-42 -111 -176 -123v65q79 7 106 75q14 36 19 138q-187 0 -187 124z" />
    <glyph glyph-name="quotedblleft" unicode="&#x201c;" horiz-adv-x="618" 
d="M39 1021q0 164 25 229q42 111 176 123v-65q-79 -7 -106 -75q-14 -36 -19 -138q188 0 188 -124q0 -110 -137 -110q-83 0 -108 43q-19 29 -19 117zM340 1026q0 163 25 228q43 111 176 124v-65q-76 -9 -105 -77q-15 -38 -20 -136q188 0 188 -124q0 -110 -136 -110
q-83 0 -108 43q-20 32 -20 117z" />
    <glyph glyph-name="quotedblright" unicode="&#x201d;" horiz-adv-x="618" 
d="M39 1263q0 110 136 110q81 0 108 -43q20 -32 20 -117q0 -165 -25 -228q-43 -110 -177 -124v65q78 9 105 77q15 36 20 136q-187 0 -187 124zM340 1268q0 110 136 110q84 0 109 -43q19 -29 19 -117q0 -166 -25 -229q-44 -111 -176 -123v65q77 7 106 75q14 36 19 138
q-188 0 -188 124z" />
    <glyph glyph-name="bullet" unicode="&#x2022;" horiz-adv-x="559" 
d="M0 279q0 116 82 198t197 82q116 0 198 -82t82 -198q0 -115 -82 -197t-198 -82q-115 0 -197 82t-82 197z" />
    <glyph glyph-name="uni202F" unicode="&#x202f;" horiz-adv-x="412" 
 />
    <glyph glyph-name="guilsinglleft" unicode="&#x2039;" horiz-adv-x="631" 
d="M490 5l-320 250v194l320 250v-145l-259 -200l259 -203v-146z" />
    <glyph glyph-name="guilsinglright" unicode="&#x203a;" horiz-adv-x="573" 
d="M473 255l-321 -250v144l263 200l-263 204v146l321 -250v-194z" />
    <glyph glyph-name="uni205F" unicode="&#x205f;" horiz-adv-x="516" 
 />
    <glyph glyph-name="uniE000" unicode="&#xe000;" horiz-adv-x="500" 
 />
    <glyph glyph-name="uE820" unicode="&#xe820;" 
d="M38 979l-28 47l315 176l28 -55z" />
    <glyph glyph-name="uE821" unicode="&#xe821;" 
d="M48 1001l-28 47l126 70q-78 45 -78 113q0 91 90 125q24 10 33 10q56 0 94 -37q40 -37 40 -91q0 -89 -50 -116zM113 1232q0 -79 86 -79q27 0 52 30q27 30 27 57q0 32 -26.5 55t-60.5 23q-78 0 -78 -86z" />
    <glyph glyph-name="uE822" unicode="&#xe822;" 
d="M-1 1164q0 54 39 88q40 34 95 34t89 -39q35 -40 35 -93q0 -54 -41 -90q-41 -35 -94 -35q-52 0 -88 41q-35 41 -35 94zM128 1072q30 0 56 27q26 29 26 58q0 61 -60 80q-17 7 -22 7q-34 0 -60 -26.5t-26 -60.5t26 -59.5t60 -25.5z" />
    <glyph glyph-name="uE823" unicode="&#xe823;" 
d="M18 1004l-28 47l315 173l28 -52zM18 1117l-27 50l315 174l28 -52z" />
    <glyph glyph-name="uE824" unicode="&#xe824;" 
d="M30 1096l-20 36q54 19 85 19q57 0 72 -78l77 45q-79 45 -79 114q0 90 87 124q30 11 37 11q55 0 93 -37q39 -38 39 -90q0 -92 -49 -117l-283 -151l-28 48q50 33 63 53q0 34 -45 34q-29 0 -49 -11zM210 1233q0 -78 85 -78q26 0 53 29q27 30 27 57q0 32 -26 55.5t-60 23.5
q-79 0 -79 -87z" />
    <glyph glyph-name="uE825" unicode="&#xe825;" 
d="M-31 1219h45q0 -100 81 -100q80 0 83 100h50q0 -100 83 -100q81 0 82 100h48q0 -61 -35 -105q-38 -47 -97 -47q-45 0 -110 57q-46 -57 -110 -57q-57 0 -91 49q-29 44 -29 103z" />
    <glyph glyph-name="uE826" unicode="&#xe826;" 
d="M-176 -536l-29 48l315 175l28 -54z" />
    <glyph glyph-name="uE827" unicode="&#xe827;" 
d="M-215 -630l-27 47l315 174l27 -52zM-215 -774l-27 48l315 175l27 -54z" />
    <glyph glyph-name="uE828" unicode="&#xe828;" 
d="M-16 1242h45q0 -100 81 -100q80 0 83 100h50q0 -100 83 -100q81 0 82 100h48q0 -61 -35 -105q-38 -47 -97 -47q-46 0 -110 57q-47 -57 -110 -57q-57 0 -91 49q-29 44 -29 103zM58 1347l-28 47l315 176l28 -55z" />
    <glyph glyph-name="uE829" unicode="&#xe829;" 
d="M-16 1242h45q0 -100 81 -100q80 0 83 100h50q0 -100 83 -100q81 0 82 100h48q0 -61 -35 -105q-38 -47 -97 -47q-46 0 -110 57q-47 -57 -110 -57q-57 0 -91 49q-29 44 -29 103zM88 1380l-28 47l126 70q-78 45 -78 113q0 90 90 125q24 10 33 10q56 0 94 -37q40 -37 40 -91
q0 -89 -50 -116zM153 1611q0 -79 86 -79q27 0 52 30q27 30 27 57q0 32 -26.5 55t-60.5 23q-78 0 -78 -86z" />
    <glyph glyph-name="uE82A" unicode="&#xe82a;" 
d="M-16 1242h45q0 -100 81 -100q80 0 83 100h50q0 -100 83 -100q81 0 82 100h48q0 -61 -35 -105q-38 -47 -97 -47q-46 0 -110 57q-47 -57 -110 -57q-57 0 -91 49q-29 44 -29 103zM77 1361l-28 47l315 173l28 -52zM77 1474l-27 50l315 174l28 -52z" />
    <glyph glyph-name="uE82B" unicode="&#xe82b;" 
d="M5 1224h45q0 -100 81 -100q80 0 83 100h50q0 -100 83 -100q81 0 82 100h48q0 -61 -35 -105q-38 -47 -97 -47q-45 0 -110 57q-47 -57 -110 -57q-57 0 -91 49q-29 44 -29 103zM57 1501l-20 36q54 19 85 19q57 0 72 -78l77 45q-79 45 -79 114q0 89 87 124q30 11 37 11
q55 0 93 -37q39 -37 39 -90q0 -92 -49 -117l-283 -151l-28 48q50 33 63 53q0 34 -45 34q-29 0 -49 -11zM237 1638q0 -78 85 -78q26 0 53 29q27 30 27 57q0 32 -26 55.5t-60 23.5q-79 0 -79 -87z" />
    <glyph glyph-name="uE82C" unicode="&#xe82c;" 
d="M184 1487h45q0 -100 81 -100q80 0 83 100h50q0 -100 83 -100q81 0 82 100h48q0 -61 -35 -105q-38 -47 -97 -47q-46 0 -110 57q-46 -57 -110 -57q-57 0 -91 49q-29 44 -29 103zM264 1063l-29 48l315 175l28 -54z" />
    <glyph glyph-name="uE82D" unicode="&#xe82d;" 
d="M184 1703h45q0 -100 81 -100q80 0 83 100h50q0 -100 83 -100q81 0 82 100h48q0 -61 -35 -105q-38 -47 -97 -47q-46 0 -110 57q-46 -57 -110 -57q-57 0 -91 49q-29 44 -29 103zM247 1114l-27 48l315 175l27 -54zM247 1258l-27 47l315 174l27 -52z" />
    <glyph glyph-name="_1" 
 />
    <glyph glyph-name="NULL" 
 />
    <glyph glyph-name="glyph218" horiz-adv-x="1" 
d="M470 432l-80 2v287h78z" />
  </font>
</defs>
</svg>
