<?xml version="1.0" standalone="no"?>
<!DOCTYPE svg PUBLIC "-//W3C//DTD SVG 1.1//EN" "http://www.w3.org/Graphics/SVG/1.1/DTD/svg11.dtd" >
<svg xmlns="http://www.w3.org/2000/svg" xmlns:xlink="http://www.w3.org/1999/xlink" version="1.1">
<metadata>
Created by FontForge 20170731 at Wed Feb  5 23:27:58 2020
 By Aleksey,,,
Copyright (c) 2020, ParsMizban Co.
</metadata>
<defs>
<font id="Yekan-Regular" horiz-adv-x="0" >
  <font-face 
    font-family="Yekan"
    font-weight="400"
    font-stretch="normal"
    units-per-em="1000"
    panose-1="0 0 4 0 0 0 0 0 0 0"
    ascent="800"
    descent="-200"
    x-height="545"
    cap-height="727"
    bbox="-141 -510 1140 1008"
    underline-thickness="49"
    underline-position="-609"
    unicode-range="U+000D-FEFC"
  />
<missing-glyph horiz-adv-x="500" 
d="M437 664v-664h-375v664h375zM375 602h-250v-540h250v540z" />
    <glyph glyph-name="uE818" unicode="&#x651;&#x64b;" 
d="M36 744h22q0 -49 40 -49q39 0 40 49h25q0 -49 40 -49t40 49h24q0 -29 -17 -52q-20 -23 -48 -23q-23 0 -54 28q-22 -28 -53 -28q-29 0 -45 24q-14 23 -14 51zM235 884l-153 -82l-14 23l154 84zM236 941l-154 -84l-14 24l154 85z" />
    <glyph glyph-name="uFC5E" unicode="&#x651;&#x64c;" arabic-form="isolated" 
d="M51 740h22q0 -49 40 -49q39 0 40 49h25q0 -49 40 -49t40 49h24q0 -29 -17 -51q-20 -23 -48 -23q-22 0 -53 28q-22 -28 -54 -28q-28 0 -45 24q-14 22 -14 50zM77 875l-10 18q25 9 41 9q28 0 36 -38l37 22q-38 23 -38 56q0 44 42 60q15 6 18 6q27 0 46 -18t19 -44
q0 -45 -24 -57l-139 -74l-13 23q24 17 31 26q0 17 -22 17q-15 0 -24 -6zM165 942q0 -38 41 -38q12 0 26 14q13 14 13 28q0 16 -12.5 27.5t-29.5 11.5q-38 0 -38 -43z" />
    <glyph glyph-name="uFC5F" unicode="&#x651;&#x64d;" arabic-form="isolated" 
d="M46 950h22q0 -49 39 -49q40 0 41 49h24q0 -49 41 -49q39 0 40 49h23q0 -29 -17 -51q-18 -23 -47 -23q-23 0 -54 28q-22 -28 -54 -28q-28 0 -44 24q-14 22 -14 50zM230 745l-153 -82l-14 23l154 85zM230 815l-153 -82l-14 23l154 85z" />
    <glyph glyph-name="uFC60" unicode="&#x651;&#x64e;" arabic-form="isolated" 
d="M46 724h22q0 -49 39 -49q40 0 41 49h24q0 -49 41 -49q39 0 40 49h23q0 -29 -17 -52q-18 -23 -47 -23q-23 0 -54 28q-22 -28 -54 -28q-28 0 -44 24q-14 23 -14 51zM236 857l-154 -82l-14 23l154 86z" />
    <glyph glyph-name="uFC61" unicode="&#x651;&#x64f;" arabic-form="isolated" 
d="M56 729h22q0 -49 40 -49q39 0 40 49h25q0 -49 40 -49t40 49h24q0 -29 -17 -51q-20 -23 -48 -23q-23 0 -54 28q-22 -28 -53 -28q-29 0 -45 24q-14 22 -14 50zM218 855l-111 -59l-14 23l62 35q-38 21 -38 55q0 44 44 61q12 5 16 5q27 0 46 -18q19 -19 19 -45q0 -44 -24 -57
zM139 909q0 -38 42 -38q11 0 25 14q13 14 13 28q0 15 -13 26.5t-29 11.5q-38 0 -38 -42z" />
    <glyph glyph-name="uFC62" unicode="&#x651;&#x650;" arabic-form="isolated" 
d="M41 874h22q0 -49 40 -49q39 0 40 49h24q0 -49 41 -49q40 0 40 49h23q0 -29 -17 -52q-18 -23 -47 -23q-23 0 -54 28q-22 -28 -53 -28q-28 0 -45 24q-14 23 -14 51zM233 749l-153 -82l-14 23l154 85z" />
    <glyph glyph-name="uFDF2" unicode="&#xfedf;&#xfee0;&#xfeea;" horiz-adv-x="1100" arabic-form="isolated" 
d="M18 158q0 76 102 178l-25 28l59 60l263 -280q33 -34 45 -42q24 -15 112 -15q42 0 56 23q9 16 9 63v390h88v-408q0 -48 29 -59q21 -8 135 -8q40 0 52 21q7 11 7 64v390h87v-429q0 -63 -38 -99q-38 -35 -103 -35h-84q-87 0 -128 34q-33 -27 -57 -31q-17 -3 -106 -3
q-59 0 -84 15q-12 7 -91 81q-49 -106 -161 -106q-73 0 -120 47q-47 49 -47 121zM105 152q0 -33 23 -56q22 -21 58 -21q34 0 59 22t25 55q0 31 -17 48l-70 71q-42 -40 -52 -52q-26 -34 -26 -67zM569 691h22q0 -49 39 -49q40 0 41 49h24q0 -49 41 -49q40 0 40 49h24
q0 -29 -17 -51q-18 -23 -48 -23q-23 0 -54 28q-22 -28 -51 -28q-56 0 -61 74z" />
    <glyph glyph-name="uFEF5" unicode="&#xfedf;&#xfe82;" horiz-adv-x="515" arabic-form="isolated" 
d="M-28 601l-80 31q32 69 57 88q30 24 115 30q30 2 125 2q12 0 114 -2v-86h-220q-19 0 -51 -4q-18 -1 -30 -10t-30 -49zM63 134v429h88v-390q0 -55 15 -70t68 -15h78q38 0 51 21q8 13 8 64v390h86v-429q0 -63 -39 -99q-38 -35 -101 -35h-83q-171 0 -171 134z" />
    <glyph glyph-name="uFEF6" unicode="&#xfee0;&#xfe82;" horiz-adv-x="515" arabic-form="final" 
d="M-61 633l-80 32q33 68 58 87q28 24 115 30q30 2 125 2q45 0 114 -1v-87h-220q-20 0 -51 -4q-23 -3 -31 -10q-11 -11 -30 -49zM39 134v429h86v-390q0 -59 16 -75q10 -10 69 -10h75q37 0 51 21q8 13 8 64v390h88v-399q0 -76 97 -76v-88q-77 0 -120 58q-43 -58 -118 -58h-81
q-171 0 -171 134z" />
    <glyph glyph-name="uFEF7" unicode="&#xfedf;&#xfe84;" horiz-adv-x="515" arabic-form="isolated" 
d="M169 693l-120 -61l-9 20l41 23q-37 18 -37 54q0 24 17 41q16 18 41 18q13 0 33 -10l-8 -17q-11 6 -26 6q-35 0 -35 -40q0 -33 33 -33q26 0 60 20zM63 134v429h88v-390q0 -55 15 -70t68 -15h78q38 0 51 21q8 13 8 64v390h86v-429q0 -63 -39 -99q-38 -35 -101 -35h-83
q-171 0 -171 134z" />
    <glyph glyph-name="uFEF8" unicode="&#xfee0;&#xfe84;" horiz-adv-x="515" arabic-form="final" 
d="M152 689l-121 -60l-10 19l41 24q-36 18 -36 54q0 24 17 41t41 17q12 0 34 -9l-9 -18q-10 7 -26 7q-35 0 -35 -40q0 -34 34 -34q25 0 59 21zM39 134v429h86v-390q0 -59 16 -75q10 -10 69 -10h75q37 0 51 21q8 13 8 64v390h88v-399q0 -76 97 -76v-88q-77 0 -120 58
q-43 -58 -118 -58h-81q-171 0 -171 134z" />
    <glyph glyph-name="uFEF9" unicode="&#xfedf;&#xfe88;" horiz-adv-x="515" arabic-form="isolated" 
d="M63 134v429h88v-390q0 -55 15 -70t68 -15h78q38 0 51 21q8 13 8 64v390h86v-429q0 -63 -39 -99q-38 -35 -101 -35h-83q-171 0 -171 134zM216 -161l-120 -61l-10 20l41 23q-36 19 -36 54q0 25 16 41q19 17 41 17q11 0 34 -9l-8 -18q-10 7 -27 7q-34 0 -34 -40
q0 -33 33 -33q25 0 60 20z" />
    <glyph glyph-name="uFEFA" unicode="&#xfee0;&#xfe88;" horiz-adv-x="515" arabic-form="final" 
d="M39 134v429h86v-390q0 -59 16 -75q10 -10 69 -10h75q37 0 51 21q8 13 8 64v390h88v-399q0 -76 97 -76v-88q-77 0 -120 58q-43 -58 -118 -58h-81q-171 0 -171 134zM180 -158l-120 -60l-10 19l41 24q-36 19 -36 53q0 23 17 42q17 17 41 17q12 0 33 -9l-8 -18q-10 7 -27 7
q-34 0 -34 -41q0 -32 33 -32q25 0 59 20z" />
    <glyph glyph-name="uFEFB" unicode="&#xfedf;&#xfe8e;" horiz-adv-x="515" arabic-form="isolated" 
d="M63 134v429h88v-390q0 -55 15 -70t68 -15h78q38 0 51 21q8 13 8 64v390h86v-429q0 -63 -39 -99q-38 -35 -101 -35h-83q-171 0 -171 134z" />
    <glyph glyph-name="uFEFC" unicode="&#xfee0;&#xfe8e;" horiz-adv-x="515" arabic-form="final" 
d="M39 134v429h86v-390q0 -59 16 -75q10 -10 69 -10h75q37 0 51 21q8 13 8 64v390h88v-399q0 -76 97 -76v-88q-77 0 -120 58q-43 -58 -118 -58h-81q-171 0 -171 134z" />
    <glyph glyph-name="u0652_u064E.liga" unicode="&#x652;&#x64e;" 
d="M83 660l1 -141l-39 1v140h38z" />
    <glyph glyph-name="u0652_u064B.liga" unicode="&#x652;&#x64b;" 
d="M-1 517q0 49 56 49q61 0 61 -49q0 -22 -16.5 -37t-39.5 -15t-42 14q-19 13 -19 38zM167 517q0 49 56 49q61 0 61 -49q0 -22 -16 -37t-39 -15q-25 0 -42 14q-20 14 -20 38z" />
    <glyph glyph-name="u0652_u064D.liga" unicode="&#x652;&#x64d;" 
d="M141 -311q0 49 56 49q61 0 61 -49q0 -22 -16 -37t-40 -15q-25 0 -42 13q-19 15 -19 39zM310 -311q0 49 55 49q61 0 61 -49q0 -22 -16 -37t-39 -15q-26 0 -42 13q-19 15 -19 39z" />
    <glyph glyph-name="u0643.001" unicode="&#x6a9;" horiz-adv-x="784" arabic-form="isolated" 
d="M36 143v133h88v-121q0 -37 14 -52t50 -15h421q47 0 47 41q0 17 -14 33l-230 237l-13 101l321 115l11 -88l-231 -90l206 -217q43 -44 43 -101q0 -55 -42 -88q-38 -31 -94 -31h-452q-57 0 -92 44q-33 42 -33 99z" />
    <glyph glyph-name="u064A.001" unicode="&#x6cc;" horiz-adv-x="629" arabic-form="isolated" 
d="M39 4v182h82v-191q0 -59 43 -96q41 -35 100 -35h113q53 0 93 33q44 36 44 86q0 43 -60 58q-15 3 -22 3h-122v151q0 66 44 112q42 44 111 44h106l3 -82h-105q-47 0 -66 -42q-9 -26 -10 -101q103 0 138 -12q67 -25 67 -110q0 -128 -93 -190q-55 -36 -122 -36h-136
q-91 0 -151 69q-57 64 -57 157z" />
    <glyph glyph-name="uFB57" unicode="&#x67e;" horiz-adv-x="836" arabic-form="final" 
d="M40 143v133h87v-121q0 -37 15 -52t51 -15h409q37 0 51 14.5t14 52.5v121h89v-121q0 -67 97 -67v-88q-106 0 -140 34q-44 -34 -85 -34h-463q-55 0 -91 45q-34 40 -34 98zM271 -153q0 23 15.5 38.5t38.5 15.5q62 0 62 -54q0 -46 -59 -46q-57 0 -57 46zM351 -277
q0 23 15.5 38t39.5 15q27 0 43 -13q19 -16 19 -40q0 -48 -56 -48q-61 0 -61 48zM439 -153q0 23 15.5 38.5t38.5 15.5q63 0 63 -54q0 -46 -60 -46q-57 0 -57 46z" />
    <glyph glyph-name="uFB58" unicode="&#x67e;" horiz-adv-x="343" arabic-form="initial" 
d="M178 0h-188v88h161q36 0 50 14.5t14 52.5v121h88v-133q0 -57 -33 -99q-36 -44 -92 -44zM6 -153q0 23 16 38.5t40 15.5q62 0 62 -54q0 -47 -57 -47q-61 0 -61 47zM87 -277q0 53 55 53q26 0 43 -13q20 -15 20 -40q0 -48 -57 -48q-61 0 -61 48zM175 -153q0 23 16 38.5
t39 15.5q62 0 62 -54q0 -47 -56 -47q-61 0 -61 47z" />
    <glyph glyph-name="uFB59" unicode="&#x67e;" horiz-adv-x="361" arabic-form="medial" 
d="M170 0h-189v88h163q36 0 50.5 15t14.5 52v121h88v-121q0 -43 20 -57q16 -10 63 -10v-88q-49 -1 -81 4q-23 10 -45 30q-41 -34 -84 -34zM-9 -153q0 23 16 38.5t40 15.5q62 0 62 -54q0 -47 -56 -47q-62 0 -62 47zM72 -277q0 53 55 53q26 0 43 -13q20 -15 20 -40
q0 -48 -56 -48q-62 0 -62 48zM160 -153q0 23 16 38.5t39 15.5q63 0 63 -54q0 -47 -57 -47q-61 0 -61 47z" />
    <glyph glyph-name="uFB7B" unicode="&#x686;" horiz-adv-x="539" arabic-form="final" 
d="M30 -148q0 144 129 215l269 148q-37 57 -194 54l-110 -4h12l-11 86h211q184 0 184 -181l-80 -45q11 -27 56 -35q22 -2 70 -2v-88q-78 1 -107 18q-38 21 -44 44q-6 15 -12 41l-172 -95q-117 -66 -117 -163q0 -72 55 -127t127 -55h256l8 -87h-241q-123 0 -205 76
q-84 76 -84 200zM207 -109q0 24 15.5 39t39.5 15t43 -14q20 -15 20 -40q0 -46 -60 -46q-58 0 -58 46zM286 -233q0 53 55 53q26 0 43 -13q19 -15 19 -40q0 -48 -55 -48q-62 0 -62 48zM376 -109q0 24 16 39t40 15t43 -14q19 -15 19 -40q0 -46 -59 -46t-59 46z" />
    <glyph glyph-name="uFB7C" unicode="&#x686;" horiz-adv-x="503" arabic-form="initial" 
d="M-21 0v88q171 0 241 33l63 33l108 60q-16 35 -57 46q-16 4 -78 4l-153 1l-13 86h217q179 0 179 -181l-201 -115q-73 -41 -148 -50q-42 -5 -158 -5zM48 -153q0 23 15.5 38.5t39.5 15.5q26 0 43 -14q20 -15 20 -40q0 -46 -61 -46q-57 0 -57 46zM127 -277q0 53 56 53
q26 0 43 -13q20 -17 20 -40q0 -48 -56 -48q-63 0 -63 48zM216 -153q0 23 16 38.5t39 15.5q62 0 62 -54q0 -46 -59 -46q-58 0 -58 46z" />
    <glyph glyph-name="uFB7D" unicode="&#x686;" horiz-adv-x="503" arabic-form="medial" 
d="M-21 0v88q169 0 241 33q20 9 171 93q-16 35 -57 46q-15 4 -78 4l-153 1l-13 86h217q179 0 179 -181l-81 -45q0 -37 112 -37v-88q-124 3 -137 58q-3 10 -11 45q-129 -76 -184 -89q-53 -14 -206 -14zM59 -153q0 22 16 37q16 16 39 16q62 0 62 -53q0 -47 -57 -47
q-60 0 -60 47zM139 -277q0 52 56 52q61 0 61 -52q0 -48 -56 -48q-61 0 -61 48zM227 -153q0 22 16 37q16 16 39 16q27 0 44.5 -14.5t17.5 -38.5q0 -47 -56 -47q-61 0 -61 47z" />
    <glyph glyph-name="uFB8B" unicode="&#x698;" horiz-adv-x="447" arabic-form="final" 
d="M146 -222h-114l-14 88h121q54 0 96 36q43 37 43 93v281h88v-127q0 -61 96 -61v-88q-68 0 -94 42q0 -111 -55 -184q-60 -80 -167 -80zM163 393q0 47 56 47q61 0 61 -47q0 -24 -16 -39t-40 -15q-25 0 -43 15t-18 39zM246 517q0 47 56 47q61 0 61 -47q0 -23 -16 -38.5
t-40 -15.5q-26 0 -43 16q-18 15 -18 38zM332 393q0 47 55 47q62 0 62 -47q0 -36 -34.5 -49.5t-63.5 10.5q-19 15 -19 39z" />
    <glyph glyph-name="uFB93" unicode="&#x6af;" horiz-adv-x="859" arabic-form="final" 
d="M31 143v133h88v-121q0 -38 14 -52.5t51 -14.5h429q44 0 44 33q0 17 -21 38l-230 240l-15 99l324 117l12 -88l-229 -86l244 -271q0 -1 62 -63q18 -18 72 -19v-88q-100 0 -146 63q-22 -63 -113 -63h-461q-56 0 -92 44q-33 40 -33 99zM693 665l-306 -111l-4 33l308 111z" />
    <glyph glyph-name="uFB94" unicode="&#x6af;" horiz-adv-x="418" arabic-form="initial" 
d="M236 0h-257v88h257q50 0 50 33q0 19 -16 35l-234 243l-16 99l324 117l12 -88l-231 -88l226 -250q24 -27 24 -72q0 -57 -43 -88q-40 -29 -96 -29zM322 665l-307 -111l-4 33l309 111z" />
    <glyph glyph-name="uFB95" unicode="&#x6af;" horiz-adv-x="503" arabic-form="medial" 
d="M250 0h-262v88h263q45 0 45 33q0 17 -21 38l-230 240l-14 99l323 117l14 -88l-235 -88l245 -269q23 -24 78 -73q21 -11 59 -9v-88q-109 0 -154 70q-30 -70 -111 -70zM332 665l-307 -111l-4 33l309 111z" />
    <glyph glyph-name="u0629.001" unicode="&#x6c0;" horiz-adv-x="395" arabic-form="isolated" 
d="M34 161q0 75 100 175l-25 28l59 60l161 -166q41 -44 41 -109q0 -68 -52 -114q-50 -45 -120 -45q-72 0 -118 49t-46 122zM228 534l-148 -75l-13 24l51 27q-44 24 -44 64q0 34 19 54q19 22 51 22q12 0 42 -11l-11 -23q-16 8 -27 8q-48 0 -48 -50q0 -39 37 -39q32 0 78 25z
M119 152q0 -33 26 -56q25 -21 60 -21t56 22q22 22 22 57q0 26 -14 42l-71 75q-79 -75 -79 -119z" />
    <glyph glyph-name="Hcircumflex" unicode="&#x622;" horiz-adv-x="281" arabic-form="final" 
d="M23 551l-81 31q31 67 55 86q38 29 110 30q66 2 179 2h68v-86h-220l-51 -5q-21 -1 -30 -9q-11 -10 -30 -49zM108 134v416h88v-377q0 -61 19 -74q17 -11 80 -11v-88q-90 0 -130 22q-57 31 -57 112z" />
    <glyph glyph-name="uFE84" unicode="&#x623;" horiz-adv-x="229" arabic-form="final" 
d="M168 675l-120 -61l-9 20l41 23q-37 19 -37 54q0 24 17 41q17 18 41 18q13 0 33 -10l-8 -17q-10 6 -26 6q-35 0 -35 -40q0 -33 33 -33q26 0 60 20zM62 134v416h87v-377q0 -61 21 -75q14 -9 79 -10v-88q-113 0 -157 43q-30 29 -30 91z" />
    <glyph glyph-name="uFE86" unicode="&#x624;" horiz-adv-x="436" arabic-form="final" 
d="M163 -222h-114l-10 88h110q61 0 103 36q45 39 45 98q-109 0 -158 28q-69 38 -69 137q0 91 31 134q36 52 123 52q108 0 144 -85q23 -54 23 -178h58v-88h-58q0 -98 -65 -160t-163 -62zM236 435l-148 -76l-12 25l50 28q-43 24 -43 64q0 32 19.5 53.5t50.5 21.5q9 0 42 -11
l-11 -23q-14 8 -25 8q-21 0 -35 -14t-14 -35q0 -40 38 -40q30 0 77 25zM161 174q0 -60 44 -77q23 -9 95 -9v83q0 55 -29 76q-23 17 -43 17q-67 0 -67 -90z" />
    <glyph glyph-name="uFE88" unicode="&#x625;" horiz-adv-x="229" arabic-form="final" 
d="M62 134v416h87v-377q0 -61 21 -75q14 -9 79 -10v-88q-113 0 -157 43q-30 29 -30 91zM212 -179l-121 -61l-9 20l41 23q-37 18 -37 54q0 22 17 41q17 18 41 18q13 0 34 -10l-9 -17q-11 6 -26 6q-35 0 -35 -40q0 -33 34 -33q25 0 59 20z" />
    <glyph glyph-name="uFE8A" unicode="&#x626;" horiz-adv-x="629" arabic-form="final" 
d="M21 31v157h88v-191q0 -61 44 -99q41 -32 105 -32h113q47 0 76 25q33 27 33 73q0 22 -26 28q-29 7 -157 8l-7 88h354v-88h-82q4 -15 4 -43q0 -78 -57 -129q-56 -50 -135 -50h-135q-107 0 -165 76q-53 68 -53 177zM220 381l-149 -74l-12 24l51 28q-45 24 -45 63q0 30 20 53
t51 23q17 0 42 -11l-11 -23q-14 8 -26 8q-21 0 -35 -14.5t-14 -35.5q0 -39 39 -39q27 0 76 25z" />
    <glyph glyph-name="uFE8B" unicode="&#x626;" horiz-adv-x="297" arabic-form="initial" 
d="M126 0h-144v88q136 0 154 5q30 11 30 79q0 21 -1 52q-1 15 -1 52h90v-133q0 -56 -35 -99q-38 -44 -93 -44zM218 377l-148 -74l-12 24l50 27q-45 25 -45 65q0 30 20 53q21 22 51 22q11 0 42 -11l-11 -24q-11 10 -26 10q-49 0 -49 -50q0 -39 39 -39q29 0 76 25z" />
    <glyph glyph-name="uFE8C" unicode="&#x626;" horiz-adv-x="343" arabic-form="medial" 
d="M149 0h-159v88q40 0 60 -1h46q56 -2 73 17t17 75v89q0 9 -1 10v-2h90v-121q0 -44 19 -56q14 -9 61 -11v-88h-14q-46 0 -59 4q-20 5 -50 30q-43 -34 -83 -34zM215 381l-148 -75l-12 24l50 28q-44 23 -44 63q0 31 20 54t51 23q10 0 42 -12l-11 -23q-14 8 -26 8
q-21 0 -35 -14.5t-14 -35.5q0 -40 38 -40q27 0 77 26z" />
    <glyph glyph-name="uFE8E" unicode="&#x627;" horiz-adv-x="229" arabic-form="final" 
d="M62 134v416h87v-377q0 -61 21 -75q14 -9 79 -10v-88q-113 0 -157 43q-30 29 -30 91z" />
    <glyph glyph-name="uFE90" unicode="&#x628;" horiz-adv-x="836" arabic-form="final" 
d="M40 143v133h87v-121q0 -37 15 -52t51 -15h409q37 0 51 14.5t14 52.5v121h89v-121q0 -67 97 -67v-88q-106 0 -140 34q-44 -34 -85 -34h-463q-55 0 -91 45q-34 40 -34 98zM331 -163q0 53 63 53q64 0 64 -53q0 -27 -18 -43q-18 -18 -43 -18q-66 0 -66 61z" />
    <glyph glyph-name="uFE91" unicode="&#x628;" horiz-adv-x="286" arabic-form="initial" 
d="M126 0h-144v88q136 0 154 5q30 11 30 79q0 21 -1 52q-1 15 -1 52h90v-133q0 -56 -35 -99q-38 -44 -93 -44zM24 -164q0 53 63 53t63 -53q0 -26 -18 -43q-16 -18 -43 -18q-65 0 -65 61z" />
    <glyph glyph-name="uFE92" unicode="&#x628;" horiz-adv-x="343" arabic-form="medial" 
d="M136 0h-145v88q137 0 154 6q29 11 29 79q0 18 -0.5 50.5t-0.5 52.5h90v-121q0 -43 29 -57q21 -9 69 -10v-88h-28q-76 0 -113 34q-43 -34 -84 -34zM26 -159q0 52 63 52q64 0 64 -52q0 -26 -17.5 -43.5t-43.5 -17.5q-66 0 -66 61z" />
    <glyph glyph-name="uFE94" unicode="&#x629;" horiz-adv-x="503" arabic-form="final" 
d="M18 158q0 76 102 178l-25 28l59 60l263 -280q36 -37 44 -42q20 -13 60 -14v-88q-59 0 -84 15q-12 7 -91 81q-49 -106 -161 -106q-73 0 -120 47q-47 49 -47 121zM220 558l-149 -75l-12 24l51 28q-45 24 -45 63q0 30 20 53q19 22 51 22q20 0 42 -9l-11 -24q-16 8 -26 8
q-20 0 -34.5 -14.5t-14.5 -35.5q0 -39 39 -39q29 0 76 25zM105 152q0 -33 23 -56q22 -21 58 -21q34 0 59 22t25 55q0 31 -17 48l-70 71q-42 -40 -52 -52q-26 -34 -26 -67z" />
    <glyph glyph-name="uFE96" unicode="&#x62a;" horiz-adv-x="836" arabic-form="final" 
d="M40 143v133h87v-121q0 -37 15 -52t51 -15h409q37 0 51 14.5t14 52.5v121h89v-121q0 -67 97 -67v-88q-106 0 -140 34q-44 -34 -85 -34h-463q-55 0 -91 45q-34 40 -34 98zM256 422q0 49 57 49q61 0 61 -49q0 -21 -16.5 -36t-38.5 -15q-63 0 -63 51zM425 422q0 49 58 49
q60 0 60 -49q0 -22 -16 -36.5t-39 -14.5q-63 0 -63 51z" />
    <glyph glyph-name="uFE97" unicode="&#x62a;" horiz-adv-x="332" arabic-form="initial" 
d="M170 0h-188v88h161q36 0 50.5 15t14.5 52v121h88v-133q0 -58 -34 -99q-35 -44 -92 -44zM60 418q0 48 57 48q61 0 61 -48q0 -21 -17 -38q-15 -15 -39 -15q-26 0 -43 13q-19 16 -19 40zM229 418q0 48 56 48q61 0 61 -48q0 -22 -16 -38q-16 -15 -39 -15q-27 0 -43 13
q-19 16 -19 40z" />
    <glyph glyph-name="uFE98" unicode="&#x62a;" horiz-adv-x="361" arabic-form="medial" 
d="M170 0h-189v88h163q36 0 50.5 15t14.5 52v121h88v-121q0 -43 20 -57q16 -10 63 -10v-88q-49 -1 -81 4q-23 10 -45 30q-41 -34 -84 -34zM69 421q0 49 56 49q61 0 61 -49q0 -22 -16 -37t-39 -15q-62 0 -62 52zM237 421q0 49 56 49q61 0 61 -49q0 -22 -16 -37t-39 -15
q-62 0 -62 52z" />
    <glyph glyph-name="uFE9A" unicode="&#x62b;" horiz-adv-x="836" arabic-form="final" 
d="M40 143v133h87v-121q0 -37 15 -52t51 -15h409q37 0 51 14.5t14 52.5v121h89v-121q0 -67 97 -67v-88q-106 0 -140 34q-44 -34 -85 -34h-463q-55 0 -91 45q-34 40 -34 98zM254 391q0 48 56 48q61 0 61 -48q0 -23 -17 -38q-16 -16 -39 -16t-42 15t-19 39zM336 515
q0 48 57 48q61 0 61 -48q0 -23 -16 -38t-40 -15q-62 0 -62 53zM422 391q0 48 57 48q61 0 61 -48q0 -23 -17 -38q-16 -16 -40 -16t-42 15q-19 15 -19 39z" />
    <glyph glyph-name="uFE9B" unicode="&#x62b;" horiz-adv-x="332" arabic-form="initial" 
d="M170 0h-188v88h161q36 0 50.5 15t14.5 52v121h88v-133q0 -58 -34 -99q-35 -44 -92 -44zM57 391q0 48 57 48q61 0 61 -48q0 -22 -17 -39q-16 -16 -39 -16t-43 15q-19 15 -19 40zM139 515q0 48 57 48q62 0 62 -48q0 -23 -16 -38.5t-40 -15.5t-43 14q-20 15 -20 40zM225 391
q0 48 57 48q62 0 62 -48q0 -22 -17 -39q-16 -16 -39 -16q-25 0 -43 15q-20 15 -20 40z" />
    <glyph glyph-name="uFE9C" unicode="&#x62b;" horiz-adv-x="361" arabic-form="medial" 
d="M170 0h-189v88h163q36 0 50.5 15t14.5 52v121h88v-121q0 -43 20 -57q16 -10 63 -10v-88q-49 -1 -81 4q-23 10 -45 30q-41 -34 -84 -34zM91 391q0 48 57 48q61 0 61 -48q0 -22 -17 -39q-16 -16 -39 -16t-43 15q-19 15 -19 40zM173 515q0 48 57 48q62 0 62 -48
q0 -23 -16 -38.5t-40 -15.5t-43 14q-20 15 -20 40zM259 391q0 48 57 48q62 0 62 -48q0 -22 -17 -39q-16 -16 -39 -16q-25 0 -43 15q-20 15 -20 40z" />
    <glyph glyph-name="uFE9E" unicode="&#x62c;" horiz-adv-x="539" arabic-form="final" 
d="M24 -148q0 144 129 215l269 148q-37 57 -193 54l-111 -4h12l-11 86h212q184 0 184 -181l-80 -45q11 -28 55 -35q22 -2 71 -2v-88q-82 2 -107 18q-37 21 -45 44l-12 41l-172 -95q-117 -66 -117 -163q0 -71 56 -127q55 -55 127 -55h256l7 -87h-240q-124 0 -206 76
q-84 76 -84 200zM274 -162q0 54 63 54q65 0 65 -51q0 -26 -18 -44q-20 -18 -43 -18q-29 0 -47 15q-20 18 -20 44z" />
    <glyph glyph-name="uFE9F" unicode="&#x62c;" horiz-adv-x="503" arabic-form="initial" 
d="M-21 0v88q171 0 241 33l63 33l108 60q-16 35 -57 46q-16 4 -78 4l-153 1l-13 86h217q179 0 179 -181l-201 -115q-73 -41 -148 -50q-42 -5 -158 -5zM43 -159q0 55 64 55q63 0 63 -54q0 -24 -17 -43q-17 -18 -43 -18q-28 0 -47 15q-20 17 -20 45z" />
    <glyph glyph-name="uFEA0" unicode="&#x62c;" horiz-adv-x="503" arabic-form="medial" 
d="M-21 0v88q169 0 241 33q20 9 171 93q-16 35 -57 46q-15 4 -78 4l-153 1l-13 86h217q179 0 179 -181l-81 -45q0 -37 112 -37v-88q-124 3 -137 58q-3 10 -11 45q-129 -76 -184 -89q-53 -14 -206 -14zM126 -165q0 54 64 54q63 0 63 -52q0 -25 -17.5 -43.5t-42.5 -18.5
q-28 0 -47 16q-20 17 -20 44z" />
    <glyph glyph-name="uFEA2" unicode="&#x62d;" horiz-adv-x="539" arabic-form="final" 
d="M25 -153v19l2 19q17 122 127 182l271 148q-20 35 -59 44q-18 2 -77 5l-157 1l-12 86h212q181 0 184 -181l-80 -45q4 -37 126 -37v-88q-132 0 -152 62q0 1 -2.5 8t-5.5 16.5t-4 16.5l-171 -95q-118 -64 -118 -163q0 -71 56 -127q55 -55 127 -55h256l8 -87h-242
q-138 0 -224 99q-65 77 -65 172z" />
    <glyph glyph-name="uFEA3" unicode="&#x62d;" horiz-adv-x="503" arabic-form="initial" 
d="M-21 0v88h70q99 0 180 37q31 16 162 89q-13 33 -60 45q-12 3 -228 6l-13 86h217q178 0 179 -181l-201 -115q-70 -39 -148 -49q-32 -5 -158 -6z" />
    <glyph glyph-name="uFEA4" unicode="&#x62d;" horiz-adv-x="503" arabic-form="medial" 
d="M-21 0v88h70q96 0 180 37q20 9 162 89q-15 34 -60 45q-11 3 -54 4h-27q-13 1 -64 1q-29 1 -83 1l-13 86h217q176 0 179 -183l-81 -43q0 -37 112 -37v-88q-122 0 -137 58l-6 24l-5 21q-122 -72 -184 -88q-52 -13 -206 -15z" />
    <glyph glyph-name="uFEA6" unicode="&#x62e;" horiz-adv-x="539" arabic-form="final" 
d="M24 -148q0 144 129 215l269 148q-37 57 -193 54l-111 -4h12l-11 86h212q184 0 184 -181l-80 -45q11 -28 55 -35q22 -2 71 -2v-88q-82 2 -107 18q-37 21 -45 44l-12 41l-172 -95q-117 -66 -117 -163q0 -71 56 -127q55 -55 127 -55h256l7 -87h-240q-124 0 -206 76
q-84 76 -84 200zM233 510q0 53 64 53t64 -53q0 -26 -18 -44q-17 -17 -43 -17q-67 0 -67 61z" />
    <glyph glyph-name="uFEA7" unicode="&#x62e;" horiz-adv-x="503" arabic-form="initial" 
d="M-21 0v88q171 0 241 33l63 33l108 60q-16 35 -57 46q-16 4 -78 4l-153 1l-13 86h217q179 0 179 -181l-201 -115q-73 -41 -148 -50q-42 -5 -158 -5zM189 508q0 53 64 53t64 -53q0 -25 -18 -43t-43 -18q-67 0 -67 61z" />
    <glyph glyph-name="uFEA8" unicode="&#x62e;" horiz-adv-x="503" arabic-form="medial" 
d="M-21 0v88q169 0 241 33q20 9 171 93q-16 35 -57 46q-15 4 -78 4l-153 1l-13 86h217q179 0 179 -181l-81 -45q0 -37 112 -37v-88q-124 3 -137 58q-3 10 -11 45q-129 -76 -184 -89q-53 -14 -206 -14zM170 522q0 52 63 52q64 0 64 -52q0 -24 -17 -43q-18 -18 -44 -18
q-28 0 -47 17t-19 44z" />
    <glyph glyph-name="uFEAA" unicode="&#x62f;" horiz-adv-x="572" arabic-form="final" 
d="M330 0h-272l-13 88h280q48 0 48 33q0 19 -14 33l-197 210l59 60l264 -280q36 -37 48 -44q21 -12 65 -12v-88h-40q-50 0 -111 61q-40 -61 -117 -61z" />
    <glyph glyph-name="uFEAC" unicode="&#x630;" horiz-adv-x="572" arabic-form="final" 
d="M330 0h-274l-12 88h280q48 0 48 33q0 20 -13 33l-198 210l59 60l264 -280q33 -35 48 -43q22 -13 66 -13v-88h-41q-50 0 -110 61q-26 -37 -50 -48q-23 -13 -67 -13zM104 525q0 54 64 54t64 -54q0 -25 -18 -42q-18 -18 -43 -18q-67 0 -67 60z" />
    <glyph glyph-name="uFEAE" unicode="&#x631;" horiz-adv-x="447" arabic-form="final" 
d="M146 -222h-114l-14 88h121q56 0 97 35q42 38 42 94v281h88v-127q0 -59 96 -61v-88q-66 0 -94 42q0 -111 -55 -184q-60 -80 -167 -80z" />
    <glyph glyph-name="uFEB0" unicode="&#x632;" horiz-adv-x="447" arabic-form="final" 
d="M146 -222h-114l-14 88h121q54 0 96 36q43 37 43 93v281h88v-127q0 -61 96 -61v-88q-68 0 -94 42q0 -111 -55 -184q-60 -80 -167 -80zM235 510q0 52 64 52t64 -52q0 -25 -17 -44q-19 -17 -44 -17q-67 0 -67 61z" />
    <glyph glyph-name="uFEB2" unicode="&#x633;" horiz-adv-x="1122" arabic-form="final" 
d="M22 5v183h88v-187q0 -59 39 -97q41 -38 101 -38h114q63 0 101 37q40 37 40 98v275h88v-130q0 -32 22 -51q22 -20 53 -20q59 0 59 55v146h88v-130q0 -31 22 -50q23 -21 53 -21q60 0 60 55v146h87v-135q0 -30 32 -45q13 -5 71 -8v-88q-50 0 -69 6q-33 9 -53 41
q-39 -56 -109 -56q-66 0 -117 60q-47 -62 -111 -62q-47 0 -88 37q0 -103 -56 -173q-61 -75 -162 -75h-136q-94 0 -157 67q-60 65 -60 160z" />
    <glyph glyph-name="uFEB3" unicode="&#x633;" horiz-adv-x="710" arabic-form="initial" 
d="M92 0h-112v88h106q61 0 61 65v123h86v-130q0 -31 23 -51t54 -20q60 0 60 55v146h86v-130q0 -30 22 -51q23 -20 53 -20q62 0 62 55v146h86v-135q0 -65 -30 -105q-33 -46 -97 -46q-62 0 -118 59q-51 -58 -107 -58q-60 0 -120 70q-52 -61 -115 -61z" />
    <glyph glyph-name="uFEB4" unicode="&#x633;" horiz-adv-x="762" arabic-form="medial" 
d="M-24 0v88h73q49 0 68 12q25 16 25 64v112h86v-130q0 -32 21.5 -51.5t53.5 -19.5q60 0 60 55v146h87v-130q0 -30 23 -51q22 -20 52 -20q61 0 61 55v146h87v-135q0 -31 32 -45q7 -3 71 -8v-88q-50 0 -68 6q-36 11 -52 41q-41 -57 -102 -57t-120 58q-52 -58 -128 -58
q-71 0 -118 62q-28 -37 -98 -48q-28 -4 -114 -4z" />
    <glyph glyph-name="uFEB6" unicode="&#x634;" horiz-adv-x="1122" arabic-form="final" 
d="M19 5v183h88v-187q0 -61 39 -98q38 -37 101 -37h114q59 0 100 38t41 97v275h88v-130q0 -32 21 -51q22 -20 51 -20q62 0 62 55v146h88v-130q0 -32 21 -51q22 -20 54 -20q60 0 60 55v146h87v-135q0 -53 103 -53v-88h-32q-61 0 -92 48q-39 -56 -109 -56q-68 0 -115 60
q-47 -62 -110 -62q-49 0 -89 36q-1 -103 -57 -172q-61 -76 -161 -76h-136q-95 0 -156 67q-61 65 -61 160zM618 388q0 49 57 49q61 0 61 -49q0 -20 -17 -37q-17 -15 -38 -15q-27 0 -43 13q-20 15 -20 39zM703 513q0 48 59 48q22 0 40 -12q20 -14 20 -33q0 -23 -17 -40
t-39 -17q-27 0 -44 14q-19 15 -19 40zM788 388q0 49 57 49q61 0 61 -49q0 -22 -16 -37q-17 -15 -40 -15q-26 0 -43 13q-19 15 -19 39z" />
    <glyph glyph-name="uFEB7" unicode="&#x634;" horiz-adv-x="710" arabic-form="initial" 
d="M92 0h-112v88h106q61 0 61 64v123l86 1v-130q0 -32 22 -51q22 -20 53 -20q62 0 62 55v146h86v-130q0 -32 22 -51q23 -20 53 -20q62 0 62 55v146h86v-135q0 -63 -30 -104q-31 -46 -93 -46q-70 0 -121 60q-51 -59 -107 -59q-65 0 -120 70q-60 -62 -116 -62zM255 391
q0 46 57 46q60 0 60 -46q0 -22 -17 -39q-16 -16 -39 -16q-25 0 -43 15.5t-18 39.5zM337 515q0 47 57 47q62 0 62 -47q0 -23 -16.5 -38.5t-40.5 -15.5t-42 15q-20 15 -20 39zM424 391q0 46 55 46q63 0 63 -46q0 -24 -16.5 -39.5t-40.5 -15.5q-26 0 -43 16q-18 15 -18 39z" />
    <glyph glyph-name="uFEB8" unicode="&#x634;" horiz-adv-x="762" arabic-form="medial" 
d="M-24 0v88h80q44 0 61 11q25 18 25 65v112h86v-130q0 -33 22 -52q20 -19 53 -19q60 0 60 55v146h87v-130q0 -32 22 -51q23 -20 53 -20q61 0 61 55v146h87v-135q0 -53 103 -53v-88h-34l-32 5q-35 8 -56 43q-40 -57 -100 -57q-62 0 -122 60q-52 -60 -125 -60q-72 0 -119 62
q-34 -37 -99 -48q-32 -5 -113 -5zM232 416q0 47 57 47q61 0 61 -47q0 -22 -16.5 -38t-39.5 -16t-43 14q-19 16 -19 40zM317 540q0 47 59 47q21 0 40 -11q20 -14 20 -34q0 -23 -16 -39.5t-40 -16.5t-44 14q-19 15 -19 40zM402 416q0 47 56 47q62 0 62 -47q0 -23 -16.5 -38.5
t-39.5 -15.5q-25 0 -44 14q-18 15 -18 40z" />
    <glyph glyph-name="uFEBA" unicode="&#x635;" horiz-adv-x="1100" arabic-form="final" 
d="M30 15v173h85v-193q0 -55 40 -92t94 -37h123q50 0 93 39q44 39 44 90v281h89v-130q0 -56 83 -58q105 264 242 264q90 0 136 -88q20 -40 20 -100q0 -34 -13 -76h49v-88h-399q-99 0 -118 46q0 -116 -51 -187q-59 -81 -170 -81h-135q-98 0 -157 71q-55 67 -55 166zM771 88
h169q49 0 49 88q0 87 -52 87q-78 0 -166 -175z" />
    <glyph glyph-name="uFEBB" unicode="&#x635;" horiz-adv-x="756" arabic-form="initial" 
d="M87 0h-107v88h98q62 0 62 65v123h87v-113q0 -74 85 -75q102 263 242 263q31 0 69 -20q85 -48 85 -161q0 -36 -12 -77q-16 -59 -51 -78q-29 -15 -91 -15h-223q-90 0 -125 71q-53 -71 -119 -71zM398 88h172q50 0 50 85q0 59 -27 81q-11 9 -27 9q-77 0 -168 -175z" />
    <glyph glyph-name="uFEBC" unicode="&#x635;" horiz-adv-x="762" arabic-form="medial" 
d="M87 0h-107v88h98q62 0 62 65v123h87v-113q0 -74 85 -75q102 263 242 263q35 0 70 -20q84 -49 84 -161q0 -34 -14 -82h82v-88h-445q-90 0 -125 71q-53 -71 -119 -71zM398 88h172q50 0 50 85q0 59 -27 81q-11 9 -27 9q-77 0 -168 -175z" />
    <glyph glyph-name="uFEBE" unicode="&#x636;" horiz-adv-x="1100" arabic-form="final" 
d="M29 15v173h85v-193q0 -54 40 -91q41 -38 93 -38h124q50 0 93 40q44 41 44 89v281h88v-130q0 -58 84 -58q110 264 242 264q34 0 71 -21q84 -48 84 -163q0 -42 -13 -80h51v-88h-400q-104 0 -117 46q-3 -117 -52 -187q-58 -81 -170 -81h-135q-96 0 -156 72q-56 68 -56 165z
M771 88h168q49 0 49 85q0 90 -53 90q-42 0 -98 -68q-41 -52 -66 -107zM782 507q0 53 64 53t64 -53q0 -25 -18 -43q-20 -17 -43 -17q-67 0 -67 60z" />
    <glyph glyph-name="uFEBF" unicode="&#x636;" horiz-adv-x="756" arabic-form="initial" 
d="M86 0h-106v88h98q62 0 62 64v123l87 1v-113q0 -75 85 -75q110 263 244 263q33 0 68 -20q84 -51 84 -160q0 -37 -12 -78q-16 -59 -51 -78q-29 -15 -91 -15h-223q-87 0 -126 71q-53 -71 -119 -71zM373 520q0 52 63 52q64 0 64 -52q0 -26 -19 -44q-18 -18 -43 -18
q-65 0 -65 62zM398 88h171q49 0 49 82q0 93 -52 93q-44 0 -99 -67q-42 -50 -69 -108z" />
    <glyph glyph-name="uFEC0" unicode="&#x636;" horiz-adv-x="762" arabic-form="medial" 
d="M86 0h-106v88h98q62 0 62 64v123l87 1v-113q0 -75 85 -75q110 263 244 263q34 0 68 -20q82 -51 82 -161q0 -43 -13 -82h83v-88h-445q-87 0 -126 71q-53 -71 -119 -71zM374 521q0 53 63 53q65 0 65 -53q0 -25 -18.5 -42.5t-43.5 -17.5q-66 0 -66 60zM398 88h171
q49 0 49 82q0 93 -52 93q-44 0 -99 -67q-42 -50 -69 -108z" />
    <glyph glyph-name="uFEC2" unicode="&#x637;" horiz-adv-x="509" arabic-form="final" 
d="M518 0h-481l-17 88h75v475h86v-313q83 101 152 101q27 0 65 -20q85 -48 85 -179q0 -30 -12 -64h47v-88zM175 88h169q22 0 39 27q12 19 12 65q0 83 -53 83q-43 0 -99 -68q-39 -48 -68 -107z" />
    <glyph glyph-name="uFEC3" unicode="&#x637;" horiz-adv-x="481" arabic-form="initial" 
d="M307 0h-325v88h76v475h88v-313q82 100 150 100t112 -60q40 -53 40 -126q0 -72 -34 -115q-37 -49 -107 -49zM136 87h171q51 0 51 80q0 95 -55 95q-42 0 -99 -67q-44 -53 -68 -108z" />
    <glyph glyph-name="uFEC4" unicode="&#x637;" horiz-adv-x="463" arabic-form="medial" 
d="M472 88v-88h-496v88h64v475h85v-313q84 101 153 101q27 0 65 -20q82 -46 82 -165q0 -45 -11 -78h58zM120 88h170q22 0 38 27q12 19 12 65q0 83 -53 83q-43 0 -99 -68q-38 -45 -68 -107z" />
    <glyph glyph-name="uFEC6" unicode="&#x638;" horiz-adv-x="509" arabic-form="final" 
d="M518 0h-482l-16 88h75v475h86v-313q81 101 151 101q30 0 65 -20q86 -50 86 -148q0 -59 -13 -95h48v-88zM174 88h169q51 0 51 87q0 88 -53 88q-44 0 -99 -67q-46 -54 -68 -108zM278 514q0 52 63 52q64 0 64 -52q0 -25 -18 -43q-19 -18 -43 -18q-66 0 -66 61z" />
    <glyph glyph-name="uFEC7" unicode="&#x638;" horiz-adv-x="481" arabic-form="initial" 
d="M307 0h-325v88h76v475h88v-313q82 100 150 100t112 -60q40 -53 40 -126q0 -72 -34 -115q-37 -49 -107 -49zM136 87h171q51 0 51 80q0 95 -55 95q-42 0 -99 -67q-44 -53 -68 -108zM236 506q0 52 63 52q64 0 64 -52q0 -25 -17 -44q-18 -18 -44 -18q-66 0 -66 62z" />
    <glyph glyph-name="uFEC8" unicode="&#x638;" horiz-adv-x="463" arabic-form="medial" 
d="M472 88v-88h-497l1 88h64v475h85v-313q81 101 152 101q31 0 65 -20q83 -53 83 -147q0 -57 -12 -96h59zM119 88h169q51 0 51 87q0 88 -53 88q-44 0 -99 -67q-44 -53 -68 -108zM240 521q0 52 63 52q65 0 65 -52q0 -25 -18 -43q-18 -19 -43 -19q-67 0 -67 62z" />
    <glyph glyph-name="uFECA" unicode="&#x639;" horiz-adv-x="544" arabic-form="final" 
d="M25 -148q0 174 230 273l-116 115l59 111h187q91 0 116 -64q8 -21 8 -33q0 -56 -31 -91q-23 -28 -81 -59q38 -16 166 -16v-88q-91 0 -129 7q-74 13 -114 58q-211 -88 -211 -223q0 -66 59 -127q53 -52 119 -52h256l9 -87h-242q-116 0 -201 80q-84 80 -84 196zM377 266h-138
l97 -102q84 46 84 76q0 13 -16 20q-14 6 -27 6z" />
    <glyph glyph-name="uFECB" unicode="&#x639;" horiz-adv-x="441" arabic-form="initial" 
d="M408 88l14 -88h-442v88h125q-27 63 -27 113q0 48 29 89q29 38 77 52q31 9 73 9q70 0 135 -65l-43 -68q-71 53 -118 53q-69 0 -69 -85q0 -36 17 -65q19 -33 54 -33h175z" />
    <glyph glyph-name="uFECC" unicode="&#x639;" horiz-adv-x="406" arabic-form="medial" 
d="M-21 0v88q122 0 154 32l-122 120l59 111h189q91 0 115 -63q7 -20 7 -34q0 -53 -29 -88q-19 -21 -76 -58q54 -20 144 -20v-88q-82 0 -115 9q-42 10 -99 55q-56 -46 -110 -59q-16 -4 -117 -5zM246 266h-141l97 -101q84 43 84 74q0 13 -15 20q-11 7 -25 7z" />
    <glyph glyph-name="uFECE" unicode="&#x63a;" horiz-adv-x="544" arabic-form="final" 
d="M25 -151q0 184 230 276l-116 115l59 111h187q95 0 117 -64q7 -18 7 -33q0 -17 -4 -44q-8 -48 -107 -106q41 -16 166 -16l-1 -88l-79 2q-111 4 -165 63q-211 -94 -211 -223q0 -69 55 -124t123 -55h257l9 -87h-242q-118 0 -201 77q-84 79 -84 196zM377 266h-138l97 -101
q84 43 84 76l-4 11q-17 14 -39 14zM281 510q0 52 65 52q63 0 63 -52q0 -25 -17 -44q-19 -17 -43 -17q-68 0 -68 61z" />
    <glyph glyph-name="uFECF" unicode="&#x63a;" horiz-adv-x="441" arabic-form="initial" 
d="M408 88l14 -88h-442v88h125q-28 56 -28 108q0 70 45 113q44 43 115 43q85 0 155 -66l-43 -68q-74 53 -117 53q-70 0 -70 -83q0 -40 16 -66q19 -34 55 -34h175zM165 508q0 53 64 53q63 0 63 -53q0 -25 -18 -43t-43 -18q-66 0 -66 61z" />
    <glyph glyph-name="uFED0" unicode="&#x63a;" horiz-adv-x="406" arabic-form="medial" 
d="M30 0h-52l1 88q123 1 154 32q-89 89 -122 120q35 62 59 111h189q93 0 117 -63q8 -22 8 -34q0 -11 -4 -44q-6 -45 -103 -102q57 -20 143 -20v-88q-72 0 -113 9q-50 12 -102 55q-71 -58 -135 -63q-11 -1 -40 -1zM246 266h-141l97 -101q84 43 84 74l-5 13q-5 14 -35 14z
M119 521q0 53 62 53q65 0 65 -53q0 -25 -18 -42q-20 -18 -43 -18q-66 0 -66 60z" />
    <glyph glyph-name="uFED2" unicode="&#x641;" horiz-adv-x="790" arabic-form="final" 
d="M36 143v133h89v-121q0 -67 64 -67h305q-50 56 -50 120t48 105q46 38 111 38q68 0 108 -49q38 -46 38 -114q0 -53 -32 -100h85v-88q-154 0 -189 20q-12 -19 -167 -19q-52 0 -147 -1h-146q-53 0 -87 46q-30 42 -30 97zM527 200q0 -51 89 -93q53 33 53 81q0 32 -21.5 55
t-52.5 23q-26 0 -48 -20q-20 -20 -20 -46zM536 515q0 51 64 51t64 -51q0 -26 -18 -44t-43 -18q-67 0 -67 62z" />
    <glyph glyph-name="uFED3" unicode="&#x641;" horiz-adv-x="447" arabic-form="initial" 
d="M249 0h-264v88h265q48 0 48 65q-74 2 -155 9q-73 27 -73 119q0 66 40 103q40 40 104 40q53 0 96 -28q70 -44 75 -147l6 -110q3 -57 -42 -99q-43 -40 -100 -40zM152 287q0 -37 22 -46q9 -4 55 -4l63 -1q-3 97 -82 97q-58 0 -58 -46zM153 536q0 52 62 52q65 0 65 -52
q0 -25 -19 -43q-18 -18 -43 -18q-65 0 -65 61z" />
    <glyph glyph-name="uFED4" unicode="&#x641;" horiz-adv-x="418" arabic-form="medial" 
d="M-31 0v88h130q-48 54 -48 116q0 69 45 108q44 39 113 39q66 0 106 -46q40 -43 40 -111q0 -60 -31 -106h117v-88q-1 0 -51 2l-87 2q-48 2 -84 19q-41 -23 -250 -23zM133 199q0 -54 89 -92q53 39 53 81q0 30 -22 53q-20 24 -49.5 25t-49.5 -19q-21 -19 -21 -48zM146 508
q0 53 62 53q63 0 63 -53q0 -25 -18 -43q-16 -18 -43 -18q-64 0 -64 61z" />
    <glyph glyph-name="uFED6" unicode="&#x642;" horiz-adv-x="659" arabic-form="final" 
d="M34 4v184h88v-193q0 -50 51 -92q43 -35 89 -35h114q56 0 96 38t44 94q-127 0 -160 12q-78 29 -78 127q0 65 49 102q44 35 110 35q77 0 124 -56q43 -52 45 -132h70v-88h-72q0 -92 -66 -157q-65 -65 -157 -65h-137q-88 0 -150 69q-60 67 -60 157zM277 377q0 48 57 48
q61 0 61 -48q0 -23 -16 -37.5t-40 -14.5q-62 0 -62 52zM364 142q0 -35 30 -47q15 -7 124 -7q0 41 -26 70q-25 28 -67 28q-61 0 -61 -44zM447 377q0 48 56 48q61 0 61 -48q0 -22 -16 -37t-39 -15q-62 0 -62 52z" />
    <glyph glyph-name="uFED7" unicode="&#x642;" horiz-adv-x="447" arabic-form="initial" 
d="M249 0h-264v88h265q48 0 48 65q-74 2 -155 9q-73 27 -73 119q0 66 40 103q40 40 104 40q53 0 96 -28q70 -44 75 -147l6 -110q3 -57 -42 -99q-43 -40 -100 -40zM73 518q0 48 56 48q60 0 60 -48q0 -22 -16 -37t-39 -15q-61 0 -61 52zM152 287q0 -37 22 -46q9 -4 55 -4
l63 -1q-3 97 -82 97q-58 0 -58 -46zM241 518q0 48 56 48q61 0 61 -48q0 -22 -16 -37t-40 -15q-61 0 -61 52z" />
    <glyph glyph-name="uFED8" unicode="&#x642;" horiz-adv-x="418" arabic-form="medial" 
d="M-31 0v88h130q-48 54 -48 116q0 69 45 108q44 39 113 39q66 0 106 -46q40 -43 40 -111q0 -60 -31 -106h117v-88q-1 0 -51 2l-87 2q-48 2 -84 19q-41 -23 -250 -23zM53 520q0 48 56 48q61 0 61 -48q0 -23 -16 -37.5t-40 -14.5q-61 0 -61 52zM133 199q0 -54 89 -92
q53 39 53 81q0 30 -22 53q-20 24 -49.5 25t-49.5 -19q-21 -19 -21 -48zM221 520q0 48 56 48q60 0 60 -48q0 -23 -15.5 -37.5t-38.5 -14.5q-62 0 -62 52z" />
    <glyph glyph-name="uFEDA" unicode="&#x643;" horiz-adv-x="859" arabic-form="final" 
d="M37 143v133h88v-121q0 -37 14.5 -52t50.5 -15h430q44 0 44 32q0 17 -22 39l-228 240l-17 99l325 117l12 -88l-229 -86l244 -271l63 -63q18 -18 70 -19v-88q-98 0 -145 63q-24 -63 -113 -63h-461q-56 0 -92 44q-34 41 -34 99z" />
    <glyph glyph-name="uFEDB" unicode="&#x643;" horiz-adv-x="412" arabic-form="initial" 
d="M258 0h-275v88h275q34 0 34 41q0 19 -11 30l-228 240l-14 99l322 117l13 -88l-228 -86l181 -201q18 -21 48 -70q17 -26 17 -50q0 -120 -134 -120z" />
    <glyph glyph-name="uFEDC" unicode="&#x643;" horiz-adv-x="493" arabic-form="medial" 
d="M240 0h-261v88h262q35 0 35 45q0 16 -10 26l-229 240l-16 99l323 117l12 -88l-229 -86l243 -268q41 -45 65 -61q35 -23 85 -24v-88q-113 0 -159 64q-25 -64 -121 -64z" />
    <glyph glyph-name="uFEDE" unicode="&#x644;" horiz-adv-x="687" arabic-form="final" 
d="M39 4v184h86v-193q0 -57 42 -94q41 -35 99 -35h114q56 0 97 35q41 38 41 94v568h88v-414q0 -61 100 -61v-88q-70 0 -99 42q0 -111 -54 -184q-62 -80 -168 -80h-135q-90 0 -152 69q-59 67 -59 157z" />
    <glyph glyph-name="uFEDF" unicode="&#x644;" horiz-adv-x="252" arabic-form="initial" 
d="M49 0h-67v88l60 -1q42 3 54 22q7 10 7 64v390h86v-429q0 -63 -38 -99q-38 -35 -102 -35z" />
    <glyph glyph-name="uFEE0" unicode="&#x644;" horiz-adv-x="292" arabic-form="medial" 
d="M-17 0v88q24 -1 63 -1q42 0 56 23q9 15 9 63v390h88v-408q0 -48 29 -59q16 -7 82 -8v-88h-26q-87 0 -128 34q-33 -27 -57 -31q-17 -3 -116 -3z" />
    <glyph glyph-name="uFEE2" unicode="&#x645;" horiz-adv-x="602" arabic-form="final" 
d="M122 -222h-86v389q0 87 43 134q47 50 130 50h178q141 0 141 -205q0 -57 97 -58v-88q-54 0 -77 10q-28 12 -55 54q-27 -69 -112 -69q-71 0 -116 45q-45 46 -45 118v107q-39 0 -68 -23q-30 -24 -30 -64v-400zM305 265v-123q0 -29 22 -45q20 -14 48 -14q67 0 67 79
q0 66 -14 82q-18 20 -123 21z" />
    <glyph glyph-name="uFEE3" unicode="&#x645;" horiz-adv-x="412" arabic-form="initial" 
d="M-19 0v88q75 0 87 15q4 4 6 67q4 181 157 181q74 0 115 -59q35 -50 35 -127q0 -75 -37 -124q-41 -53 -115 -53q-55 0 -99 33q-43 -19 -149 -21zM152 167q0 -92 77 -92q76 0 76 95t-76 95q-77 0 -77 -98z" />
    <glyph glyph-name="uFEE4" unicode="&#x645;" horiz-adv-x="441" arabic-form="medial" 
d="M-23 0v88q73 0 86 15q7 7 7 67q0 81 37 128q42 53 120 53q71 0 112 -57q36 -48 38 -124q1 -23 1 -36q3 -33 24 -40q9 -5 52 -6v-88q-42 0 -63 8q-25 10 -45 43q-38 -63 -121 -63q-31 0 -65 18q-34 20 -50 45q-10 -51 -133 -51zM146 167q0 -92 78 -92q74 0 74 97
q0 93 -74 93q-78 0 -78 -98z" />
    <glyph glyph-name="uFEE6" unicode="&#x646;" horiz-adv-x="665" arabic-form="final" 
d="M37 4v184h87v-193q0 -57 43 -94q41 -35 98 -35h113q58 0 98 36q41 35 41 93v281h88v-127q0 -59 98 -61v-88q-71 0 -97 42q0 -111 -54 -184q-60 -80 -168 -80h-135q-91 0 -152 69q-60 67 -60 157zM232 296q0 53 64 53q63 0 63 -53q0 -25 -18 -43q-17 -17 -43 -17
q-66 0 -66 60z" />
    <glyph glyph-name="uFEE7" unicode="&#x646;" horiz-adv-x="286" arabic-form="initial" 
d="M126 0h-144v88q136 0 154 5q30 11 30 79q0 21 -1 52q-1 15 -1 52h90v-133q0 -56 -35 -99q-38 -44 -93 -44zM40 414q0 52 63 52q64 0 64 -52q0 -26 -18 -44q-17 -18 -43 -18q-66 0 -66 62z" />
    <glyph glyph-name="uFEE8" unicode="&#x646;" horiz-adv-x="343" arabic-form="medial" 
d="M124 0h-145v88q137 0 153 6q30 10 30 78q0 20 -0.5 52t-0.5 52h89v-121q0 -66 109 -67v-88h-29q-84 0 -122 34q-43 -34 -84 -34zM40 414q0 52 63 52q64 0 64 -52q0 -26 -18 -44q-17 -18 -43 -18q-66 0 -66 62z" />
    <glyph glyph-name="uFEEA" unicode="&#x647;" horiz-adv-x="503" arabic-form="final" 
d="M18 158q0 76 102 178l-25 28l59 60l263 -280q36 -37 44 -42q20 -13 60 -14v-88q-59 0 -84 15q-12 7 -91 81q-49 -106 -161 -106q-73 0 -120 47q-47 49 -47 121zM105 152q0 -33 23 -56q22 -21 58 -21q34 0 59 22t25 55q0 31 -17 48l-70 71q-42 -40 -52 -52
q-26 -34 -26 -67z" />
    <glyph glyph-name="uFEEB" unicode="&#x647;" horiz-adv-x="572" arabic-form="initial" 
d="M83 1l-98 -1v88h122q-48 64 -48 121q0 63 40 103t103 40q55 0 105 -47l-57 59l65 60q219 -208 219 -307q0 -58 -44 -105q-43 -46 -100 -46q-71 0 -181 65q-55 -29 -126 -30zM141 209q0 -59 70 -84q57 24 57 78q0 30 -22 49t-53 19q-24 0 -38 -20q-14 -19 -14 -42zM298 86
q50 -30 86 -30q57 0 57 55q0 54 -116 170q27 -30 27 -83q0 -84 -54 -112z" />
    <glyph glyph-name="uFEEC" unicode="&#x647;" horiz-adv-x="390" arabic-form="medial" 
d="M59 -96l-10 96h-75v88h71q-6 93 -6 98q0 164 164 164q66 0 106 -37q42 -37 42 -103q0 -74 -59 -122h114v-88h-111q64 -45 64 -129q0 -102 -129 -102q-158 0 -171 135zM126 157v-9q1 -9 1.5 -26.5t1.5 -33.5q55 0 96 33q44 35 44 90q0 58 -59 58q-84 0 -84 -112zM131 7
q0 -163 89 -163q66 0 66 54q0 50 -54 82q-46 27 -101 27z" />
    <glyph glyph-name="uFEEE" unicode="&#x648;" horiz-adv-x="436" arabic-form="final" 
d="M164 -222h-113l-12 88h110q62 0 104 36q42 35 44 98q-109 0 -160 30q-67 39 -67 140q0 110 54 155q31 26 104 26q106 0 140 -87q20 -51 23 -176h58v-88h-58q0 -97 -65 -159q-64 -63 -162 -63zM161 168q0 -56 46 -71q25 -9 93 -9v83q0 37 -17 63q-19 30 -55 30
q-42 0 -57 -28q-10 -20 -10 -68z" />
    <glyph glyph-name="uFEF0" unicode="&#x649;" horiz-adv-x="629" arabic-form="final" 
d="M21 31v157h88v-191q0 -61 44 -99q41 -32 105 -32h113q48 0 77 25q32 27 32 73q0 28 -81 35q-9 1 -102 1l-7 88h354v-88h-82l4 -43q0 -77 -58 -129q-56 -50 -134 -50h-135q-104 0 -164 76q-54 70 -54 177z" />
    <glyph glyph-name="uFEF2" unicode="&#x64a;" horiz-adv-x="629" arabic-form="final" 
d="M21 31v157h88v-191q0 -61 44 -99q41 -32 105 -32h113q48 0 77 25q32 27 32 73q0 28 -81 35q-9 1 -102 1l-7 88h354v-88h-82l4 -43q0 -77 -58 -129q-56 -50 -134 -50h-135q-104 0 -164 76q-54 70 -54 177z" />
    <glyph glyph-name="uFEF3" unicode="&#x64a;" horiz-adv-x="332" arabic-form="initial" 
d="M170 0h-188v88h161q36 0 50.5 15t14.5 52v121h88v-133q0 -58 -34 -99q-35 -44 -92 -44zM-4 -168q0 48 55 48q61 0 61 -48q0 -22 -16 -37t-39 -15q-26 0 -42 13q-19 15 -19 39zM164 -168q0 48 56 48q61 0 61 -48q0 -22 -16 -37t-40 -15q-25 0 -42 13q-19 15 -19 39z" />
    <glyph glyph-name="uFEF4" unicode="&#x64a;" horiz-adv-x="361" arabic-form="medial" 
d="M170 0h-190v88h163q36 0 50.5 15t14.5 52v121h88v-121q0 -43 20 -57q16 -10 62 -10v-88q-48 -1 -80 4q-20 8 -45 30q-40 -34 -83 -34zM15 -167q0 48 56 48q61 0 61 -48q0 -22 -16 -37t-39 -15q-26 0 -42 13q-20 15 -20 39zM184 -167q0 48 56 48q60 0 60 -48
q0 -22 -16 -37t-38 -15q-27 0 -43 13q-19 15 -19 39z" />
    <glyph glyph-name=".notdef" horiz-adv-x="500" 
d="M437 664v-664h-375v664h375zM375 602h-250v-540h250v540z" />
    <glyph glyph-name=".null" 
 />
    <glyph glyph-name="uni000D" unicode="&#xd;" horiz-adv-x="229" 
 />
    <glyph glyph-name="space" unicode=" " horiz-adv-x="229" 
 />
    <glyph glyph-name="exclam" unicode="!" horiz-adv-x="229" 
d="M53 59q0 53 66 53q62 0 62 -53q0 -59 -67 -59q-61 0 -61 59zM140 170h-47l-20 201v192h86v-192q0 -6 -6 -67z" />
    <glyph glyph-name="percent" unicode="%" horiz-adv-x="718" 
d="M33 324q0 54 43 94q44 41 98 41q52 0 96 -42q44 -44 44 -96q0 -53 -46 -93q-46 -38 -99 -38q-55 0 -95 40q-41 41 -41 94zM92 319q0 -31 27 -52q25 -20 56 -20t54 23t23 54q0 30 -26 53t-57 23q-32 0 -54 -25q-23 -25 -23 -56zM551 454l-315 -573h-85l312 573h88z
M546 164q55 0 97 -43q41 -44 41 -99q0 -53 -45 -92q-41 -37 -97 -37q-52 0 -95 39q-44 41 -44 92q0 54 45 97q44 43 98 43zM463 22q0 -37 37 -59q22 -14 46 -14q30 0 54 24q24 25 24 54q0 30 -25 54q-25 23 -53 23q-33 0 -58 -25t-25 -57z" />
    <glyph glyph-name="parenleft" unicode="(" horiz-adv-x="312" 
d="M241 -5q1 -10 -4 -14.5t-16 -4.5q-15 0 -49 31q-101 98 -101 240q0 120 101 230q35 38 49 38q11 1 16 -4.5t4 -15.5q-11 -17 -33 -69q-29 -71 -31 -181q0 -111 31 -183q27 -58 33 -67z" />
    <glyph glyph-name="parenright" unicode=")" horiz-adv-x="311" 
d="M70 -5l34 67q31 71 31 183q0 110 -31 181q-25 53 -34 69q-1 10 4.5 15.5t16.5 4.5q13 0 49 -38q46 -50 71 -107q30 -64 30 -123q0 -142 -101 -240q-34 -31 -49 -31q-11 0 -16.5 4.5t-4.5 14.5z" />
    <glyph glyph-name="asterisk" unicode="*" horiz-adv-x="332" 
d="M151 100l-115 -66l-13 19l116 66l-116 67l13 21l115 -65v132h22v-132l114 66l11 -20l-114 -67l114 -66l-10 -19l-115 64v-133h-22v133zM151 100l-12 19l12 23h22l11 -21l-11 -21h-22z" />
    <glyph glyph-name="plus" unicode="+" horiz-adv-x="623" 
d="M271 -110v227h-227v86h227v226h83v-226h228v-86h-228v-227h-83z" />
    <glyph glyph-name="comma" unicode="," horiz-adv-x="129" 
d="M2 17q0 53 66 53q40 0 54 -21q9 -13 9 -57q0 -80 -12 -111q-21 -53 -87 -61v32q39 3 52 37q8 18 9 67q-91 0 -91 61z" />
    <glyph glyph-name="hyphen" unicode="-" horiz-adv-x="561" 
d="M525 203v-86h-479v86h479z" />
    <glyph glyph-name="period" unicode="." horiz-adv-x="275" 
d="M74 47q0 55 67 55q62 0 62 -55q0 -58 -67 -58q-62 0 -62 58z" />
    <glyph glyph-name="slash" unicode="/" horiz-adv-x="474" 
d="M441 454l-316 -573h-84l313 573h87z" />
    <glyph glyph-name="zero" unicode="0" horiz-adv-x="545" 
d="M505 364q0 -196 -56.5 -288t-175.5 -92t-175.5 93.5t-56.5 285.5q0 196 56.5 287.5t175.5 91.5t175.5 -93.5t56.5 -284.5zM380 142q26 62 26 222q0 159 -26 221q-30 76 -107 76q-79 0 -107 -77q-26 -61 -26 -221q0 -156 25 -219q29 -79 108 -79q77 0 107 77z" />
    <glyph glyph-name="one" unicode="1" horiz-adv-x="545" 
d="M464 75v-75h-354v75h132v487h-132v66q78 0 111.5 21.5t38.5 79.5h76v-654h128z" />
    <glyph glyph-name="two" unicode="2" horiz-adv-x="545" 
d="M502 83v-83h-448v102q108 103 174 175q83 91 114 146q30 55 30 114q0 61 -36 91q-33 29 -89 29q-49 0 -103 -22q-39 -17 -70 -40h-6v103q30 16 84 30q58 14 102 14q102 0 160 -53.5t58 -146.5q0 -81 -38 -146q-27 -49 -97 -124q-55 -58 -103 -104l-89 -85h357z" />
    <glyph glyph-name="three" unicode="3" horiz-adv-x="545" 
d="M249 657q-56 0 -103 -22q-36 -15 -72 -40h-7v102q35 18 86 31q58 14 104 14q94 0 153 -41q66 -47 66 -134q0 -61 -40 -105q-40 -45 -95 -58v-7q60 -10 97 -47q51 -46 51 -135q0 -101 -65 -163q-63 -68 -177 -68q-112 0 -200 46v103h8q30 -24 81 -44q54 -20 104 -20
q72 0 110 41q40 41 40 113q0 73 -44 104q-35 27 -109 27h-42v81h33q67 0 107.5 31.5t40.5 89.5q0 52 -38 79q-31 22 -89 22z" />
    <glyph glyph-name="four" unicode="4" horiz-adv-x="545" 
d="M521 328v-78h-86v-250h-94v250h-322v103l326 374h90v-399h86zM95 328h246v285z" />
    <glyph glyph-name="five" unicode="5" horiz-adv-x="545" 
d="M494 232q0 -106 -64 -176q-67 -72 -179 -72q-106 0 -190 42v103h6q25 -18 79 -38q63 -22 107 -22q66 0 104 45q38 44 38 118q0 72 -41 104q-40 34 -121 34q-63 0 -143 -17v374h399v-85h-304v-194q31 4 66 4q58 0 96 -9.5t72 -36.5q75 -55 75 -174z" />
    <glyph glyph-name="six" unicode="6" horiz-adv-x="545" 
d="M514 235q0 -117 -70 -181q-64 -70 -162 -70t-160 67q-80 80 -80 268q0 192 79 305q85 117 246 117q41 0 83 -10v-94h-5q-28 19 -91 19q-92 0 -147 -61.5t-65 -180.5q70 50 151 50t141 -42q80 -60 80 -187zM414 232q0 86 -49 127q-33 26 -93 26q-64 0 -130 -40
q-2 -32 -2 -47q0 -138 52 -192q38 -42 91 -42q60 0 95.5 43t35.5 125z" />
    <glyph glyph-name="seven" unicode="7" horiz-adv-x="545" 
d="M510 727v-109l-315 -618h-104l333 642h-376v85h462z" />
    <glyph glyph-name="eight" unicode="8" horiz-adv-x="545" 
d="M396 557q0 50 -33.5 82.5t-89.5 32.5q-55 0 -88 -29.5t-33 -79.5q0 -65 69 -106q20 -11 45 -23q37 -16 58 -22q72 56 72 145zM410 194q0 45 -17.5 71t-67.5 53q-6 3 -107 46q-83 -54 -83 -156q0 -66 39 -109q40 -43 99 -43q63 0 100 37t37 101zM273 -17q-107 0 -175 62
q-62 64 -62 156q0 60 32 109t91 78v3q-55 33 -80 70t-25 91q0 83 62 137q61 55 157 55q100 0 159 -52q60 -53 60 -134q0 -50 -29.5 -97.5t-81.5 -73.5v-2q65 -32 97 -75t32 -107q0 -94 -68 -157t-169 -63z" />
    <glyph glyph-name="nine" unicode="9" horiz-adv-x="545" 
d="M406 428q0 138 -52 193q-36 41 -90 41q-62 0 -97 -43.5t-35 -123.5q0 -88 50 -128q30 -24 91 -24q70 0 132 40q0 3 0.5 18.5t0.5 26.5zM33 491q0 112 68 183q30 32 73.5 50t89.5 18q101 0 161 -66q79 -82 79 -269q0 -198 -80 -305q-85 -117 -246 -117q-47 0 -83 12v92h6
q38 -19 91 -19q95 0 149.5 62.5t62.5 179.5q-74 -50 -151 -50q-84 0 -141 44q-79 56 -79 185z" />
    <glyph glyph-name="colon" unicode=":" horiz-adv-x="275" 
d="M78 265q0 54 68 54q62 0 62 -54q0 -58 -66 -58q-64 0 -64 58zM80 59q0 53 68 53q61 0 61 -53q0 -59 -67 -59q-27 0 -44.5 16.5t-17.5 42.5z" />
    <glyph glyph-name="less" unicode="&#x3c;" horiz-adv-x="456" 
d="M115 174l307 -176v-88l-388 227v76l388 227v-87z" />
    <glyph glyph-name="equal" unicode="=" horiz-adv-x="598" 
d="M542 86v-86h-483v86h483zM542 269v-86h-483v86h483z" />
    <glyph glyph-name="greater" unicode="&#x3e;" horiz-adv-x="456" 
d="M33 353l1 87l389 -227l-1 -76l-389 -227l1 88l307 178z" />
    <glyph glyph-name="A" unicode="A" horiz-adv-x="600" 
d="M159 203l-66 -203h-97l244 727h119l245 -727h-101l-66 203h-278zM297 628l-111 -342h224z" />
    <glyph glyph-name="B" unicode="B" horiz-adv-x="589" 
d="M567 223q0 -103 -76 -164q-41 -32 -88 -45q-48 -14 -121 -14h-208v727h193q71 0 116 -5q40 -5 74 -24q76 -42 76 -136q0 -102 -102 -155v-3q65 -18 100.5 -65t35.5 -116zM432 549q0 57 -36 76q-26 16 -54 17q-28 3 -78 3h-94v-213h110q48 0 67 4q21 4 45 20q40 27 40 93z
M466 219q0 40 -11 68q-12 27 -48 45q-21 13 -50 16q-25 3 -77 3h-110v-268h79q58 0 100 5q39 8 65 26q52 36 52 105z" />
    <glyph glyph-name="C" unicode="C" horiz-adv-x="601" 
d="M358 -14q-146 0 -234 96q-92 100 -92 281q0 174 91 277q90 100 236 100q67 0 128 -19q45 -13 96 -42v-117h-7q-45 41 -81 61q-61 34 -137 34q-98 0 -160 -74q-65 -80 -65 -220t67 -220q62 -73 158 -73q76 0 141 36q42 23 77 59h7v-116l-36 -18q-18 -9 -60 -23
q-32 -11 -58 -16q-29 -6 -71 -6z" />
    <glyph glyph-name="D" unicode="D" horiz-adv-x="678" 
d="M647 363q0 -100 -40 -180q-40 -78 -109 -125q-57 -35 -112 -47q-58 -11 -145 -11h-167v727h165q104 0 161 -16q58 -15 99 -42q148 -97 148 -306zM546 365q0 169 -109 235q-41 24 -83 33q-46 11 -109 11h-75v-561h75q132 0 200 48q101 71 101 234z" />
    <glyph glyph-name="E" unicode="E" horiz-adv-x="561" 
d="M528 86v-86h-454v727h454v-86h-358v-199h333v-86h-333v-270h358z" />
    <glyph glyph-name="F" unicode="F" horiz-adv-x="522" 
d="M74 727h435v-86h-339v-204h325v-87h-325v-350h-96v727z" />
    <glyph glyph-name="G" unicode="G" horiz-adv-x="667" 
d="M378 -15q-161 0 -251 96q-95 100 -95 284q0 169 95 276q94 99 252 99q63 0 135 -20q33 -11 54 -20l48 -22v-117h-8q-16 14 -37 31q-24 17 -54 31q-67 33 -150 33q-106 0 -170 -79t-64 -210q0 -141 66 -221q66 -77 175 -77q42 0 82 6q42 8 67 18v188h-167v84h264v-317
l-50 -21q-22 -9 -58 -20q-27 -8 -64 -16q-28 -6 -70 -6z" />
    <glyph glyph-name="H" unicode="H" horiz-adv-x="675" 
d="M504 727h98v-727h-98v356h-334v-356h-96v727h96v-285h334v285z" />
    <glyph glyph-name="I" unicode="I" horiz-adv-x="373" 
d="M234 75h93v-75h-282v75h93v578h-93v74h282v-74h-93v-578z" />
    <glyph glyph-name="J" unicode="J" horiz-adv-x="417" 
d="M97 727h250v-538q0 -95 -58 -147t-156 -52q-27 0 -63 4l-66 9v93h6q66 -23 110 -23q84 0 111 40q20 29 20 113v424h-154v77z" />
    <glyph glyph-name="K" unicode="K" horiz-adv-x="588" 
d="M586 727l-300 -324l318 -403h-126l-265 338l-43 -47v-291h-96v727h96v-334l298 334h118z" />
    <glyph glyph-name="L" unicode="L" horiz-adv-x="497" 
d="M170 86h326v-86h-422v727h96v-641z" />
    <glyph glyph-name="M" unicode="M" horiz-adv-x="771" 
d="M562 727h134v-727h-96v626l-189 -426h-59l-188 426v-626h-90v727h132l181 -405z" />
    <glyph glyph-name="N" unicode="N" horiz-adv-x="667" 
d="M503 727h91v-727h-109l-321 627v-627h-90v727h137l292 -575v575z" />
    <glyph glyph-name="O" unicode="O" horiz-adv-x="707" 
d="M588 644q87 -104 87 -281q0 -176 -87 -280q-88 -99 -234 -99q-148 0 -235 99q-87 104 -87 281t88 280q84 98 234 98q148 0 234 -98zM575 364q0 142 -59 219q-58 76 -162 76q-103 0 -161 -76q-60 -75 -60 -219t60 -220t161 -76q103 0 161 76q60 76 60 220z" />
    <glyph glyph-name="P" unicode="P" horiz-adv-x="551" 
d="M533 508q0 -98 -64 -162q-76 -75 -216 -75h-83v-271h-96v727h182q124 0 190 -45q87 -60 87 -174zM432 505q0 77 -52 111q-41 28 -129 28h-81v-290h66q113 0 155 43q41 41 41 108z" />
    <glyph glyph-name="Q" unicode="Q" horiz-adv-x="707" 
d="M665 -90h13v-88q-61 -14 -114 -14q-83 0 -132 46q-52 47 -56 131h-22q-149 0 -235 98q-87 104 -87 281t88 280q84 98 234 98q148 0 234 -98q87 -104 87 -280q0 -143 -55 -234q-55 -90 -151 -125q6 -59 28 -82q24 -30 84 -30q19 0 45 6q35 9 39 11zM575 364q0 142 -59 219
q-58 76 -162 76q-103 0 -161 -76q-60 -75 -60 -219t60 -220t161 -76q103 0 161 76q60 76 60 220z" />
    <glyph glyph-name="R" unicode="R" horiz-adv-x="621" 
d="M378 316l258 -316h-125l-230 289h-111v-289h-96v727h187q64 0 105 -7q42 -6 80 -32q83 -54 83 -158q0 -157 -151 -214zM428 523q0 65 -46 96q-37 25 -115 25h-97v-274h85q94 0 131 37q42 42 42 116z" />
    <glyph glyph-name="S" unicode="S" horiz-adv-x="557" 
d="M276 -14q-80 0 -134 16q-54 17 -105 41v122h7q50 -46 109 -70q60 -25 116 -25q78 0 120.5 32.5t42.5 89.5q0 88 -90 112l-62 15l-70 17q-77 21 -120 65q-47 52 -47 131q0 89 69 149q71 59 175 59q118 0 216 -46v-117h-6q-36 33 -89 55q-54 24 -115 24q-66 0 -107.5 -31
t-41.5 -82q0 -87 95 -114q40 -12 74 -20l74 -18q145 -45 145 -184q0 -91 -66 -154q-35 -32 -79 -50q-46 -17 -111 -17z" />
    <glyph glyph-name="T" unicode="T" horiz-adv-x="583" 
d="M340 641v-641h-96v641h-245v86h585v-86h-244z" />
    <glyph glyph-name="U" unicode="U" horiz-adv-x="655" 
d="M327 -16q-126 0 -192 68q-71 68 -71 221v454h98v-454q0 -99 31 -146q41 -60 134 -60q99 0 136 60q32 50 32 144v456h96v-454q0 -155 -69 -221q-69 -68 -195 -68z" />
    <glyph glyph-name="V" unicode="V" horiz-adv-x="596" 
d="M301 124l201 603h99l-250 -727h-104l-250 727h103z" />
    <glyph glyph-name="W" unicode="W" horiz-adv-x="902" 
d="M649 116l145 611h95l-182 -727h-110l-147 604l-144 -604h-107l-186 727h99l146 -604l146 604h98z" />
    <glyph glyph-name="X" unicode="X" horiz-adv-x="581" 
d="M576 727l-228 -358l228 -369h-111l-177 291l-180 -291h-105l231 364l-223 363h110l173 -285l177 285h105z" />
    <glyph glyph-name="Y" unicode="Y" horiz-adv-x="576" 
d="M290 406l190 321h103l-246 -405v-322h-97v312l-245 415h107z" />
    <glyph glyph-name="Z" unicode="Z" horiz-adv-x="559" 
d="M134 86h403v-86h-508v90l389 551h-371v86h480v-87z" />
    <glyph glyph-name="bracketleft" unicode="[" horiz-adv-x="264" 
d="M209 -109v-59h-155v731h155v-58h-85v-614h85z" />
    <glyph glyph-name="bracketright" unicode="]" horiz-adv-x="264" 
d="M54 563h155v-731h-155v59h84v614h-84v58z" />
    <glyph glyph-name="a" unicode="a" horiz-adv-x="524" 
d="M371 135v151l-83 -8q-49 -6 -81 -14q-36 -11 -61 -35q-23 -23 -23 -65q0 -95 104 -95q44 0 78 19q37 21 66 47zM463 0h-92v58l-30 -23q-17 -13 -36 -24q-29 -15 -48 -20q-22 -7 -63 -7q-68 0 -118 50q-48 48 -48 124q0 115 100 160q67 30 243 41v17q0 60 -38 83
q-27 18 -94 18q-74 0 -161 -37h-5v94q29 8 73 15q46 9 93 9q113 0 165 -40q59 -45 59 -145v-373z" />
    <glyph glyph-name="b" unicode="b" horiz-adv-x="553" 
d="M429 274q0 101 -30 150t-95 49q-74 0 -146 -62v-313q31 -15 62 -23q29 -8 59 -8q150 0 150 207zM523 282q0 -134 -65 -216q-64 -82 -162 -82q-44 0 -76 12q-27 9 -62 29l-5 -25h-87v760h92v-272q81 73 168 73q91 0 144 -74t53 -205z" />
    <glyph glyph-name="c" unicode="c" horiz-adv-x="462" 
d="M284 -12q-116 0 -184 69q-71 76 -71 215q0 134 71 211q67 75 184 75q75 0 160 -41v-104h-5q-21 19 -63 42q-49 23 -94 23q-72 0 -115 -54q-43 -52 -43 -152q0 -96 41 -151q42 -54 117 -54q86 0 157 67h5v-103q-50 -23 -71 -29q-3 -1 -18 -4.5t-24 -5.5q-17 -4 -47 -4z
" />
    <glyph glyph-name="d" unicode="d" horiz-adv-x="553" 
d="M395 760h91v-760h-91v56q-30 -25 -38 -30q-16 -12 -36 -22q-48 -20 -89 -20q-92 0 -148 73q-55 76 -55 211q0 132 69 216q64 77 161 77q43 0 71 -9q31 -9 65 -29v237zM395 133v314q-61 30 -121 30q-71 0 -110.5 -53.5t-39.5 -152.5q0 -199 129 -199q74 0 142 61z" />
    <glyph glyph-name="e" unicode="e" horiz-adv-x="526" 
d="M304 -13q-131 0 -203 74q-72 73 -72 208q0 134 70 213q69 79 182 79q100 0 158 -61q61 -61 61 -188v-48h-378q0 -95 47.5 -146t132.5 -51q61 0 112 25q45 19 70 42h6v-100l-41 -16q-26 -11 -43 -15q-33 -9 -48 -11q-23 -5 -54 -5zM122 333h289q-1 70 -32 110
q-30 41 -104 41q-66 0 -108 -42q-38 -41 -45 -109z" />
    <glyph glyph-name="f" unicode="f" horiz-adv-x="318" 
d="M354 755v-83h-6q-17 6 -35 8q-25 5 -40 5q-60 0 -83.5 -26.5t-23.5 -95.5v-18h151v-76h-149v-469h-92v469h-61v76h61v18q0 98 47.5 150t135.5 52q51 0 95 -10z" />
    <glyph glyph-name="g" unicode="g" horiz-adv-x="553" 
d="M395 148v299q-63 31 -122 31q-69 0 -109 -51q-40 -50 -40 -147q0 -94 31.5 -139.5t97.5 -45.5q78 0 142 53zM81 -183v96h5q49 -19 69 -23q59 -15 93 -15q84 0 118 43q29 37 29 106v48q-41 -34 -73 -48q-34 -15 -89 -15q-95 0 -149.5 70.5t-54.5 198.5q0 130 70 209
q65 74 160 74q73 0 136 -39l5 23h86v-483q0 -138 -60 -203.5t-185 -65.5q-83 0 -160 24z" />
    <glyph glyph-name="h" unicode="h" horiz-adv-x="557" 
d="M496 354v-354h-92v311q0 90 -19 122q-21 40 -85 40t-142 -66v-407h-92v760h92v-276q85 77 166 77t126.5 -54t45.5 -153z" />
    <glyph glyph-name="i" unicode="i" horiz-adv-x="228" 
d="M68 545h92v-545h-92v545zM62 732h105v-96h-105v96z" />
    <glyph glyph-name="j" unicode="j" horiz-adv-x="282" 
d="M24 545h191v-561q0 -92 -49 -141.5t-139 -49.5q-34 0 -70 6v82h5q34 -6 48 -6q73 0 95 37q19 31 19 110v447h-100v76zM111 732h104v-96h-104v96z" />
    <glyph glyph-name="k" unicode="k" horiz-adv-x="498" 
d="M488 545l-223 -228l253 -317h-120l-204 264l-36 -36v-228h-92v760h92v-446l216 231h114z" />
    <glyph glyph-name="l" unicode="l" horiz-adv-x="228" 
d="M68 760h92v-760h-92v760z" />
    <glyph glyph-name="m" unicode="m" horiz-adv-x="840" 
d="M777 359v-359h-91v315q0 93 -16 121q-16 37 -76 37q-55 0 -129 -68q3 -20 3 -46v-359h-92v315q0 89 -15 121q-19 37 -76 37q-58 0 -127 -66v-407h-92v545h92v-61q76 77 149 77q107 0 143 -95q83 95 167 95q72 0 115 -46q45 -54 45 -156z" />
    <glyph glyph-name="n" unicode="n" horiz-adv-x="557" 
d="M496 354v-354h-92v311q0 90 -19 122q-21 40 -85 40t-142 -66v-407h-92v545h92v-61q85 77 166 77t126.5 -54t45.5 -153z" />
    <glyph glyph-name="o" unicode="o" horiz-adv-x="543" 
d="M516 273q0 -136 -66 -212.5t-178 -76.5q-114 0 -179 78q-65 79 -65 211q0 138 67 212q66 76 177 76q110 0 177 -76q67 -74 67 -212zM420 273q0 209 -148 209q-149 0 -149 -209q0 -102 38.5 -156t110.5 -54q148 0 148 210z" />
    <glyph glyph-name="p" unicode="p" horiz-adv-x="553" 
d="M523 287q0 -135 -65 -217q-64 -81 -165 -81q-67 0 -135 38v-228h-92v746h92v-57q82 73 168 73q92 0 145 -75q52 -74 52 -199zM429 277q0 196 -126 196q-69 0 -145 -62v-309q34 -16 62 -24q25 -6 59 -6q72 0 111 53t39 152z" />
    <glyph glyph-name="q" unicode="q" horiz-adv-x="553" 
d="M400 545h86v-746h-91v261q-80 -71 -163 -71q-92 0 -148 74q-55 74 -55 208q0 135 70 214q62 76 160 76q71 0 136 -39zM395 136v311q-38 18 -62 24q-27 7 -60 7q-71 0 -110 -52.5t-39 -150.5q0 -199 128 -199q72 0 143 60z" />
    <glyph glyph-name="r" unicode="r" horiz-adv-x="360" 
d="M355 543v-97h-4q-13 5 -50 5q-79 0 -143 -64v-387h-92v545h92v-81q89 81 160 81q9 0 22.5 -1t14.5 -1z" />
    <glyph glyph-name="s" unicode="s" horiz-adv-x="446" 
d="M214 -14q-56 0 -103 15q-47 16 -78 32v102h4q3 -1 22 -16q21 -17 48 -27q60 -28 110 -28q20 0 47 5q24 4 37 14q18 11 25 24.5t7 37.5q0 31 -17 48t-63 29q-10 3 -47 10q-39 9 -51 13q-119 35 -119 147q0 74 55 120t148 46q42 0 92 -11q41 -9 76 -28v-98h-4
q-77 60 -167 60q-45 0 -76 -19t-31 -57q0 -35 18 -52q19 -17 60 -27q33 -9 53 -13l46 -9q121 -31 121 -147q0 -73 -54 -121q-59 -50 -159 -50z" />
    <glyph glyph-name="t" unicode="t" horiz-adv-x="334" 
d="M232 -11q-160 0 -160 178v302h-62v76h62v157h92v-157h169v-76h-169v-259q0 -38 2 -64q1 -19 10 -42q19 -34 77 -34q25 0 44 6q26 9 30 11h6v-83q-53 -15 -101 -15z" />
    <glyph glyph-name="u" unicode="u" horiz-adv-x="557" 
d="M399 545h92v-545h-92v61q-45 -41 -83 -59t-83 -18q-74 0 -121 50q-50 53 -50 158v353h93v-311q0 -85 17 -121q21 -41 86 -41q35 0 72 19q38 19 69 47v407z" />
    <glyph glyph-name="v" unicode="v" horiz-adv-x="498" 
d="M252 125l147 420h97l-206 -545h-83l-204 545h99z" />
    <glyph glyph-name="w" unicode="w" horiz-adv-x="742" 
d="M544 123l91 422h92l-138 -545h-85l-133 420l-132 -420h-84l-140 545h95l97 -422l129 422h76z" />
    <glyph glyph-name="x" unicode="x" horiz-adv-x="496" 
d="M490 545l-188 -268l188 -277h-113l-131 207l-137 -207h-105l190 271l-187 274h113l131 -204l134 204h105z" />
    <glyph glyph-name="y" unicode="y" horiz-adv-x="498" 
d="M251 142l148 403h97l-294 -746h-98l97 227l-198 519h99z" />
    <glyph glyph-name="z" unicode="z" horiz-adv-x="444" 
d="M133 76h291v-76h-401v68l286 402h-273v75h383v-65z" />
    <glyph glyph-name="braceleft" unicode="{" horiz-adv-x="267" 
d="M21 175v64q60 1 74 58q5 24 7 93q-1 24 2 86q9 86 72 102q17 5 49 5h22v-62h-13q-43 0 -55 -17q-12 -16 -12 -63q0 -106 -4 -129q-12 -74 -78 -105q52 -21 70 -72q12 -34 12 -104q0 -72 2 -90q3 -29 20 -40q14 -8 45 -8h13v-61h-22q-39 0 -56 6q-53 20 -63 80l-3 128
q-1 88 -34 113q-19 16 -48 16z" />
    <glyph glyph-name="braceright" unicode="}" horiz-adv-x="267" 
d="M247 239v-64q-62 -2 -74 -59q-7 -28 -7 -88q0 -67 -2 -89q-9 -84 -73 -103q-15 -4 -48 -4h-22v61h12q43 0 56 19q11 16 11 62q0 102 4 123q10 81 78 110q-54 26 -70 73q-12 32 -12 105q0 68 -2 90q-5 29 -20 39q-13 7 -45 7h-12v62h22q40 0 55 -7q53 -20 63 -79
q5 -34 4 -101q0 -61 8 -98q12 -57 74 -59z" />
    <glyph glyph-name="uni00A0" unicode="&#xa0;" horiz-adv-x="229" 
 />
    <glyph glyph-name="guillemotleft" unicode="&#xab;" horiz-adv-x="452" 
d="M205 74v-72l-158 123v94l158 122v-70l-129 -98zM405 74v-72l-156 123v94l156 122v-70l-127 -98z" />
    <glyph glyph-name="uni00AD" unicode="&#xad;" horiz-adv-x="561" 
d="M525 203v-86h-479v86h479z" />
    <glyph glyph-name="middot" unicode="&#xb7;" horiz-adv-x="250" 
d="M76 370q0 52 48 52q46 0 46 -52q0 -21 -13 -36t-33 -15q-48 0 -48 51z" />
    <glyph glyph-name="middot" unicode="&#x2d9;" horiz-adv-x="250" 
d="M76 370q0 52 48 52q46 0 46 -52q0 -21 -13 -36t-33 -15q-48 0 -48 51z" />
    <glyph glyph-name="guillemotright" unicode="&#xbb;" horiz-adv-x="452" 
d="M203 219v-94l-157 -123v71l127 97l-127 100v71zM403 219v-94l-156 -123v71l128 97l-128 100v71z" />
    <glyph glyph-name="multiply" unicode="&#xd7;" horiz-adv-x="623" 
d="M49 -45l205 204l-206 204l61 61l203 -204l205 205l59 -62l-202 -204l202 -203l-61 -61l-201 203l-204 -203z" />
    <glyph glyph-name="divide" unicode="&#xf7;" horiz-adv-x="572" 
d="M535 197v-87h-499v87h499zM212 -55q0 28 20 45q20 18 48 18q24 0 44 -20q18 -21 17.5 -46.5t-20.5 -46t-47 -19.5q-26 0 -45 22q-17 20 -17 47zM217 366q0 25 19 43q19 19 45 19t46 -20t20 -45q0 -27 -21 -48q-22 -20 -47 -20q-27 0 -46 22q-16 19 -16 49z" />
    <glyph glyph-name="u060C" unicode="&#x60c;" horiz-adv-x="252" 
d="M61 78q0 80 12 111q19 55 86 61v-32q-39 -4 -52 -37q-7 -16 -9 -67q91 0 91 -60q0 -54 -66 -54q-39 0 -53 21q-9 17 -9 57z" />
    <glyph glyph-name="u061B" unicode="&#x61b;" horiz-adv-x="275" 
d="M76 276q0 78 12 110q20 51 86 60v-30q-39 -7 -51 -38q-7 -18 -9 -66q93 0 93 -60q0 -54 -66 -54q-43 0 -56 21q-9 15 -9 57zM78 54q0 58 68 58q62 0 62 -58q0 -54 -66 -54q-64 0 -64 54z" />
    <glyph glyph-name="u061F" unicode="&#x61f;" horiz-adv-x="395" 
d="M37 423q0 69 48 107q43 34 115 34q50 0 91 -23q44 -26 60 -70q9 -28 11 -93h-86q0 109 -77 109q-72 0 -72 -67q0 -24 12 -37l42 -47q42 -46 50 -67q12 -35 16 -104h-84q0 52 -15 82q-11 22 -45 53q-37 34 -48 54q-18 28 -18 69zM143 53q0 50 59 50t59 -50q0 -24 -20 -39
q-17 -14 -43 -14q-22 0 -38 16q-17 15 -17 37z" />
    <glyph glyph-name="u0621" unicode="&#x621;" horiz-adv-x="259" 
d="M230 95l-184 -95l-15 30l64 34q-56 30 -56 82q0 40 24.5 65.5t63.5 25.5q28 0 51 -10l-13 -29q-17 10 -36 10q-59 0 -59 -62q0 -51 50 -51q38 0 94 30z" />
    <glyph glyph-name="u0622" unicode="&#x622;" horiz-adv-x="327" 
d="M-1 549l-80 31q32 69 57 88q28 22 115 30q30 2 125 2q12 0 114 -2v-86h-220q-11 0 -51 -5q-19 -1 -30 -9q-12 -11 -30 -49zM210 563v-563h-85v563h85z" />
    <glyph glyph-name="u0623" unicode="&#x623;" horiz-adv-x="281" 
d="M205 678l-121 -60l-9 20l40 23q-36 19 -36 53q0 24 17 41q17 18 41 18q12 0 33 -9l-8 -18q-10 7 -26 7q-34 0 -34 -41q0 -32 32 -32q25 0 59 20zM183 563v-563h-86v563h86z" />
    <glyph glyph-name="u0624" unicode="&#x624;" horiz-adv-x="436" 
d="M170 -222h-114l-11 88h111q61 0 103 36q44 38 44 98q-107 0 -157 29q-69 37 -69 136q0 91 30 134q36 53 123 53q105 0 141 -81q21 -49 21 -172v-110q0 -91 -66 -152q-65 -59 -156 -59zM221 435l-148 -76l-12 25l50 28q-45 22 -45 64q0 30 20 53q19 22 51 22q10 0 43 -11
l-12 -23q-12 9 -26 9q-21 0 -35 -14.5t-14 -35.5q0 -39 39 -39q27 0 76 25zM167 174q0 -61 42 -77q23 -9 94 -9v90q0 86 -69 86q-67 0 -67 -90z" />
    <glyph glyph-name="u0625" unicode="&#x625;" horiz-adv-x="281" 
d="M219 -168l-120 -61l-10 20l41 23q-37 18 -37 54q0 22 17 41q17 17 41 17q11 0 34 -9l-9 -18q-8 7 -26 7q-34 0 -34 -40q0 -33 33 -33q25 0 59 20zM183 563v-563h-86v563h86z" />
    <glyph glyph-name="u0626" unicode="&#x626;" horiz-adv-x="629" 
d="M39 4v182h82v-191q0 -60 43 -97q40 -34 100 -34h113q50 0 91 34q46 36 46 83q0 44 -31 53q-27 7 -173 9v150q0 66 44 113q44 45 111 45h106l3 -82h-105q-51 0 -68 -50q-8 -27 -8 -93q127 -2 159 -21q46 -25 46 -101q0 -99 -57 -162q-60 -64 -158 -64h-136q-92 0 -152 68
q-56 67 -56 158zM217 380l-149 -75l-12 24l51 27q-44 26 -44 64q0 33 19.5 54.5t50.5 21.5q12 0 42 -11l-11 -23q-16 8 -27 8q-20 0 -34 -14.5t-14 -35.5q0 -39 37 -39q32 0 79 25z" />
    <glyph glyph-name="u0627" unicode="&#x627;" horiz-adv-x="281" 
d="M183 563v-563h-86v563h86z" />
    <glyph glyph-name="u0628" unicode="&#x628;" horiz-adv-x="784" 
d="M36 143v133h88v-121q0 -37 14 -52t50 -15h410q37 0 51.5 15t14.5 52v121h88v-133q0 -55 -35 -98q-37 -45 -92 -45h-463q-57 0 -93 44q-33 40 -33 99zM351 -159q0 51 63 51q64 0 64 -51q0 -26 -19 -44q-18 -18 -42 -18q-66 0 -66 62z" />
    <glyph glyph-name="u062A" unicode="&#x62a;" horiz-adv-x="784" 
d="M36 143v133h88v-121q0 -37 14 -52t50 -15h410q37 0 51.5 15t14.5 52v121h88v-133q0 -55 -35 -98q-37 -45 -92 -45h-463q-57 0 -93 44q-33 40 -33 99zM234 422q0 48 56 48q61 0 61 -48q0 -23 -16 -38q-17 -15 -39 -15q-62 0 -62 53zM403 422q0 48 55 48q62 0 62 -48
q0 -23 -17 -38t-39 -15q-61 0 -61 53z" />
    <glyph glyph-name="u062B" unicode="&#x62b;" horiz-adv-x="784" 
d="M36 143v133h88v-121q0 -37 14 -52t50 -15h410q37 0 51.5 15t14.5 52v121h88v-133q0 -55 -35 -98q-37 -45 -92 -45h-463q-57 0 -93 44q-33 40 -33 99zM240 391q0 48 55 48q61 0 61 -48q0 -23 -16 -38q-16 -16 -39 -16q-24 0 -42 15q-19 15 -19 39zM322 515q0 48 56 48
q62 0 62 -48q0 -23 -16.5 -38t-40.5 -15q-25 0 -42 14q-19 15 -19 39zM408 391q0 48 56 48q61 0 61 -48q0 -23 -16.5 -38.5t-39.5 -15.5q-24 0 -42 15q-19 15 -19 39z" />
    <glyph glyph-name="u062C" unicode="&#x62c;" horiz-adv-x="539" 
d="M21 -148q0 144 128 215l269 148q-19 36 -59 44q-35 5 -233 6l-11 86h213q183 0 184 -181l-290 -162q-118 -66 -118 -163q0 -70 56 -126t127 -56h256l8 -87h-241q-123 0 -205 76q-84 76 -84 200zM271 -166q0 55 63 55q64 0 64 -53q0 -24 -18 -44q-16 -18 -43 -18
q-29 0 -46 16q-20 17 -20 44z" />
    <glyph glyph-name="u062D" unicode="&#x62d;" horiz-adv-x="539" 
d="M22 -153v19q2 9 2 19q16 121 127 182l269 148q-30 54 -168 54h-27l-96 -2v-2l-18 1q6 1 18 1l-12 84h212q181 0 184 -181l-289 -162q-119 -66 -119 -163q0 -70 56 -126q58 -56 127 -56h256l8 -87h-240q-141 0 -225 99q-65 76 -65 172z" />
    <glyph glyph-name="u062E" unicode="&#x62e;" horiz-adv-x="539" 
d="M21 -148q0 144 128 215l269 148q-19 36 -59 44q-35 5 -233 6l-11 86h213q183 0 184 -181l-290 -162q-118 -66 -118 -163q0 -70 56 -126t127 -56h256l8 -87h-241q-123 0 -205 76q-84 76 -84 200zM242 510q0 52 64 52t64 -52q0 -26 -18 -44q-19 -17 -43 -17q-67 0 -67 61z
" />
    <glyph glyph-name="u062F" unicode="&#x62f;" horiz-adv-x="481" 
d="M331 0h-272l-13 88h279q49 0 49 34q0 19 -13 32l-198 210l59 60l198 -210q41 -44 41 -99q0 -54 -40 -85q-36 -30 -90 -30z" />
    <glyph glyph-name="u0630" unicode="&#x630;" horiz-adv-x="481" 
d="M330 0h-272l-13 88h280q48 0 48 34q0 18 -14 32l-197 210l59 60l198 -210q40 -41 40 -96q0 -57 -37 -88q-36 -30 -92 -30zM161 571q0 52 64 52q63 0 63 -52q0 -25 -17 -44q-18 -18 -44 -18q-66 0 -66 62z" />
    <glyph glyph-name="u0631" unicode="&#x631;" horiz-adv-x="425" 
d="M153 -222h-117l-14 90h99q63 0 109 30q53 36 53 97v281h90v-261q0 -99 -61 -166q-62 -71 -159 -71z" />
    <glyph glyph-name="u0632" unicode="&#x632;" horiz-adv-x="425" 
d="M152 -222h-116l-15 90h99q63 0 109 30q52 36 52 97v281h91v-261q0 -98 -61 -165q-65 -72 -159 -72zM240 515q0 53 64 53t64 -53q0 -25 -17 -44q-18 -18 -44 -18q-67 0 -67 62z" />
    <glyph glyph-name="u0633" unicode="&#x633;" horiz-adv-x="1100" 
d="M42 5v183h85v-187q0 -61 41 -99q39 -36 101 -36h114q61 0 99.5 37.5t38.5 97.5v275h88v-130q0 -31 23 -51t54 -20q60 0 60 55v146h87v-130q0 -30 21 -50q22 -21 54 -21q61 0 61 55v146h87v-135q0 -61 -29 -102q-31 -48 -90 -48t-124 60q-42 -60 -104 -60q-46 0 -99 35
q0 -106 -55 -173q-60 -75 -162 -75h-134q-96 0 -157 67q-60 65 -60 160z" />
    <glyph glyph-name="u0634" unicode="&#x634;" horiz-adv-x="1100" 
d="M42 5v183h85v-187q0 -62 40 -99q41 -36 102 -36h114q59 0 99 38q39 37 39 97v275h88v-130q0 -31 23 -51t54 -20q60 0 60 55v146h87v-130q0 -32 21 -51q23 -20 54 -20q61 0 61 55v146h87v-135q0 -61 -29 -102q-31 -48 -90 -48q-64 0 -124 60q-48 -60 -104 -60
q-44 0 -99 35q-2 -104 -56 -172q-61 -76 -161 -76h-134q-95 0 -156 67q-61 65 -61 160zM640 391q0 48 56 48q61 0 61 -48q0 -23 -17 -38q-16 -16 -39 -16q-24 0 -42 15q-19 15 -19 39zM723 515q0 48 56 48q61 0 61 -48q0 -23 -16 -38t-40 -15q-25 0 -42 14q-19 15 -19 39z
M809 391q0 48 55 48q62 0 62 -48q0 -23 -16.5 -38.5t-39.5 -15.5q-24 0 -42 15q-19 15 -19 39z" />
    <glyph glyph-name="u0635" unicode="&#x635;" horiz-adv-x="1111" 
d="M30 15v173h88v-193q0 -50 44 -89q43 -38 92 -38h122q53 0 93 37q43 37 43 90v281h90v-130q0 -57 82 -58q38 98 92 168q75 95 155 95q69 0 114 -65q5 -9 17 -27l17 -51q7 -20 7 -53q0 -73 -42 -113q-42 -42 -113 -42h-239q-75 0 -91 46q0 -107 -55 -183q-61 -85 -165 -85
h-134q-97 0 -158 72q-59 70 -59 165zM776 88h169q56 0 56 81q0 27 -15 58q-16 37 -39 37q-43 0 -100 -67q-47 -54 -71 -109z" />
    <glyph glyph-name="u0636" unicode="&#x636;" horiz-adv-x="1111" 
d="M30 15v173h88v-193q0 -50 43 -89q43 -38 93 -38h122q49 0 92 40q44 39 44 87v281h90v-130q0 -58 84 -58q110 263 246 263q70 0 114 -65q40 -58 40 -131q0 -72 -41.5 -113.5t-113.5 -41.5h-239q-79 0 -91 46q-2 -106 -57 -182q-62 -86 -163 -86h-134q-97 0 -158 72
q-59 68 -59 165zM776 88h170q56 0 56 78q0 31 -13 60q-17 38 -42 38q-43 0 -100 -67q-47 -56 -71 -109zM790 514q0 52 64 52q63 0 63 -52q0 -25 -18 -43t-43 -18q-66 0 -66 61z" />
    <glyph glyph-name="u0637" unicode="&#x637;" horiz-adv-x="515" 
d="M344 0h-304l-18 88h74v475h85v-313q84 101 152 101t113 -65q39 -59 39 -130q0 -66 -37 -109q-39 -47 -104 -47zM175 88h169q22 0 39 27q12 19 12 65q0 83 -53 83q-43 0 -99 -68q-39 -48 -68 -107z" />
    <glyph glyph-name="u0638" unicode="&#x638;" horiz-adv-x="515" 
d="M343 0h-304l-18 88h74v475h86v-313q81 101 151 101q66 0 111 -62q41 -58 41 -125q0 -69 -35 -115q-37 -49 -106 -49zM174 88h169q51 0 51 87q0 88 -53 88q-44 0 -99 -67q-46 -54 -68 -108zM281 515q0 53 65 53q63 0 63 -53q0 -25 -17 -44q-18 -18 -43 -18q-68 0 -68 62z
" />
    <glyph glyph-name="u0639" unicode="&#x639;" horiz-adv-x="532" 
d="M3 -154q0 168 185 249q-29 53 -29 105q0 74 51 114q46 37 122 37q66 0 144 -66l-41 -67q-77 51 -121 51q-48 0 -62 -48l-5 -19v-15q0 -37 18 -65q21 -34 54 -34h175l12 -88h-291q-59 0 -93 -49q-30 -44 -30 -106q0 -82 49 -131q49 -51 129 -51h238l12 -87h-230
q-120 0 -203 74q-84 78 -84 196z" />
    <glyph glyph-name="u063A" unicode="&#x63a;" horiz-adv-x="532" 
d="M3 -154q0 166 185 249q-30 54 -30 98q0 71 44 115q46 44 116 44q81 0 158 -67l-42 -67q-74 51 -120 51q-68 0 -68 -80q0 -39 16 -67q19 -34 56 -34h175l12 -88h-291q-59 0 -92 -50q-30 -44 -30 -105q0 -82 48 -132t129 -50h238l13 -87h-230q-120 0 -202 75
q-85 78 -85 195zM276 513q0 52 64 52q63 0 63 -52q0 -25 -17 -44q-18 -18 -44 -18q-66 0 -66 62z" />
    <glyph glyph-name="u0640" unicode="&#x640;" horiz-adv-x="229" 
d="M247 88v-88h-257v88h257z" />
    <glyph glyph-name="u0641" unicode="&#x641;" horiz-adv-x="784" 
d="M31 143v133h88v-121q0 -38 14 -52.5t51 -14.5h420q40 0 50 15q4 7 12 51q-123 0 -156 11q-71 26 -71 121q0 65 44 103q41 35 107 35q70 0 115 -49q41 -46 43 -117q2 -84 2 -104q0 -63 -36 -107q-38 -47 -100 -47h-458q-56 0 -92 44q-33 40 -33 99zM514 280q0 -42 68 -44
h82q0 42 -22 70q-22 31 -64 31q-64 0 -64 -57zM524 525q0 54 63 54q64 0 64 -54q0 -24 -18.5 -42t-42.5 -18q-66 0 -66 60z" />
    <glyph glyph-name="u0642" unicode="&#x642;" horiz-adv-x="654" 
d="M47 -3v175h83v-178q0 -62 37 -103q39 -42 99 -42h122q62 0 102 45q36 41 38 106q-126 0 -156 10q-72 26 -72 121q0 63 43 100q41 36 106 36q74 0 119 -50q44 -49 44 -123v-77q0 -13 -5 -70q-6 -80 -70 -132q-61 -49 -143 -49h-133q-99 0 -157 67q-57 64 -57 164zM297 362
q0 49 57 49q61 0 61 -49q0 -23 -16 -37t-40 -14q-62 0 -62 51zM378 131q0 -53 83 -53q42 0 66 3q0 40 -23 69q-24 31 -64 31q-62 0 -62 -50zM466 362q0 49 57 49q61 0 61 -49q0 -23 -15.5 -37t-39.5 -14q-63 0 -63 51z" />
    <glyph glyph-name="u0644" unicode="&#x644;" horiz-adv-x="665" 
d="M46 4v184h88v-193q0 -55 46 -92q44 -35 98 -35h114q52 0 94 36q43 37 43 91v568h88v-552q0 -98 -59 -165q-62 -68 -161 -68h-134q-87 0 -153 70q-64 67 -64 156z" />
    <glyph glyph-name="u0645" unicode="&#x645;" horiz-adv-x="561" 
d="M124 -222h-87v389q0 85 45 133q46 51 129 51h179q88 0 119 -64q21 -42 21 -143q0 -66 -45 -106q-43 -40 -111 -40t-110 46q-42 44 -42 114v107q-4 0 -8 0.5t-7 0.5h-3q-34 0 -58 -27q-22 -26 -22 -61v-400zM307 265v-122q0 -26 25 -42q21 -15 48 -15q64 0 64 77
q0 70 -14 84q-15 15 -123 18z" />
    <glyph glyph-name="u0646" unicode="&#x646;" horiz-adv-x="654" 
d="M37 4v184h87v-193q0 -57 43 -94q41 -35 98 -35h113q58 0 98 36q41 35 41 93v281h88v-262q0 -103 -59 -168q-60 -68 -162 -68h-135q-91 0 -152 69q-60 67 -60 157zM230 296q0 53 62 53q64 0 64 -53q0 -25 -18 -43q-17 -17 -43 -17q-65 0 -65 60z" />
    <glyph glyph-name="u0647" unicode="&#x647;" horiz-adv-x="395" 
d="M34 161q0 75 100 175l-25 28l59 60l161 -166q41 -44 41 -109q0 -68 -52 -114q-50 -45 -120 -45q-72 0 -118 49t-46 122zM119 152q0 -33 26 -56q25 -21 60 -21t56 22q22 22 22 57q0 26 -14 42l-71 75q-79 -75 -79 -119z" />
    <glyph glyph-name="u0648" unicode="&#x648;" horiz-adv-x="436" 
d="M161 -222h-114l-11 88h110q64 0 105 36.5t42 97.5q-109 0 -159 29q-67 39 -67 141q0 110 53 155q31 27 107 27q99 0 134 -84q20 -54 20 -169v-110q0 -89 -66 -150q-65 -61 -154 -61zM158 168q0 -56 44 -71q26 -9 91 -9v90q0 86 -68 86q-42 0 -57 -28q-10 -20 -10 -68z
" />
    <glyph glyph-name="u0649" unicode="&#x649;" horiz-adv-x="629" 
d="M39 4v182h82v-191q0 -59 43 -96q41 -35 100 -35h113q53 0 93 33q44 36 44 86q0 43 -60 58q-15 3 -22 3h-122v151q0 66 44 112q42 44 111 44h106l3 -82h-105q-47 0 -66 -42q-9 -26 -10 -101q103 0 138 -12q67 -25 67 -110q0 -128 -93 -190q-55 -36 -122 -36h-136
q-91 0 -151 69q-57 64 -57 157z" />
    <glyph glyph-name="u064B" unicode="&#x64b;" 
d="M265 811l-154 -82l-13 23l153 84zM266 868l-155 -84l-13 25l154 85z" />
    <glyph glyph-name="u064C" unicode="&#x64c;" 
d="M83 764l-10 17q24 10 41 10q28 0 35 -39l38 22q-39 22 -39 56q0 45 43 61q17 5 18 5q27 0 45 -18q19 -19 19 -44q0 -45 -23 -57l-139 -74l-13 24q25 17 30 25q0 17 -22 17q-13 0 -23 -5zM170 831q0 -39 42 -39q12 0 26 15q13 13 13 27q0 16 -12.5 27.5t-29.5 11.5
q-39 0 -39 -42z" />
    <glyph glyph-name="u064D" unicode="&#x64d;" 
d="M110 -357l-153 -82l-14 22l154 85zM110 -427l-153 -83l-14 24l154 85z" />
    <glyph glyph-name="u064E" unicode="&#x64e;" 
d="M265 809l-154 -82l-13 23l153 85z" />
    <glyph glyph-name="u064F" unicode="&#x64f;" 
d="M222 774l-111 -59l-13 23l61 34q-38 23 -38 55q0 44 44 61q13 5 16 5q27 0 46 -18q20 -18 20 -44q0 -44 -25 -57zM143 828q0 -39 42 -39q13 0 25 15q14 14 14 28q0 15 -13 26.5t-30 11.5q-38 0 -38 -42z" />
    <glyph glyph-name="u0650" unicode="&#x650;" 
d="M106 -368l-153 -83l-14 24l154 85z" />
    <glyph glyph-name="u0651" unicode="&#x651;" 
d="M83 841h21q0 -49 40 -49t41 49h24q0 -49 41 -49q39 0 40 49h23q0 -28 -17 -51q-20 -23 -47 -23q-23 0 -54 28q-22 -28 -54 -28q-27 0 -44 24q-14 22 -14 50z" />
    <glyph glyph-name="u0652" unicode="&#x652;" 
d="M112 805q0 27 19 43t47 16q27 0 43 -19q17 -20 17 -45q0 -27 -20 -44t-46 -17q-25 0 -43 20q-17 20 -17 46zM175 760q15 0 28 13q12 13 12 28q0 30 -29 39q-7 4 -11 4q-16 0 -29 -13t-13 -30q0 -16 13 -28.5t29 -12.5z" />
    <glyph glyph-name="zero.001" unicode="&#x660;" horiz-adv-x="591" 
d="M139 158q0 61 48 109q50 47 111 47t107 -49q47 -50 47 -110q0 -58 -49 -101t-107 -43q-62 0 -109 43q-48 44 -48 104zM207 154q0 -33 29 -57q28 -22 62 -22q33 0 58 25t25 58q0 34 -26 60q-28 26 -62 26q-35 0 -60 -28q-26 -28 -26 -62z" />
    <glyph glyph-name="one.001" unicode="&#x661;" horiz-adv-x="591" 
d="M232 446l83 27l31 -118l4 -31q9 -81 9 -153v-269h-85v269q0 134 -42 275z" />
    <glyph glyph-name="two.001" unicode="&#x662;" horiz-adv-x="591" 
d="M124 446l84 27l35 -144q13 -55 65 -55q36 0 56 29q14 20 12 40l-14 105l81 26q25 -119 25 -161q0 -48 -44 -83q-41 -32 -90 -32q-36 0 -82 29l1 -325h-88v257q0 173 -41 287z" />
    <glyph glyph-name="three.001" unicode="&#x663;" horiz-adv-x="591" 
d="M24 446l87 27l33 -144q13 -55 68 -55q28 0 47 18q25 26 21 51l-17 105l83 31q20 -109 20 -149q0 -1 -0.5 -5t-1 -11.5t-0.5 -14.5q22 -28 56 -28q26 0 44 19q19 18 19 43v10l-14 105l81 25l16 -142q1 -2 1 -12q0 -48 -40 -81q-38 -32 -87 -32q-56 0 -108 60
q0 -63 -92 -63q-47 0 -87 22l1 -323h-86v257q0 161 -44 287z" />
    <glyph glyph-name="four.001" unicode="&#x664;" horiz-adv-x="591" 
d="M66 446l82 27q26 -89 39 -171l45 -21q0 197 160 197q50 0 106 -28l-29 -76q-37 26 -74 26q-36 0 -62 -24q-26 -23 -26 -58q0 -57 66 -57q51 0 125 37l27 -70q-96 -44 -181 -44q-75 0 -152 34l1 -316h-85v263q0 128 -42 281z" />
    <glyph glyph-name="five.001" unicode="&#x665;" horiz-adv-x="591" 
d="M23 51q0 108 87 214l96 118l-35 24l57 67q340 -253 340 -438q0 -71 -52 -114q-47 -40 -120 -40q-64 0 -110 35q-62 -36 -119 -36q-66 0 -107 53q-37 47 -37 117zM115 59q0 -82 74 -82q67 0 69 77l-5 33h87q6 -12 6 -34q0 -42 -10 -58q26 -17 58 -17q82 0 82 80
q0 104 -205 273q-156 -163 -156 -272z" />
    <glyph glyph-name="six.001" unicode="&#x666;" horiz-adv-x="591" 
d="M117 320q0 70 43 114q43 46 111 46q48 0 110 -32l-27 -78q-38 20 -71 20t-56 -21q-22 -19 -22 -52q0 -70 80 -70q53 0 118 41l71 -52q-38 -33 -68 -72l-74 -90q-57 -71 -127 -194l-78 47q45 85 160 235q-76 0 -122 40q-48 42 -48 118z" />
    <glyph glyph-name="seven.001" unicode="&#x667;" horiz-adv-x="591" 
d="M51 435l76 39q81 -136 114 -225q5 -13 17 -59l34 -126l10 -1q36 178 94 284l70 127l76 -38l-73 -124q-35 -62 -63 -129q-44 -110 -77 -281h-68q-23 150 -76 279q-44 103 -134 254z" />
    <glyph glyph-name="eight.001" unicode="&#x668;" horiz-adv-x="591" 
d="M49 -54q94 155 136 254q50 124 77 279l68 -1q36 -217 128 -388q27 -50 84 -145q-45 -20 -77 -40q-76 131 -113 227q-5 14 -19 65l-31 120l-10 1q-20 -87 -51 -185q-26 -81 -115 -228q-60 33 -77 41z" />
    <glyph glyph-name="u067E" unicode="&#x67e;" horiz-adv-x="784" 
d="M36 143v133h88v-121q0 -37 14 -52t50 -15h410q37 0 51.5 15t14.5 52v121h88v-133q0 -55 -35 -98q-37 -45 -92 -45h-463q-57 0 -93 44q-33 40 -33 99zM266 -167q0 21 16.5 37t39.5 16q26 0 43 -13q19 -16 19 -40q0 -47 -57 -47q-61 0 -61 47zM347 -292q0 53 55 53
q27 0 43 -13q19 -16 19 -40q0 -48 -56 -48q-61 0 -61 48zM435 -167q0 21 16.5 37t38.5 16q27 0 43 -13q19 -16 19 -40q0 -47 -56 -47q-61 0 -61 47z" />
    <glyph glyph-name="u0686" unicode="&#x686;" horiz-adv-x="539" 
d="M19 -148q0 144 128 215l269 148q-19 36 -60 44q-34 5 -231 6l-11 86h211q183 0 184 -181l-289 -162q-117 -66 -117 -163q0 -72 55 -127t127 -55h257l7 -87h-241q-123 0 -205 76q-84 76 -84 200zM210 -109q0 24 15.5 39t39.5 15t43 -14q20 -15 20 -40q0 -46 -59 -46
t-59 46zM290 -233q0 53 54 53q27 0 44 -13q19 -15 19 -40q0 -48 -56 -48q-61 0 -61 48zM380 -109q0 24 15.5 39t39.5 15t43 -14q20 -15 20 -40q0 -46 -61 -46q-57 0 -57 46z" />
    <glyph glyph-name="u0698" unicode="&#x698;" horiz-adv-x="450" 
d="M154 -222h-117l-14 90h99q62 0 109 30q53 36 53 97v281h90v-261q0 -98 -61 -166q-63 -71 -159 -71zM177 391q0 46 57 46q61 0 61 -46q0 -23 -16 -39t-39 -16q-25 0 -44 16q-19 15 -19 39zM262 515q0 47 60 47q59 0 59 -45q0 -24 -16 -40t-40 -16q-25 0 -44 14
q-19 15 -19 40zM347 391q0 46 56 46q63 0 63 -46q0 -24 -16 -39.5t-40 -15.5t-44 15q-19 15 -19 40z" />
    <glyph glyph-name="u0643" unicode="&#x6a9;" horiz-adv-x="784" 
d="M36 143v133h88v-121q0 -37 14 -52t50 -15h421q47 0 47 41q0 17 -14 33l-230 237l-13 101l321 115l11 -88l-231 -90l206 -217q43 -44 43 -101q0 -55 -42 -88q-38 -31 -94 -31h-452q-57 0 -92 44q-33 42 -33 99z" />
    <glyph glyph-name="u06AF" unicode="&#x6af;" horiz-adv-x="784" 
d="M44 143v133h88v-121q0 -38 14.5 -52.5t52.5 -14.5h428q17 0 31 12q14 11 14 27q0 11 -8 21l-244 251l-17 99l325 117l12 -88l-227 -87l203 -225q43 -47 43 -97q0 -58 -41 -90q-35 -28 -96 -28h-452q-56 0 -92 44q-34 41 -34 99zM706 665l-307 -111l-4 33l309 111z" />
    <glyph glyph-name="u0629" unicode="&#x6c0;" horiz-adv-x="395" 
d="M34 161q0 75 100 175l-25 28l59 60l161 -166q41 -44 41 -109q0 -68 -52 -114q-50 -45 -120 -45q-72 0 -118 49t-46 122zM228 534l-148 -75l-13 24l51 27q-44 24 -44 64q0 34 19 54q19 22 51 22q12 0 42 -11l-11 -23q-16 8 -27 8q-48 0 -48 -50q0 -39 37 -39q32 0 78 25z
M119 152q0 -33 26 -56q25 -21 60 -21t56 22q22 22 22 57q0 26 -14 42l-71 75q-79 -75 -79 -119z" />
    <glyph glyph-name="u064A" unicode="&#x6cc;" horiz-adv-x="629" 
d="M39 4v182h82v-191q0 -59 43 -96q41 -35 100 -35h113q53 0 93 33q44 36 44 86q0 43 -60 58q-15 3 -22 3h-122v151q0 66 44 112q42 44 111 44h106l3 -82h-105q-47 0 -66 -42q-9 -26 -10 -101q103 0 138 -12q67 -25 67 -110q0 -128 -93 -190q-55 -36 -122 -36h-136
q-91 0 -151 69q-57 64 -57 157z" />
    <glyph glyph-name="uni2000" unicode="&#x2000;" horiz-adv-x="504" 
 />
    <glyph glyph-name="uni2001" unicode="&#x2001;" horiz-adv-x="1008" 
 />
    <glyph glyph-name="uni2002" unicode="&#x2002;" horiz-adv-x="504" 
 />
    <glyph glyph-name="uni2003" unicode="&#x2003;" horiz-adv-x="1008" 
 />
    <glyph glyph-name="uni2004" unicode="&#x2004;" horiz-adv-x="336" 
 />
    <glyph glyph-name="uni2005" unicode="&#x2005;" horiz-adv-x="252" 
 />
    <glyph glyph-name="uni2006" unicode="&#x2006;" horiz-adv-x="168" 
 />
    <glyph glyph-name="uni2007" unicode="&#x2007;" horiz-adv-x="168" 
 />
    <glyph glyph-name="uni2008" unicode="&#x2008;" horiz-adv-x="126" 
 />
    <glyph glyph-name="uni2009" unicode="&#x2009;" horiz-adv-x="201" 
 />
    <glyph glyph-name="uni200A" unicode="&#x200a;" horiz-adv-x="56" 
 />
    <glyph glyph-name="zeronojoin" unicode="&#x200c;" horiz-adv-x="22" 
 />
    <glyph glyph-name="zerojoin" unicode="&#x200d;" horiz-adv-x="22" 
 />
    <glyph glyph-name="lefttoright" unicode="&#x200e;" horiz-adv-x="20" 
d="M20 696v-696h-20v715h95l-36 36l15 14l58 -60l-58 -60l-15 13l39 38h-78z" />
    <glyph glyph-name="righttoleft" unicode="&#x200f;" horiz-adv-x="20" 
d="M-40 658l-13 -13l-61 60l61 60l13 -14l-36 -36h96v-715h-20v696h-78z" />
    <glyph glyph-name="uni2010" unicode="&#x2010;" horiz-adv-x="561" 
d="M525 203v-86h-479v86h479z" />
    <glyph glyph-name="uni2011" unicode="&#x2011;" horiz-adv-x="561" 
d="M525 203v-86h-479v86h479z" />
    <glyph glyph-name="figuredash" unicode="&#x2012;" horiz-adv-x="561" 
d="M525 203v-86h-479v86h479z" />
    <glyph glyph-name="endash" unicode="&#x2013;" horiz-adv-x="582" 
d="M546 203v-86h-500v86h500z" />
    <glyph glyph-name="emdash" unicode="&#x2014;" horiz-adv-x="1082" 
d="M1046 203v-86h-1000v86h1000z" />
    <glyph glyph-name="quoteleft" unicode="&#x2018;" horiz-adv-x="323" 
d="M99 501q0 79 12 111q21 55 86 61v-32q-38 -5 -51 -37q-7 -18 -10 -67q92 0 92 -60q0 -54 -67 -54q-40 0 -52 21q-10 14 -10 57z" />
    <glyph glyph-name="quoteright" unicode="&#x2019;" horiz-adv-x="278" 
d="M75 619q0 54 66 54q39 0 53 -21q9 -15 9 -57q0 -81 -12 -112q-21 -54 -86 -60v32q38 3 52 36q7 18 9 68q-91 0 -91 60z" />
    <glyph glyph-name="quotedblleft" unicode="&#x201c;" horiz-adv-x="302" 
d="M19 499q0 79 12 111q21 55 86 60v-31q-39 -5 -52 -37q-6 -18 -9 -67q92 0 92 -61q0 -54 -67 -54q-39 0 -53 21q-9 15 -9 58zM166 501q0 79 12 111q21 55 86 61v-32q-38 -5 -51 -37q-7 -18 -10 -67q92 0 92 -60q0 -54 -66 -54q-41 0 -53 21q-10 14 -10 57z" />
    <glyph glyph-name="quotedblright" unicode="&#x201d;" horiz-adv-x="302" 
d="M19 617q0 53 66 53q39 0 53 -21q10 -14 10 -57q0 -80 -12 -111q-21 -53 -87 -61v32q38 5 52 38q7 16 9 66q-91 0 -91 61zM166 619q0 54 66 54q40 0 54 -21q9 -14 9 -57q0 -81 -12 -112q-23 -54 -86 -60v32q37 3 52 36q6 18 9 68q-92 0 -92 60z" />
    <glyph glyph-name="bullet" unicode="&#x2022;" horiz-adv-x="273" 
d="M0 136q0 57 40 97t96 40q57 0 97 -40t40 -97q0 -56 -40 -96t-97 -40q-56 0 -96 40t-40 96z" />
    <glyph glyph-name="uni202F" unicode="&#x202f;" horiz-adv-x="201" 
 />
    <glyph glyph-name="guilsinglleft" unicode="&#x2039;" horiz-adv-x="308" 
d="M239 74v-72l-156 123v94l156 122v-70l-126 -98z" />
    <glyph glyph-name="guilsinglright" unicode="&#x203a;" horiz-adv-x="280" 
d="M231 219v-94l-157 -123v71l129 97l-129 100v71z" />
    <glyph glyph-name="uni205F" unicode="&#x205f;" horiz-adv-x="252" 
 />
    <glyph glyph-name="uniE000" unicode="&#xe000;" horiz-adv-x="244" 
 />
    <glyph glyph-name="uE820" unicode="&#xe820;" 
d="M172 560l-153 -82l-14 23l154 86z" />
    <glyph glyph-name="uE821" unicode="&#xe821;" 
d="M134 548l-111 -59l-13 23l61 34q-38 23 -38 55q0 44 44 61q13 5 16 5q28 0 46 -18q20 -18 20 -45q0 -43 -25 -56zM55 602q0 -39 42 -39q13 0 26 15q13 13 13 27q0 16 -13 27.5t-30 11.5q-38 0 -38 -42z" />
    <glyph glyph-name="uE822" unicode="&#xe822;" 
d="M0 568q0 27 19 43q19 17 46 17t43 -19q17 -20 17 -46t-20 -43q-19 -18 -45 -18t-43 20t-17 46zM62 523q14 0 28 14q13 13 13 28q0 30 -30 39q-7 3 -11 3q-16 0 -28.5 -12.5t-12.5 -29.5t12.5 -29.5t28.5 -12.5z" />
    <glyph glyph-name="uE823" unicode="&#xe823;" 
d="M163 572l-154 -82l-14 23l154 85zM163 629l-154 -84l-13 25l153 85z" />
    <glyph glyph-name="uE824" unicode="&#xe824;" 
d="M15 535l-10 18q25 9 41 9q28 0 36 -38l37 22q-38 23 -38 56q0 44 42 60q17 5 18 5q27 0 46 -18t19 -44q0 -43 -24 -57l-139 -73l-13 23q24 17 31 26q0 17 -22 17q-15 0 -24 -6zM103 602q0 -38 41 -38q12 0 26 14q13 14 13 28q0 16 -12.5 27.5t-29.5 11.5q-38 0 -38 -43z
" />
    <glyph glyph-name="uE825" unicode="&#xe825;" 
d="M-15 595h22q0 -49 39 -49q40 0 41 49h24q0 -49 41 -49q39 0 40 49h23q0 -29 -17 -51q-18 -23 -47 -23q-23 0 -54 28q-22 -28 -54 -28q-27 0 -44 24q-14 22 -14 50z" />
    <glyph glyph-name="uE826" unicode="&#xe826;" 
d="M67 -179l-153 -83l-14 24l154 85z" />
    <glyph glyph-name="uE827" unicode="&#xe827;" 
d="M49 -225l-154 -83l-13 23l154 85zM49 -295l-154 -83l-13 24l154 85z" />
    <glyph glyph-name="uE828" unicode="&#xe828;" 
d="M-8 606h22q0 -48 40 -48q38 0 40 48h25q0 -48 40 -48t40 48h24q0 -28 -17 -51q-20 -23 -48 -23q-23 0 -54 28q-22 -28 -53 -28q-29 0 -45 24q-14 23 -14 50zM182 740l-154 -82l-13 23l153 86z" />
    <glyph glyph-name="uE829" unicode="&#xe829;" 
d="M-8 606h22q0 -48 40 -48q38 0 40 48h25q0 -48 40 -48t40 48h24q0 -28 -17 -51q-20 -23 -48 -23q-23 0 -54 28q-22 -28 -53 -28q-29 0 -45 24q-14 23 -14 50zM154 733l-111 -59l-14 23l62 34q-38 23 -38 55q0 44 44 61q12 5 16 5q27 0 46 -18t19 -44q0 -44 -24 -57z
M75 787q0 -39 42 -39q13 0 25 15q13 13 13 28t-13 26.5t-29 11.5q-38 0 -38 -42z" />
    <glyph glyph-name="uE82A" unicode="&#xe82a;" 
d="M-8 606h22q0 -48 40 -48q38 0 40 48h25q0 -48 40 -48t40 48h24q0 -28 -17 -51q-20 -23 -48 -23q-23 0 -54 28q-22 -28 -53 -28q-29 0 -45 24q-14 23 -14 50zM191 747l-153 -82l-14 22l154 85zM192 804l-154 -84l-14 24l154 85z" />
    <glyph glyph-name="uE82B" unicode="&#xe82b;" 
d="M2 598h22q0 -49 40 -49q39 0 40 49h25q0 -49 40 -49t40 49h24q0 -29 -17 -52q-20 -23 -48 -23q-22 0 -53 28q-22 -28 -54 -28q-27 0 -44 24q-15 23 -15 51zM28 733l-10 17q24 10 42 10q27 0 35 -38l37 22q-38 23 -38 55q0 45 42 61q17 5 18 5q26 0 46 -18q19 -18 19 -44
q0 -45 -24 -57l-138 -74l-14 24q24 17 31 26q0 16 -22 16q-12 0 -24 -5zM116 800q0 -38 41 -38q12 0 26 14q13 14 13 28q0 15 -12.5 26.5t-29.5 11.5q-38 0 -38 -42z" />
    <glyph glyph-name="uE82C" unicode="&#xe82c;" 
d="M90 726h22q0 -49 39 -49q40 0 41 49h24q0 -49 41 -49q39 0 40 49h23q0 -29 -17 -51q-18 -23 -47 -23q-23 0 -54 28q-22 -28 -54 -28q-28 0 -44 24q-14 22 -14 50zM282 602l-153 -83l-14 23l154 86z" />
    <glyph glyph-name="uE82D" unicode="&#xe82d;" 
d="M90 832h22q0 -49 39 -49q40 0 41 49h24q0 -49 41 -49q39 0 40 49h23q0 -29 -17 -52q-18 -23 -47 -23q-23 0 -54 28q-22 -28 -54 -28q-28 0 -44 24q-14 23 -14 51zM274 626l-153 -82l-14 23l154 86zM274 697l-153 -83l-14 23l154 85z" />
    <glyph glyph-name="_1" 
 />
    <glyph glyph-name="NULL" 
 />
    <glyph glyph-name="glyph218" 
d="M229 352v-141l-39 1v140h39z" />
    <glyph glyph-name="seven.002" horiz-adv-x="591" 
d="M51 435l76 39q81 -136 114 -225q5 -13 17 -59l34 -126l10 -1q36 178 94 284l70 127l76 -38l-73 -124q-35 -62 -63 -129q-44 -110 -77 -281h-68q-23 150 -76 279q-44 103 -134 254z" />
    <glyph glyph-name="u0643.002" horiz-adv-x="784" 
d="M36 143v133h88v-121q0 -37 14 -52t50 -15h421q47 0 47 41q0 17 -14 33l-230 237l-13 101l321 115l11 -88l-231 -90l206 -217q43 -44 43 -101q0 -55 -42 -88q-38 -31 -94 -31h-452q-57 0 -92 44q-33 42 -33 99z" />
  </font>
</defs>
</svg>
